{"glyphs":{"0":{"ha":1010,"x_min":-50,"x_max":928,"o":"m 326 1114 q 376 1149 353 1135 q 414 1190 399 1164 l 404 1190 q 373 1188 385 1190 q 353 1176 361 1185 q 338 1153 344 1168 q 326 1114 332 1138 m 142 1165 q 182 1185 167 1176 q 207 1202 197 1193 q 223 1223 217 1211 q 236 1256 229 1235 q 178 1219 197 1238 q 142 1165 160 1201 m 488 -181 q 437 -215 451 -199 q 422 -257 422 -231 q 423 -272 422 -264 q 425 -290 424 -281 q 461 -242 444 -267 q 488 -181 478 -217 m 603 -435 q 587 -433 594 -433 q 572 -433 579 -433 q 523 -447 539 -433 q 489 -497 507 -461 q 508 -499 500 -499 q 524 -499 517 -499 q 545 -496 536 -499 q 563 -486 554 -493 q 580 -467 571 -479 q 603 -435 589 -454 m 450 -149 q 484 -134 471 -140 q 504 -119 497 -128 q 514 -99 511 -111 q 517 -68 517 -87 l 517 -44 q 450 -149 450 -72 m 561 353 q 510 321 524 332 q 496 290 496 310 q 498 272 496 282 q 503 247 500 263 q 547 279 528 263 q 565 324 565 296 q 561 353 565 336 m 547 96 q 493 59 511 81 q 475 4 475 38 q 475 -6 475 -1 q 476 -18 475 -11 q 513 3 500 -6 q 533 22 526 11 q 542 50 540 33 q 547 96 544 67 m 557 229 q 505 198 519 214 q 490 161 490 182 q 499 117 490 142 q 561 197 561 143 q 557 229 561 213 m 481 -432 q 465 -431 472 -431 q 451 -431 458 -431 q 394 -444 413 -431 q 356 -493 375 -457 q 388 -499 371 -499 q 440 -480 418 -499 q 481 -432 461 -461 m 258 -382 q 224 -349 235 -349 q 189 -371 213 -349 q 180 -378 185 -375 q 172 -386 175 -382 q 160 -397 167 -392 q 154 -410 154 -403 q 160 -422 154 -415 q 188 -439 172 -439 q 211 -429 200 -439 q 237 -408 224 -418 q 258 -382 250 -397 m 489 607 q 517 631 504 621 q 542 650 529 642 q 561 689 561 665 q 560 706 561 700 q 547 725 557 725 q 531 717 540 725 q 490 687 501 696 q 479 663 479 678 q 482 641 479 654 q 489 607 485 628 m 567 481 q 532 461 546 469 q 510 446 518 453 q 499 431 503 439 q 496 414 496 424 q 497 395 496 406 q 501 369 499 385 q 556 401 542 389 q 571 438 571 413 q 569 456 571 446 q 567 481 568 467 m 444 1153 q 439 1151 442 1151 q 433 1149 436 1151 q 414 1134 424 1142 q 394 1118 404 1126 q 371 1099 379 1106 q 363 1085 363 1092 q 369 1069 363 1078 q 392 1044 376 1060 q 419 1067 406 1056 q 446 1092 432 1079 q 465 1117 465 1108 q 460 1131 465 1124 q 444 1153 456 1138 m 132 -365 q 153 -354 144 -362 q 172 -337 163 -346 q 195 -317 188 -325 q 203 -301 203 -310 q 198 -284 203 -294 q 185 -257 193 -274 q 131 -289 147 -276 q 115 -317 115 -301 q 120 -337 115 -325 q 132 -365 125 -349 m 99 -262 q 153 -231 138 -243 q 169 -201 169 -218 q 165 -180 169 -192 q 151 -151 160 -168 q 100 -185 115 -174 q 85 -211 85 -196 q 88 -233 85 -221 q 99 -262 92 -244 m 356 -424 q 328 -409 339 -414 q 306 -404 317 -404 q 274 -419 289 -404 q 233 -467 258 -433 q 259 -482 249 -476 q 281 -487 269 -487 q 311 -473 294 -487 q 356 -424 328 -458 m 535 842 q 506 825 517 836 q 481 807 494 814 q 464 791 468 800 q 460 771 460 782 q 464 743 460 757 q 476 729 467 729 q 488 732 479 729 q 530 758 517 744 q 543 794 543 771 q 535 842 543 813 m 510 953 q 455 919 474 933 q 436 885 436 904 q 456 836 436 868 q 511 876 496 864 q 526 903 526 889 q 522 922 526 911 q 510 953 517 933 m 72 -156 q 125 -119 108 -133 q 142 -90 142 -106 q 135 -66 142 -79 q 115 -33 128 -53 q 65 -76 79 -62 q 50 -101 50 -90 q 56 -122 50 -110 q 72 -156 63 -133 m 563 615 q 507 574 522 588 q 492 542 492 561 q 500 492 492 525 q 558 525 542 510 q 574 563 574 540 q 571 586 574 574 q 563 615 568 599 m 79 993 q 153 1047 131 1013 q 179 1135 176 1082 q 108 1082 136 1111 q 79 1000 79 1053 l 79 993 m 39 -43 q 94 0 79 -14 q 110 32 110 14 q 97 83 110 47 q 38 42 54 60 q 21 7 21 25 q 26 -16 21 -4 q 39 -43 31 -28 m 3 522 q 62 560 42 538 q 82 615 82 582 q 78 649 82 629 q 40 631 54 639 q 17 614 25 624 q 6 589 8 604 q 3 550 3 574 l 3 522 m 422 943 q 482 983 464 969 q 500 1011 500 996 q 494 1034 500 1022 q 479 1065 489 1046 q 423 1027 439 1042 q 407 994 407 1013 q 422 943 407 978 m 14 665 q 81 708 63 689 q 100 760 100 728 q 94 806 100 782 q 31 760 50 790 q 13 689 13 729 q 13 677 13 682 q 14 665 13 672 m 76 215 q 18 173 36 190 q 0 136 0 156 q 6 110 0 124 q 24 81 13 97 q 69 118 49 99 q 90 168 90 138 q 76 215 90 189 m 133 974 q 60 920 82 954 q 39 838 39 886 l 39 824 q 111 876 89 840 q 133 964 133 911 l 133 974 m -15 358 q 53 401 33 383 q 74 447 74 419 q 70 474 74 460 q 61 507 67 488 q 21 483 36 493 q -3 461 6 474 q -13 431 -11 449 q -15 385 -15 414 l -15 358 m -1 213 q 59 252 43 239 q 75 289 75 265 q 72 315 75 300 q 64 353 69 331 q 4 322 21 335 q -12 283 -12 310 q -10 253 -12 271 q -1 213 -7 236 m 308 1071 q 294 1052 297 1063 q 289 1031 292 1042 q 203 433 203 728 q 230 105 203 268 q 315 -222 257 -58 q 324 -243 319 -233 q 335 -262 328 -253 q 363 -279 344 -279 l 368 -279 q 379 -267 378 -276 q 383 -251 381 -258 q 426 -83 408 -168 q 450 89 443 1 q 459 224 456 157 q 463 360 463 292 q 455 549 463 456 q 428 738 447 643 q 399 881 414 810 q 353 1018 385 951 q 337 1049 346 1035 q 308 1071 328 1064 m 924 404 q 907 118 922 258 q 857 -161 892 -22 q 800 -305 838 -239 q 718 -436 763 -371 q 627 -513 682 -490 q 510 -537 572 -536 q 398 -536 454 -537 q 286 -524 342 -535 q 160 -470 211 -508 q 85 -353 108 -432 q 5 -65 40 -208 q -46 231 -31 79 q -50 314 -50 272 q -45 426 -50 371 q -36 538 -40 482 q -12 750 -29 646 q 22 960 4 854 q 52 1074 32 1019 q 103 1181 72 1129 q 188 1274 138 1239 q 308 1318 238 1310 q 469 1331 389 1329 q 628 1333 549 1332 l 632 1333 q 690 1320 664 1333 q 739 1285 715 1307 q 794 1215 772 1253 q 829 1132 815 1176 q 901 824 874 978 q 928 513 928 671 q 924 404 928 458 z "},"1":{"ha":817,"x_min":-43,"x_max":744,"o":"m 143 904 q 123 895 131 899 q 110 888 115 892 q 101 876 106 883 q 92 858 97 869 q 123 876 111 864 q 143 904 135 889 m 342 -467 q 358 -469 351 -468 q 371 -469 364 -469 q 392 -461 386 -469 q 413 -428 399 -453 q 396 -425 399 -425 q 365 -438 376 -425 q 342 -467 353 -451 m 1 -406 q 30 -384 19 -392 q 47 -370 40 -376 q 56 -357 53 -364 q 65 -339 60 -350 q 32 -347 44 -343 q 13 -357 19 -350 q 5 -375 7 -364 q 1 -406 3 -386 m 33 872 q 74 906 57 890 q 106 938 90 921 q 107 943 107 939 q 103 953 107 949 q 96 956 100 956 l 94 956 q 74 942 85 949 q 55 926 64 936 q 40 904 46 917 q 33 872 35 892 m 106 -471 q 119 -473 113 -472 q 132 -474 125 -474 q 192 -431 174 -474 q 167 -425 179 -425 q 134 -439 147 -425 q 106 -471 121 -453 m 199 861 q 221 883 210 874 q 242 903 232 893 q 258 927 251 914 q 267 960 264 940 q 242 940 254 949 q 219 922 229 932 q 204 898 210 911 q 199 864 199 885 l 199 861 m 656 -426 q 619 -422 632 -422 q 593 -432 601 -422 q 569 -467 585 -442 q 582 -469 576 -469 q 594 -469 588 -469 q 656 -426 636 -469 m 533 -431 q 511 -426 521 -426 q 476 -440 490 -426 q 449 -472 461 -453 q 475 -476 463 -476 q 510 -464 496 -476 q 533 -431 524 -451 m 239 -472 q 285 -465 265 -472 q 313 -428 304 -457 q 288 -424 297 -424 q 250 -437 265 -424 q 219 -472 235 -450 l 239 -472 m 267 867 q 218 829 232 843 q 204 800 204 815 q 213 769 204 788 q 228 788 218 781 q 247 803 238 796 q 265 821 257 811 q 272 844 272 831 q 271 854 272 849 q 267 867 269 860 m 101 -407 q 95 -395 99 -400 q 86 -390 92 -390 q 74 -396 82 -390 l 32 -433 q 21 -444 28 -439 q 14 -456 14 -449 q 21 -468 14 -462 q 36 -475 28 -475 q 58 -462 46 -475 q 76 -444 67 -453 q 93 -426 85 -436 q 99 -420 96 -424 q 103 -411 103 -417 q 102 -409 103 -410 q 101 -407 101 -408 m 268 190 q 219 162 232 172 q 206 132 206 151 q 207 117 206 125 q 211 99 208 110 q 231 113 221 107 q 251 127 242 119 q 266 144 260 135 q 272 167 272 153 q 268 190 272 175 m 258 -242 q 240 -251 250 -244 q 203 -268 231 -257 q 195 -276 200 -271 q 190 -283 190 -281 q 192 -290 190 -287 q 201 -296 196 -296 q 206 -295 204 -296 q 211 -294 208 -294 q 238 -291 228 -292 q 252 -288 247 -290 q 259 -282 257 -286 q 261 -267 261 -278 q 260 -255 261 -261 q 258 -242 260 -249 m 267 89 q 217 56 231 67 q 204 29 204 44 q 206 14 204 22 q 210 -6 207 6 q 231 8 219 1 q 251 21 242 14 q 267 37 261 28 q 274 60 274 46 q 267 89 274 71 m 208 200 q 233 217 221 210 q 254 234 244 225 q 270 253 264 243 q 276 279 276 264 q 272 307 276 292 q 226 276 249 290 q 203 231 203 261 q 208 200 203 215 m 194 -118 q 256 -81 240 -94 q 272 -50 272 -68 q 271 -37 272 -43 q 267 -21 269 -31 q 229 -38 243 -31 q 208 -56 215 -46 q 197 -81 200 -67 q 194 -118 194 -96 m 274 418 q 251 399 264 407 q 227 383 239 392 q 208 363 215 374 q 200 336 200 353 q 204 314 200 326 q 240 331 226 324 q 263 344 254 338 q 274 360 271 351 q 278 379 278 368 q 274 418 278 393 m 258 -133 q 201 -165 217 -151 q 186 -206 186 -179 q 187 -220 186 -212 q 189 -239 188 -228 q 214 -223 201 -231 q 238 -206 226 -215 q 256 -186 249 -197 q 263 -158 263 -175 q 258 -133 263 -149 m 274 772 q 219 732 233 747 q 204 697 204 717 q 211 656 204 683 q 233 676 221 667 q 255 694 244 685 q 272 716 265 704 q 279 744 279 728 q 274 772 279 757 m 276 658 q 219 615 236 631 q 203 578 203 599 q 211 538 203 563 q 233 558 221 549 q 256 578 244 568 q 274 601 267 589 q 282 629 282 613 q 276 658 282 643 m 204 414 q 231 435 217 425 q 257 456 246 446 q 276 480 268 467 q 283 510 283 493 q 276 544 283 524 q 251 523 265 533 q 226 501 238 513 q 208 476 215 490 q 200 442 200 461 q 204 414 200 428 m 158 853 q 124 832 139 842 q 93 818 110 822 q 61 813 78 813 q 11 835 29 813 q -3 881 -3 853 q 11 931 -3 910 q 23 945 17 938 q 36 958 29 953 q 171 1074 107 1013 q 304 1190 235 1135 q 395 1257 349 1226 q 490 1317 442 1288 q 540 1331 513 1331 q 606 1306 576 1331 q 635 1246 635 1282 l 635 1232 q 635 1216 635 1224 q 636 1200 636 1208 l 636 1193 q 632 1071 632 1132 q 642 815 632 942 q 651 558 651 688 q 651 522 651 540 q 650 486 651 504 q 645 306 646 396 q 642 126 644 215 q 636 -49 640 38 q 621 -217 632 -135 q 619 -233 619 -225 q 619 -250 619 -242 q 620 -272 619 -264 q 624 -283 621 -279 q 635 -287 628 -286 q 656 -289 642 -289 q 744 -358 744 -292 q 742 -381 744 -369 q 733 -407 740 -393 q 683 -477 714 -451 q 601 -506 651 -503 q 468 -509 535 -508 q 335 -510 401 -510 q 201 -510 268 -510 q 68 -514 135 -511 l 60 -514 q -8 -494 17 -514 q -40 -439 -33 -475 q -42 -424 -42 -432 q -43 -410 -43 -417 q 33 -307 -43 -333 q 72 -297 53 -300 q 111 -293 92 -293 q 143 -264 140 -293 q 144 -252 143 -257 q 144 -240 144 -247 q 159 -39 151 -151 q 167 193 167 74 q 163 326 167 260 q 160 383 161 354 q 160 440 160 413 q 161 566 160 503 q 163 692 163 629 q 163 756 163 724 q 160 821 163 789 q 159 833 160 826 q 158 853 158 839 z "},"2":{"ha":985,"x_min":-46,"x_max":890,"o":"m 128 1210 q 148 1213 140 1211 q 159 1218 156 1215 q 165 1227 163 1221 q 169 1244 167 1233 q 146 1231 157 1238 q 128 1210 135 1224 m 282 1146 q 324 1167 303 1156 q 363 1201 344 1178 l 353 1201 q 306 1185 321 1201 q 282 1146 292 1169 m 447 -451 q 433 -449 440 -450 q 418 -449 425 -449 q 379 -458 397 -449 q 346 -489 361 -467 q 381 -493 364 -493 q 417 -484 400 -493 q 447 -451 433 -475 m 267 82 q 234 67 246 74 q 216 54 222 61 q 208 38 210 47 q 206 14 206 28 l 206 0 q 250 24 233 7 q 267 75 267 42 l 267 82 m 197 -499 q 229 -503 214 -503 q 278 -489 257 -503 q 315 -451 299 -475 q 290 -447 300 -447 q 242 -464 263 -447 q 197 -499 222 -481 m 39 -353 q 97 -322 75 -343 q 132 -265 119 -301 q 98 -276 114 -271 q 69 -292 82 -282 q 49 -316 57 -301 q 39 -353 40 -331 m 92 -231 q 178 -172 178 -225 q 176 -156 178 -161 q 140 -169 153 -164 q 118 -182 126 -175 q 105 -200 110 -189 q 92 -231 100 -211 m 231 99 q 267 108 254 100 q 288 130 281 117 q 300 160 296 143 q 308 194 304 176 q 251 164 272 183 q 231 108 231 144 l 231 99 m 481 -486 q 501 -492 492 -490 q 519 -493 510 -493 q 567 -478 547 -493 q 604 -437 586 -462 q 574 -433 588 -433 q 481 -486 521 -433 m 460 644 q 420 628 435 635 q 397 614 406 621 q 386 597 389 607 q 383 574 383 588 l 383 554 q 426 574 411 565 q 449 591 442 582 q 458 613 457 600 q 460 644 460 625 m 26 1036 q 90 1073 65 1051 q 115 1139 115 1094 l 115 1146 q 55 1105 79 1129 q 26 1036 31 1081 m 19 -468 q 36 -460 24 -468 q 62 -443 49 -453 q 85 -423 75 -433 q 96 -408 96 -412 q 92 -391 94 -400 q 81 -382 90 -382 l 76 -382 q 38 -398 57 -387 q 7 -425 19 -408 q 3 -440 3 -432 q 8 -458 3 -450 q 19 -468 13 -467 m 356 1082 q 382 1099 368 1090 q 410 1118 396 1108 q 419 1135 419 1124 q 415 1147 419 1140 q 394 1163 406 1163 q 383 1160 388 1163 q 357 1143 369 1151 q 331 1126 344 1135 q 321 1113 321 1119 q 324 1104 321 1107 q 336 1090 331 1097 q 353 1082 342 1082 l 356 1082 m 144 -122 q 192 -108 175 -114 q 218 -92 210 -101 q 229 -67 226 -82 q 235 -28 232 -53 q 144 -122 158 -40 m 442 1094 q 410 1074 425 1083 q 382 1054 396 1064 q 371 1035 371 1047 q 374 1022 371 1028 q 379 1010 376 1017 q 392 1000 383 1000 q 401 1003 396 1000 q 411 1008 406 1006 q 431 1019 422 1014 q 451 1028 440 1024 q 465 1046 465 1033 q 461 1060 465 1053 q 442 1094 456 1072 m 186 -451 q 149 -442 167 -442 q 100 -460 121 -442 q 56 -496 79 -478 q 82 -507 71 -503 q 104 -511 93 -511 q 138 -498 119 -511 q 186 -451 156 -485 m 81 1015 q 19 983 36 996 q 3 947 3 971 q 4 930 3 940 q 8 907 6 919 q 60 938 36 922 q 85 989 85 954 q 81 1015 85 1000 m 607 -492 q 631 -494 621 -493 q 650 -494 642 -494 q 695 -483 678 -494 q 744 -435 713 -471 q 708 -426 725 -426 q 657 -448 679 -426 q 607 -492 635 -469 m 499 890 q 434 862 453 874 q 415 829 415 850 q 424 789 415 814 q 449 803 435 797 q 474 817 463 810 q 494 836 486 825 q 503 865 503 847 q 499 890 503 875 m 406 668 q 469 699 453 686 q 485 739 485 711 q 484 755 485 746 q 482 775 483 764 q 425 745 446 765 q 404 688 404 725 q 406 668 404 675 m -4 785 q 35 808 19 799 q 60 826 51 818 q 74 842 69 835 q 78 858 78 849 q 76 874 78 865 q 71 896 74 883 q 32 876 47 883 q 8 860 17 868 q -3 844 0 853 q -6 821 -6 835 q -6 805 -6 814 q -4 785 -6 796 m 78 675 q 43 647 58 660 q 13 621 28 633 q 3 601 3 611 q 8 586 3 593 q 21 574 14 579 q 35 568 28 568 q 40 569 39 568 q 75 593 60 578 q 101 625 90 608 q 104 636 104 629 q 94 656 104 647 q 78 675 85 664 m -3 661 q 61 709 43 693 q 79 742 79 725 q 67 783 79 756 q 15 749 39 768 q -10 696 -10 731 q -3 661 -10 682 m 414 892 q 453 913 436 904 q 488 933 471 922 q 500 958 500 942 q 497 974 500 965 q 492 989 494 982 q 479 1000 486 1000 q 467 996 472 1000 q 454 989 461 992 q 442 983 447 986 q 431 976 438 979 q 410 962 418 969 q 401 942 401 954 q 406 924 401 933 q 410 910 408 918 q 414 892 411 903 m 511 -308 q 660 -299 590 -299 q 800 -297 731 -299 q 866 -315 842 -297 q 890 -364 890 -332 q 876 -414 890 -387 q 824 -482 857 -454 q 747 -521 792 -510 q 687 -531 717 -528 q 626 -535 657 -535 q 603 -534 615 -535 q 579 -532 590 -533 q 523 -528 551 -529 q 465 -526 494 -526 q 329 -532 397 -526 q 193 -544 261 -537 q 164 -547 178 -546 q 135 -547 150 -547 q 53 -537 90 -547 q -29 -443 -29 -514 q -21 -396 -29 -421 q 53 -217 11 -304 q 136 -42 96 -131 q 172 47 156 3 q 201 138 189 90 q 267 360 233 254 q 332 532 300 467 q 365 674 351 603 q 378 818 378 744 q 377 850 378 833 q 375 882 376 867 q 351 988 368 938 q 293 1081 333 1039 q 260 1106 269 1106 q 235 1068 247 1106 q 208 897 208 988 l 208 769 q 208 732 208 750 q 207 694 208 714 q 183 603 206 642 q 113 542 161 564 q 54 528 83 528 q -15 557 13 528 q -43 638 -42 586 q -45 704 -44 671 q -46 771 -46 738 q -42 872 -46 822 q -31 974 -39 922 q 28 1145 -14 1067 q 151 1278 69 1224 q 248 1323 197 1310 q 353 1336 299 1336 q 474 1335 414 1335 q 594 1329 533 1335 q 666 1313 632 1325 q 724 1269 700 1301 q 830 1098 786 1186 q 876 903 874 1010 l 876 886 q 865 769 876 826 q 843 653 854 711 q 781 474 818 582 q 707 247 743 367 q 657 83 683 164 q 606 -79 631 3 q 584 -141 596 -111 q 558 -200 572 -171 q 537 -249 547 -224 q 511 -308 526 -275 m 429 539 q 390 522 404 529 q 368 508 376 515 q 356 490 360 500 q 347 467 351 481 l 343 446 q 391 464 374 456 q 417 483 408 472 q 427 506 425 493 q 429 539 429 519 m 392 429 q 353 413 367 419 q 331 398 339 406 q 318 381 322 390 q 310 357 314 371 l 306 336 q 353 354 336 346 q 379 373 371 363 q 390 397 388 383 q 392 429 392 410 m 347 310 q 308 293 322 300 q 286 278 294 286 q 274 261 278 271 q 265 238 269 251 l 261 217 q 309 235 292 226 q 335 253 326 243 q 345 277 343 264 q 347 310 347 290 z "},"3":{"ha":1040,"x_min":-33,"x_max":961,"o":"m 507 -269 q 519 -274 515 -274 q 531 -269 526 -274 q 538 -265 533 -267 q 543 -257 543 -262 q 542 -251 543 -254 q 507 -269 522 -251 m 113 578 q 136 590 128 585 q 149 599 144 594 q 156 608 153 603 q 161 622 158 614 q 137 608 146 619 q 113 578 128 596 m 325 157 q 342 165 333 161 q 360 173 351 168 q 374 187 368 178 q 382 213 381 196 q 349 185 363 197 q 325 157 335 174 m 99 264 q 67 253 79 258 q 49 242 56 249 q 41 226 43 236 q 39 201 39 217 q 74 226 56 215 q 99 264 93 236 m 361 1133 q 372 1133 367 1133 q 381 1132 376 1132 q 422 1144 407 1132 q 456 1188 436 1156 q 406 1168 428 1182 q 361 1133 385 1154 m 176 1110 q 125 1088 144 1104 q 94 1039 106 1071 q 122 1050 108 1044 q 147 1063 136 1056 q 166 1081 158 1069 q 176 1110 174 1092 m 469 351 q 513 385 501 368 q 532 444 524 403 q 501 431 513 440 q 483 410 489 422 q 474 383 476 399 q 469 351 471 368 m 754 -414 q 739 -412 749 -412 q 712 -419 724 -412 q 691 -434 700 -425 q 673 -455 682 -443 q 653 -479 664 -467 q 687 -472 671 -475 q 716 -462 703 -468 q 739 -444 729 -456 q 754 -414 749 -433 m 522 814 q 572 842 558 833 q 586 867 586 851 q 584 887 586 878 q 579 907 582 896 q 531 879 543 889 q 519 844 519 869 q 520 831 519 838 q 522 814 521 824 m 521 708 q 572 734 558 725 q 585 758 585 743 q 583 782 585 774 q 579 801 582 790 q 549 787 560 793 q 531 774 538 781 q 522 758 524 767 q 519 735 519 749 q 519 723 519 729 q 521 708 519 717 m 518 -218 q 544 -201 531 -208 q 569 -184 558 -193 q 586 -164 579 -175 q 593 -136 593 -153 q 590 -115 593 -129 q 566 -131 579 -124 q 542 -147 553 -137 q 524 -168 531 -156 q 517 -200 517 -181 q 518 -218 517 -211 m 539 1156 q 535 1163 538 1158 q 529 1169 533 1167 q 521 1174 525 1174 q 510 1168 515 1174 q 481 1146 494 1157 q 453 1124 468 1135 q 444 1111 444 1117 q 453 1096 444 1104 q 465 1089 460 1089 q 481 1096 471 1089 q 503 1115 492 1106 q 528 1133 515 1124 q 535 1141 532 1136 q 539 1156 539 1146 m 74 68 q 21 40 36 50 q 6 17 6 31 q 18 -19 6 3 q 35 -6 25 -11 q 56 6 46 0 q 72 21 65 13 q 79 42 79 29 q 74 68 79 56 m 446 149 q 419 153 433 153 q 314 88 368 153 q 333 86 321 86 q 392 108 368 86 q 446 149 417 131 m 513 913 q 542 933 528 924 q 571 953 557 943 q 585 975 585 961 q 583 988 585 983 q 579 997 582 993 q 568 1006 574 1006 q 558 1001 563 1006 q 547 994 553 997 q 533 985 540 990 q 518 976 525 981 q 499 944 499 967 q 513 913 499 928 m 129 1004 q 87 991 103 997 q 63 976 71 985 q 51 953 54 967 q 47 919 47 940 q 76 931 61 925 q 103 944 92 936 q 122 965 114 953 q 129 997 129 978 l 129 1004 m 571 579 q 519 547 542 564 q 497 499 497 531 q 500 479 497 493 q 556 513 540 488 q 571 579 571 538 m 510 588 q 535 603 522 596 q 560 618 549 610 q 578 639 571 626 q 585 671 585 651 q 581 694 585 682 q 543 676 557 683 q 522 659 529 668 q 513 636 515 650 q 510 600 510 622 l 510 588 m 258 -396 q 249 -381 258 -387 q 229 -374 239 -374 q 218 -376 221 -374 q 197 -392 207 -383 q 176 -411 188 -401 q 168 -418 172 -414 q 164 -429 164 -422 q 165 -435 164 -433 q 190 -454 172 -450 l 192 -454 q 208 -447 197 -454 q 231 -431 219 -440 q 250 -412 242 -422 q 258 -397 258 -403 l 258 -396 m 83 181 q 26 149 40 160 q 13 117 13 138 q 13 104 13 111 q 15 88 14 97 q 51 102 38 96 q 71 115 64 108 q 81 132 78 122 q 83 157 83 142 l 83 181 m 515 -18 q 550 9 535 -3 q 581 33 565 21 q 592 56 592 43 q 582 79 592 67 q 572 85 578 85 q 561 78 567 85 q 551 68 556 72 q 522 46 538 57 q 506 14 506 35 q 515 -18 506 0 m 24 -124 q 74 -90 60 -103 q 89 -64 89 -78 q 85 -49 89 -57 q 76 -29 82 -40 q 27 -55 40 -44 q 14 -81 14 -65 q 17 -99 14 -89 q 24 -124 19 -108 m 554 1099 q 501 1067 517 1079 q 485 1040 485 1056 q 494 1008 485 1031 q 549 1039 531 1028 q 568 1065 568 1050 q 554 1099 568 1079 m 367 -433 q 333 -423 346 -426 q 308 -419 319 -419 q 281 -431 293 -419 q 250 -469 269 -442 q 275 -478 265 -475 q 293 -481 285 -481 q 322 -470 308 -481 q 367 -433 336 -460 m 100 899 q 32 868 49 879 q 15 832 15 857 q 16 818 15 825 q 18 801 17 811 q 45 818 31 811 q 72 835 60 825 q 92 858 83 844 q 100 893 100 871 l 100 899 m 615 -433 q 553 -447 578 -433 q 510 -493 529 -461 q 521 -494 515 -494 q 532 -494 526 -494 q 588 -481 563 -494 q 632 -433 614 -468 l 615 -433 m 494 -436 q 481 -435 488 -435 q 468 -435 475 -435 q 371 -494 404 -435 q 390 -496 382 -496 q 404 -496 397 -496 q 428 -493 418 -496 q 449 -484 439 -490 q 469 -466 458 -478 q 494 -436 479 -454 m 519 -111 q 581 -78 564 -90 q 599 -50 599 -67 q 595 -32 599 -42 q 586 -8 592 -22 q 565 -26 578 -18 q 542 -42 553 -33 q 523 -61 531 -50 q 515 -87 515 -72 q 519 -111 515 -99 m 107 -357 q 133 -392 117 -381 q 139 -393 135 -393 q 148 -388 144 -393 q 156 -381 151 -383 l 193 -347 q 200 -335 200 -340 q 194 -324 200 -332 q 183 -308 188 -317 q 168 -296 179 -299 q 153 -303 164 -296 q 133 -322 143 -311 q 115 -342 122 -332 q 107 -357 107 -353 m 96 -126 q 45 -156 60 -144 q 31 -182 31 -167 q 43 -225 31 -196 q 65 -214 56 -222 q 83 -197 74 -206 q 105 -180 99 -186 q 111 -165 111 -174 q 107 -150 111 -158 q 96 -126 103 -142 m 83 -318 q 113 -290 100 -303 q 140 -265 126 -278 q 149 -249 149 -257 q 146 -237 149 -243 q 140 -225 143 -232 q 135 -219 138 -222 q 129 -215 133 -215 q 124 -217 125 -215 q 88 -239 106 -228 q 60 -268 71 -250 q 57 -278 57 -271 q 67 -298 57 -289 q 83 -318 76 -307 m 485 63 q 515 87 501 76 q 542 108 528 97 q 557 121 550 115 q 564 135 564 126 q 556 153 564 142 q 538 164 549 164 q 525 160 531 164 q 513 151 519 156 q 488 134 500 143 q 463 115 475 125 q 458 109 460 113 q 453 101 456 106 q 467 83 460 93 q 485 63 475 74 m 99 692 q 63 663 79 676 q 32 635 47 650 q 22 617 22 626 q 27 601 22 608 q 38 586 32 593 q 51 578 46 578 q 63 583 58 578 q 74 593 68 588 q 85 606 81 600 q 96 618 90 611 q 112 636 107 629 q 117 650 117 643 q 99 692 117 660 m 17 676 q 76 720 58 704 q 94 753 94 736 q 79 793 94 767 q 19 756 36 769 q 3 726 3 743 q 6 706 3 718 q 17 676 10 694 m 943 990 q 947 922 946 967 q 947 822 947 876 q 947 747 947 785 q 944 673 946 708 q 940 608 943 638 q 933 557 938 578 q 903 433 919 494 q 854 318 888 372 q 846 294 846 306 q 858 269 846 282 q 928 159 910 221 q 956 31 947 97 q 960 -15 958 7 q 961 -58 961 -36 q 913 -294 961 -183 q 792 -456 868 -396 q 601 -525 717 -515 q 520 -530 561 -528 q 439 -532 479 -532 q 341 -528 390 -532 q 243 -511 292 -524 q 163 -479 199 -500 q 103 -418 126 -458 q 67 -361 86 -389 q 29 -306 49 -333 q 1 -237 7 -272 q -22 -101 -11 -169 q -33 36 -33 -33 q -31 91 -33 64 q -24 146 -29 118 q -15 191 -19 169 q 0 232 -10 213 q 56 292 19 269 q 133 314 92 314 q 154 313 147 314 q 225 235 225 301 q 224 228 225 232 q 224 221 224 225 q 215 130 219 175 q 211 39 211 85 q 211 15 211 28 q 213 -8 211 3 q 242 -132 217 -75 q 299 -244 267 -189 q 364 -293 321 -283 q 414 -301 393 -301 q 454 -283 442 -301 q 474 -224 467 -265 q 479 -177 478 -200 q 481 -131 481 -154 q 472 -17 481 -72 q 466 11 471 -1 q 454 36 461 24 q 437 63 443 56 q 421 71 431 71 q 385 60 411 71 q 377 57 381 58 q 369 53 374 56 q 333 47 353 47 q 290 63 310 47 q 268 121 268 85 q 269 142 268 135 q 284 175 274 161 q 310 200 294 189 q 416 330 383 256 q 460 492 449 404 q 469 569 464 531 q 477 642 474 608 q 483 701 481 675 q 486 742 485 728 q 485 769 486 756 q 485 796 485 782 q 469 918 482 858 q 440 1039 456 978 q 421 1076 435 1063 q 383 1090 407 1089 l 369 1090 q 330 1084 349 1090 q 300 1056 311 1078 q 247 932 268 994 q 224 800 226 869 l 224 788 q 226 757 224 772 q 231 726 228 742 q 235 693 235 710 q 224 636 235 664 q 193 585 213 608 q 149 548 174 563 q 94 531 124 533 l 81 531 q 29 544 50 531 q -6 588 8 557 q -22 628 -15 607 q -29 674 -29 650 q -30 693 -29 683 q -31 713 -31 703 q 33 1013 -31 878 q 239 1246 96 1147 q 374 1307 303 1289 q 521 1331 446 1325 q 544 1332 532 1332 q 568 1332 556 1332 q 620 1331 594 1332 q 674 1331 646 1331 l 707 1331 q 831 1290 785 1331 q 900 1182 876 1250 q 928 1087 917 1135 q 943 990 940 1039 z "},"4":{"ha":1058,"x_min":-54,"x_max":974,"o":"m 599 1039 q 573 997 583 1015 q 560 954 563 978 q 603 1007 603 968 q 599 1039 603 1019 m 461 1133 q 488 1140 478 1138 q 502 1149 497 1143 q 510 1167 507 1156 q 517 1200 513 1179 q 480 1174 490 1193 q 461 1133 469 1156 m 397 1015 q 444 1038 428 1022 q 465 1083 461 1053 q 418 1062 433 1078 q 397 1015 403 1046 m 732 -465 q 751 -467 743 -467 q 765 -468 758 -468 q 787 -460 781 -468 q 804 -426 793 -451 q 794 -424 799 -425 q 786 -424 790 -424 q 732 -465 754 -424 m 222 649 q 274 682 260 660 q 292 735 289 704 q 265 724 275 732 q 247 703 254 715 q 234 678 239 692 q 222 649 229 664 m 343 907 q 378 917 365 913 q 396 927 390 921 q 403 943 401 933 q 407 972 406 953 q 365 952 383 965 q 343 907 347 939 m 290 786 q 339 813 322 796 q 360 861 356 829 q 312 838 326 857 q 290 786 297 818 m 161 522 q 198 542 185 535 q 217 556 211 549 q 225 574 224 564 q 226 601 226 585 q 186 573 199 594 q 161 522 174 551 m 118 375 q 28 285 46 353 q 88 313 68 290 q 118 375 108 336 m 607 -471 q 633 -475 622 -474 q 651 -476 643 -476 q 679 -466 671 -476 q 696 -428 688 -456 q 671 -424 683 -424 q 607 -471 631 -424 m 594 922 q 544 892 558 901 q 531 867 531 882 q 538 832 531 857 q 557 845 546 839 q 577 858 568 851 q 592 874 586 865 q 599 897 599 883 q 594 922 599 907 m 188 492 q 132 469 150 488 q 106 408 114 450 q 161 437 142 415 q 188 492 181 458 m 324 132 q 371 126 351 126 q 402 138 392 126 q 428 179 413 149 q 400 185 415 185 q 357 169 375 185 q 324 132 339 154 m 524 319 q 556 313 544 313 q 592 350 592 313 q 590 365 592 357 q 586 381 589 372 q 555 351 571 365 q 524 319 539 336 m 589 593 q 535 554 550 569 q 519 518 519 539 q 526 482 519 507 q 546 503 535 494 q 567 522 557 513 q 585 543 578 532 q 593 569 593 554 q 589 593 593 581 m 497 -462 q 511 -465 504 -464 q 525 -465 518 -465 q 589 -428 572 -465 q 592 -418 592 -419 q 581 -398 592 -406 q 560 -382 569 -390 q 527 -420 544 -403 q 497 -462 510 -437 m 592 707 q 539 671 554 688 q 524 624 524 654 q 524 610 524 617 q 526 594 525 603 q 549 615 536 606 q 572 635 561 625 q 589 656 582 644 q 596 683 596 667 q 592 707 596 694 m 594 818 q 539 787 554 799 q 524 753 524 775 q 525 736 524 746 q 529 715 526 726 q 551 733 539 725 q 574 749 564 740 q 590 769 583 758 q 597 796 597 781 q 597 806 597 801 q 594 818 597 811 m 174 178 q 153 182 163 181 q 136 183 144 183 q 42 132 81 183 q 83 126 63 126 q 174 178 138 126 m 192 132 q 213 130 203 131 q 231 129 222 129 q 278 142 263 129 q 311 190 294 156 l 289 190 q 262 188 272 190 q 242 180 251 186 q 221 163 232 174 q 192 132 210 151 m 586 483 q 526 438 542 454 q 510 400 510 422 q 515 363 510 383 q 538 385 525 375 q 562 406 550 396 q 581 430 574 417 q 589 461 589 443 q 588 472 589 467 q 586 483 588 476 m 6 160 q 42 184 22 172 q 78 214 63 196 q 82 226 82 218 q 76 246 82 235 q 65 254 72 254 q 56 252 61 254 q 47 247 51 250 q 23 233 35 240 q -1 219 11 226 q -18 192 -18 210 q -14 171 -18 181 q 0 160 -11 160 l 6 160 m 553 -282 q 522 -308 536 -296 q 494 -332 508 -319 q 474 -353 481 -346 q 468 -371 468 -361 q 485 -419 468 -385 q 506 -394 493 -406 q 529 -370 518 -382 q 549 -344 540 -358 q 557 -311 557 -331 q 553 -282 557 -299 m 482 -168 q 516 -142 503 -158 q 546 -114 529 -126 q 567 -88 561 -103 q 574 -57 574 -74 q 569 -24 574 -43 q 537 -51 553 -37 q 508 -78 521 -64 q 488 -110 496 -93 q 481 -150 481 -128 q 481 -159 481 -154 q 482 -168 481 -164 m 494 -37 q 523 -14 508 -25 q 550 10 538 -3 q 570 39 563 24 q 578 75 578 54 q 574 104 578 88 q 544 83 560 93 q 517 61 529 72 q 496 35 504 50 q 488 0 488 21 q 494 -37 488 -14 m 469 -301 q 516 -267 497 -282 q 546 -241 535 -253 q 562 -219 557 -229 q 567 -199 567 -210 q 564 -179 567 -189 q 557 -156 561 -169 q 526 -184 542 -171 q 497 -212 510 -197 q 476 -244 485 -226 q 468 -285 468 -261 q 469 -301 468 -296 m 496 92 q 544 129 521 111 q 582 176 567 147 q 521 185 540 185 q 487 174 500 185 q 449 133 474 163 q 473 115 460 122 q 496 92 486 107 m 483 782 q 444 717 468 760 q 396 624 421 675 q 346 521 371 574 q 301 424 321 468 q 268 351 281 381 q 256 318 256 321 q 300 322 278 322 q 356 319 328 322 q 413 314 385 315 q 443 315 432 314 q 459 320 454 315 q 466 335 464 325 q 469 365 468 346 q 476 461 472 404 q 483 581 481 518 q 485 614 485 597 q 485 647 485 631 q 484 714 485 681 q 483 782 483 747 m 64 92 q -24 119 6 94 q -54 185 -54 144 q -33 260 -54 218 q 51 399 7 321 q 138 563 96 478 q 222 737 181 650 q 301 913 263 824 q 390 1091 342 1004 q 492 1261 439 1178 q 527 1298 507 1285 q 574 1317 547 1311 q 663 1332 618 1328 q 754 1336 708 1336 q 886 1328 819 1336 q 953 1296 935 1321 q 974 1229 972 1271 q 969 971 974 1099 q 963 713 965 843 q 956 439 958 574 q 950 188 953 304 q 941 6 947 96 q 931 -176 935 -85 q 928 -265 928 -221 q 928 -344 929 -308 q 915 -409 926 -379 q 882 -461 903 -439 q 833 -496 861 -483 q 775 -508 806 -508 l 771 -508 q 731 -509 751 -508 q 692 -511 711 -510 q 660 -512 676 -512 q 628 -512 643 -512 q 567 -511 597 -512 q 507 -504 538 -510 q 479 -498 490 -501 q 461 -487 468 -494 q 451 -469 454 -481 q 443 -442 447 -458 q 434 -379 436 -410 q 432 -317 432 -349 q 433 -283 432 -303 q 436 -240 433 -262 q 449 -98 444 -169 q 454 46 453 -26 l 454 64 q 450 85 454 81 q 429 89 446 89 l 238 89 l 238 92 l 64 92 z "},"5":{"ha":1049,"x_min":-32,"x_max":975,"o":"m 275 1189 q 267 1196 275 1193 l 264 1196 q 247 1176 247 1196 q 248 1169 247 1174 q 251 1165 249 1165 l 253 1165 q 275 1185 268 1167 l 275 1189 m 289 256 q 317 261 307 256 q 335 282 328 267 l 331 282 q 289 256 303 282 m 526 -218 q 494 -235 506 -229 q 478 -247 483 -242 q 472 -260 474 -253 q 469 -278 471 -267 q 503 -252 489 -267 q 526 -218 517 -237 m 707 -456 q 738 -441 726 -447 q 755 -428 749 -435 q 766 -414 761 -422 q 778 -392 771 -406 q 735 -412 754 -400 q 707 -456 715 -424 m 76 -122 q 42 -133 54 -129 q 25 -144 31 -137 q 17 -160 19 -150 q 14 -186 15 -169 q 26 -175 21 -179 q 35 -165 31 -171 q 53 -147 44 -157 q 76 -122 63 -137 m 122 1268 q 57 1247 74 1263 q 39 1194 40 1231 q 81 1232 61 1214 q 122 1268 101 1250 m 396 1190 q 354 1197 365 1197 q 331 1187 339 1197 q 310 1151 324 1176 q 328 1149 321 1150 q 343 1149 336 1149 q 367 1157 358 1149 q 396 1190 376 1165 m 439 -435 q 424 -433 431 -433 q 411 -432 417 -432 q 388 -443 396 -432 q 364 -486 381 -454 q 378 -488 372 -487 q 389 -489 383 -489 q 412 -478 404 -489 q 439 -435 419 -467 m 876 606 q 859 608 867 607 q 844 608 851 608 q 810 597 822 608 q 782 556 797 586 q 804 551 794 551 q 844 569 829 551 q 876 606 858 588 m 460 -489 q 496 -493 482 -493 q 524 -481 515 -493 q 544 -437 532 -469 q 527 -435 535 -436 q 514 -435 519 -435 q 485 -446 494 -435 q 460 -489 475 -457 m 769 610 q 738 615 753 615 q 692 599 710 615 q 658 558 674 582 q 674 553 667 554 q 689 551 682 551 q 733 570 715 551 q 769 610 750 589 m 529 1196 q 510 1197 518 1197 q 494 1197 501 1197 q 447 1186 461 1197 q 422 1144 433 1175 q 450 1138 436 1138 q 490 1157 474 1138 q 529 1196 507 1176 m 22 481 q 78 522 63 506 q 94 561 94 539 q 89 594 94 578 q 67 573 79 582 q 44 555 56 564 q 26 535 33 546 q 18 507 18 524 q 22 481 18 494 m 81 -176 q 30 -222 44 -207 q 15 -249 15 -236 q 29 -281 15 -260 q 79 -232 65 -247 q 93 -206 93 -217 q 81 -176 93 -196 m 593 -489 q 623 -487 611 -489 q 642 -478 635 -485 q 653 -460 649 -471 q 663 -429 658 -449 q 649 -428 656 -429 q 636 -428 642 -428 q 613 -430 621 -428 q 598 -439 604 -432 q 585 -458 592 -446 q 569 -489 579 -469 l 593 -489 m 569 1171 q 510 1129 528 1144 q 493 1094 493 1114 q 501 1061 493 1079 q 537 1090 524 1079 q 558 1110 550 1101 q 568 1127 565 1119 q 571 1146 571 1135 q 571 1158 571 1151 q 569 1171 571 1164 m 250 -485 q 286 -492 275 -492 q 317 -478 306 -492 q 344 -431 329 -464 q 323 -424 332 -426 q 307 -421 314 -421 q 281 -435 292 -421 q 250 -485 271 -449 m 114 258 q 92 245 100 256 q 76 226 85 235 q 66 216 71 221 q 58 206 61 211 q 51 186 51 194 q 65 160 51 174 q 75 154 71 154 q 87 160 82 154 q 96 171 92 167 q 122 195 114 186 q 129 215 129 204 q 125 233 129 222 q 114 258 121 243 m 115 -250 q 79 -283 94 -265 q 50 -318 64 -300 q 46 -331 46 -325 q 49 -342 46 -337 q 57 -353 53 -347 q 67 -358 61 -358 q 75 -353 71 -358 q 83 -346 79 -349 q 100 -327 92 -336 q 118 -310 108 -318 q 133 -283 133 -296 q 115 -250 133 -268 m 499 826 q 539 860 524 847 q 563 884 554 874 q 575 903 572 894 q 578 925 578 913 q 578 940 578 932 q 576 957 578 947 q 551 932 565 943 q 525 910 538 921 q 504 885 513 899 q 496 850 496 871 q 497 839 496 844 q 499 826 497 833 m 258 -406 q 224 -383 239 -383 q 197 -404 210 -383 q 175 -432 188 -419 q 158 -462 163 -444 q 190 -476 179 -476 q 224 -451 208 -476 q 240 -429 231 -440 q 258 -406 249 -418 m 646 611 q 626 622 635 615 q 610 629 618 629 q 594 622 601 629 q 565 593 579 607 q 539 560 550 579 q 564 555 554 557 q 581 553 574 553 q 610 565 597 553 q 646 611 622 578 m 489 314 q 450 325 464 325 q 415 308 431 325 q 376 254 400 292 q 417 243 407 243 q 435 250 428 243 q 458 275 443 257 q 476 292 467 283 q 489 314 486 300 m 472 165 q 508 202 492 185 q 539 236 524 219 q 547 253 547 244 q 544 265 547 260 q 536 275 540 269 q 524 283 529 283 q 514 279 518 283 q 504 269 510 275 q 484 247 493 258 q 464 225 475 236 q 451 200 451 213 q 472 165 451 183 m 24 354 q 51 380 36 368 q 78 403 65 392 q 100 428 92 414 q 108 461 108 442 q 103 494 108 478 q 76 471 90 482 q 49 447 61 460 q 28 419 36 435 q 21 381 21 403 q 22 368 21 375 q 24 354 22 361 m 122 -440 q 152 -402 138 -419 q 181 -367 167 -385 q 186 -354 186 -361 q 181 -343 186 -347 q 172 -333 176 -339 q 160 -326 167 -326 q 144 -335 150 -326 q 126 -353 135 -344 q 110 -371 118 -361 q 95 -387 100 -382 q 90 -400 90 -393 q 99 -416 90 -407 q 122 -440 107 -425 m 500 708 q 563 761 546 743 q 581 800 581 779 q 578 819 581 808 q 572 843 575 829 q 549 818 561 829 q 524 794 536 807 q 505 767 513 782 q 497 733 497 753 q 498 721 497 726 q 500 708 499 715 m 496 938 q 563 994 544 975 q 582 1032 582 1014 q 571 1071 582 1046 q 545 1047 558 1058 q 520 1024 532 1036 q 501 997 508 1011 q 493 963 493 982 q 493 950 493 956 q 496 938 493 944 m 14 840 q 80 888 63 869 q 97 929 97 906 q 92 968 97 947 q 65 948 79 957 q 39 928 51 939 q 18 903 26 917 q 10 869 10 889 q 14 840 10 857 m 26 1074 q 56 1101 40 1089 q 85 1125 71 1113 q 108 1153 99 1138 q 117 1189 117 1168 q 111 1222 117 1206 q 84 1194 99 1207 q 56 1167 69 1181 q 34 1135 43 1153 q 25 1093 25 1118 q 26 1074 25 1081 m 93 711 q 33 669 50 685 q 17 629 17 653 q 24 590 17 615 q 83 631 68 618 q 99 667 99 644 q 93 711 99 685 m 506 -51 q 575 12 556 -8 q 594 50 594 32 q 591 68 594 58 q 582 92 588 78 q 556 66 569 78 q 530 40 542 54 q 510 10 518 26 q 503 -26 503 -6 q 503 -39 503 -33 q 506 -51 504 -44 m 582 731 q 550 699 564 713 q 522 672 536 685 q 503 635 503 654 q 515 599 503 617 q 574 651 558 635 q 589 688 589 668 q 587 706 589 696 q 582 731 585 717 m 36 243 q 71 273 56 256 q 101 306 86 290 q 119 342 119 322 q 108 375 119 357 q 45 329 63 346 q 28 290 28 313 q 36 243 28 272 m 106 1094 q 74 1070 90 1082 q 44 1045 57 1058 q 22 1015 31 1032 q 14 975 14 999 q 14 966 14 971 q 15 956 14 961 q 46 979 29 968 q 76 1002 63 990 q 99 1029 90 1014 q 108 1067 108 1044 q 108 1081 108 1074 q 106 1094 108 1088 m 21 714 q 82 760 64 742 q 100 803 100 779 q 89 847 100 821 q 38 806 63 826 q 13 751 13 785 q 21 714 13 735 m 503 65 q 534 97 519 83 q 561 125 549 111 q 578 145 572 138 q 583 163 583 153 q 564 210 583 174 q 543 186 556 197 q 520 163 531 175 q 502 137 510 151 q 494 104 494 122 q 503 65 494 88 m 589 -36 q 518 -92 539 -65 q 497 -150 497 -118 q 497 -164 497 -157 q 500 -179 497 -171 q 551 -147 535 -157 q 576 -125 568 -136 q 584 -95 583 -114 q 589 -36 585 -76 m 247 401 q 257 400 253 400 l 258 400 q 406 451 331 440 q 560 463 482 463 q 626 462 593 463 q 692 460 658 461 q 797 429 751 457 q 876 354 842 401 q 924 272 904 315 q 949 181 943 229 q 957 98 954 139 q 960 15 960 57 q 956 -64 960 -25 q 943 -143 953 -103 q 892 -289 924 -219 q 813 -421 861 -358 q 669 -512 757 -492 q 598 -528 633 -522 q 526 -533 563 -533 q 510 -533 518 -533 q 492 -532 501 -533 q 379 -527 435 -528 q 267 -525 324 -526 q 125 -490 186 -522 q 28 -381 64 -458 q -5 -310 13 -344 q -29 -235 -22 -275 q -31 -222 -31 -228 q -32 -208 -32 -215 q -20 -153 -32 -179 q 13 -106 -8 -126 q 60 -75 33 -86 q 115 -64 86 -64 q 157 -69 139 -64 q 188 -89 176 -76 q 207 -119 200 -101 q 228 -169 218 -144 q 250 -217 238 -193 q 354 -294 285 -282 q 366 -297 361 -296 q 376 -297 371 -297 q 424 -262 406 -297 q 442 -222 435 -243 q 453 -178 450 -200 q 462 -95 458 -136 q 465 -12 465 -54 q 464 31 465 10 q 460 74 463 51 q 441 135 456 107 q 410 192 426 164 q 381 216 399 211 q 343 221 363 221 l 324 221 q 226 201 272 218 q 143 144 181 185 q 82 113 111 113 q 15 176 39 113 q -14 318 -10 244 q -18 453 -17 386 q -22 588 -19 521 q -24 719 -24 654 q -25 851 -25 785 l -25 914 q -19 1046 -24 981 q -8 1169 -15 1111 q 45 1286 0 1246 q 168 1329 90 1326 l 186 1329 q 222 1328 204 1329 q 258 1328 239 1328 l 300 1328 q 513 1330 407 1328 q 728 1332 619 1332 q 797 1332 763 1332 q 865 1331 831 1332 l 888 1331 q 964 1264 964 1331 l 964 1253 q 961 1199 961 1225 q 961 1146 961 1174 q 964 1001 961 1074 q 967 857 967 929 l 967 806 q 969 763 967 785 q 974 719 971 742 q 975 703 975 711 q 975 688 975 694 q 935 569 975 613 q 817 519 896 525 q 682 515 750 515 q 615 516 649 515 q 547 517 582 517 q 495 532 510 518 q 474 585 481 546 q 464 645 468 615 q 460 707 460 675 q 459 848 460 778 q 457 989 458 918 q 457 1022 457 1006 q 454 1056 457 1039 q 451 1083 453 1074 q 446 1097 450 1093 q 433 1103 442 1101 q 407 1106 424 1104 q 344 1110 375 1108 q 283 1114 314 1111 q 277 1115 281 1114 q 271 1115 274 1115 q 242 1079 246 1115 q 233 944 235 1015 q 229 800 231 874 l 229 715 q 233 558 229 636 q 247 401 236 481 z "},"6":{"ha":961,"x_min":-39,"x_max":882,"o":"m 174 1233 q 198 1243 189 1239 q 212 1251 207 1247 q 219 1260 217 1256 q 226 1275 222 1265 q 200 1261 211 1272 q 174 1233 189 1250 m 325 244 q 297 235 307 239 q 281 227 286 232 q 272 214 275 222 q 265 190 269 206 q 325 244 297 210 m 408 1219 q 394 1221 403 1221 q 365 1213 376 1221 q 342 1194 353 1206 q 335 1188 339 1192 q 332 1178 332 1183 q 336 1171 332 1175 q 351 1164 343 1164 q 365 1169 360 1164 q 388 1191 376 1181 q 408 1219 399 1201 m 703 -421 q 655 -428 672 -425 q 626 -437 638 -431 q 608 -454 615 -443 q 592 -485 601 -465 q 627 -474 613 -479 q 653 -462 642 -469 q 676 -446 665 -456 q 703 -421 688 -436 m 785 600 q 747 604 761 604 q 709 591 722 604 q 678 543 696 578 q 699 542 685 542 q 748 555 726 542 q 785 600 769 568 m 563 -444 q 514 -439 535 -439 q 481 -451 490 -439 q 461 -496 472 -464 q 470 -497 465 -497 q 479 -497 475 -497 q 563 -444 531 -497 m 85 1076 q 145 1114 121 1092 q 169 1181 169 1136 l 169 1188 q 109 1147 133 1171 q 85 1076 85 1122 m 439 -442 q 393 -433 410 -433 q 362 -447 372 -433 q 340 -492 351 -460 q 382 -496 367 -496 q 410 -485 401 -496 q 439 -442 419 -474 m 510 -7 q 485 -29 499 -19 q 461 -49 472 -39 q 443 -72 450 -60 q 436 -100 436 -83 q 440 -125 436 -111 q 492 -94 469 -110 q 515 -43 515 -78 q 510 -7 515 -25 m 456 242 q 422 250 436 250 q 374 231 394 250 q 331 194 353 211 q 358 178 349 183 q 375 172 368 172 q 389 177 382 172 q 407 193 396 182 q 433 214 419 204 q 456 242 447 224 m 553 547 q 597 539 582 539 q 628 553 617 539 q 660 603 640 567 q 640 607 649 606 q 624 608 631 608 q 590 595 604 608 q 553 547 576 582 m 329 -421 q 300 -410 311 -414 q 281 -407 289 -407 q 257 -419 267 -407 q 228 -462 247 -432 q 256 -480 244 -474 q 276 -486 268 -486 q 301 -471 290 -486 q 329 -421 311 -456 m 519 110 q 463 74 479 88 q 447 36 447 60 q 449 20 447 29 q 453 0 450 11 q 509 35 494 22 q 524 71 524 47 q 519 110 524 85 m 413 1092 q 444 1128 429 1111 q 475 1161 460 1144 q 489 1186 489 1172 q 481 1204 489 1193 q 467 1211 474 1211 q 454 1206 460 1211 q 443 1196 449 1201 q 426 1178 435 1188 q 408 1161 418 1169 q 392 1131 392 1146 q 413 1092 392 1113 m 510 1013 q 447 964 464 979 q 431 931 431 949 q 433 913 431 922 q 439 889 436 903 q 503 933 486 918 q 519 968 519 949 q 517 987 519 976 q 510 1013 514 997 m 553 601 q 527 629 536 621 q 511 638 518 638 q 497 632 504 638 q 478 615 489 626 q 461 600 469 608 q 446 585 453 592 q 438 568 438 576 q 453 551 438 558 q 475 544 464 544 q 499 556 488 544 l 553 601 m 51 946 q 110 990 83 965 q 136 1056 136 1014 q 135 1063 136 1058 q 135 1071 135 1067 q 72 1033 94 1056 q 49 971 49 1011 q 49 959 49 965 q 51 946 50 953 m 511 890 q 454 847 479 869 q 429 786 429 825 q 430 773 429 779 q 432 760 431 767 q 459 782 444 772 q 486 803 474 792 q 507 829 499 815 q 515 863 515 843 q 511 890 515 875 m 499 1126 q 469 1103 481 1117 q 443 1078 457 1089 q 417 1033 417 1056 q 429 1000 417 1018 q 455 1017 444 1006 q 478 1038 465 1029 q 511 1088 511 1060 q 499 1126 511 1103 m 443 101 q 469 124 457 114 q 493 143 482 133 q 498 147 496 146 q 503 150 500 149 q 515 172 515 158 q 512 186 515 179 q 504 200 508 193 q 490 210 499 210 q 479 205 485 210 q 468 197 474 200 q 458 188 463 193 q 446 179 453 183 q 423 157 431 164 q 415 143 415 150 q 422 127 415 136 q 443 101 429 118 m 18 808 q 52 833 35 821 q 83 858 69 844 q 106 887 97 871 q 115 925 115 903 q 115 936 115 931 q 113 949 114 942 q 65 919 83 932 q 38 892 47 907 q 24 858 28 878 q 18 808 19 839 m 492 -143 q 422 -192 447 -162 q 396 -269 396 -221 q 450 -247 432 -257 q 476 -224 468 -237 q 485 -192 483 -211 q 492 -143 488 -174 m 125 -415 q 138 -424 132 -421 q 150 -432 144 -428 q 178 -444 164 -444 q 210 -421 194 -444 q 217 -409 213 -414 q 226 -399 222 -404 q 231 -387 231 -393 q 226 -375 231 -382 q 193 -349 207 -349 q 163 -368 182 -349 q 142 -388 151 -378 q 125 -415 132 -399 m 83 685 q 12 637 31 654 q -7 600 -7 619 q -3 580 -7 590 q 6 554 0 569 q 62 594 36 574 q 88 653 88 614 q 83 685 88 665 m 1 421 q 62 458 46 442 q 78 497 78 474 q 76 520 78 508 q 71 547 74 532 q -4 458 -4 519 q 1 421 -4 439 m 74 272 q 19 231 38 250 q 0 185 0 213 q 10 138 0 165 q 64 174 49 160 q 79 217 79 188 q 78 241 79 228 q 74 272 76 254 m 71 410 q 13 369 31 388 q -6 326 -6 351 q -2 302 -6 315 q 8 274 1 289 q 58 314 36 293 q 81 367 81 335 q 71 410 81 386 m 139 -258 q 107 -280 119 -267 q 79 -304 94 -293 q 60 -332 60 -317 q 69 -356 60 -342 q 80 -372 75 -362 q 99 -383 85 -381 q 116 -364 107 -374 q 135 -343 125 -354 q 155 -322 149 -329 q 161 -306 161 -314 q 156 -287 161 -297 q 139 -258 150 -276 m 4 676 q 38 698 21 688 q 67 721 54 708 q 88 749 79 733 q 96 785 96 764 q 94 800 96 792 q 90 818 93 808 q 17 767 36 789 q -1 718 -1 746 q 0 699 -1 708 q 4 676 1 689 m 508 765 q 439 714 460 739 q 418 651 418 689 q 418 634 418 643 q 421 615 418 625 q 451 642 435 629 q 481 667 468 654 q 503 697 494 681 q 513 735 513 714 q 508 765 513 749 m 6 -19 q 30 1 18 -8 q 53 19 42 10 q 81 48 72 36 q 89 75 89 60 q 85 98 89 86 q 74 129 81 110 q 38 106 53 115 q 15 88 24 97 q 3 69 7 79 q -1 43 -1 58 q 1 16 -1 32 q 6 -19 3 0 m 90 -1 q 21 -57 42 -37 q 0 -100 0 -76 q 17 -153 0 -119 q 38 -133 28 -143 q 60 -115 49 -122 q 99 -49 99 -92 q 90 -1 99 -29 m 44 -281 q 103 -235 85 -249 q 121 -207 121 -222 q 114 -181 121 -196 q 94 -137 107 -165 q 36 -185 53 -168 q 19 -218 19 -203 q 26 -244 19 -229 q 44 -281 33 -258 m 407 50 q 383 120 404 97 q 315 150 361 143 q 290 154 303 153 q 265 156 278 156 q 228 144 242 156 q 215 108 215 132 l 215 103 q 223 -6 219 49 q 233 -115 226 -61 q 256 -196 240 -157 q 301 -265 271 -235 q 332 -283 319 -283 q 358 -253 346 -283 q 393 -136 379 -194 q 407 -15 407 -78 l 407 50 m 214 346 q 324 380 268 376 q 433 386 379 383 q 465 388 449 388 q 497 388 482 388 q 585 385 542 388 q 674 378 629 382 q 749 356 714 374 q 810 308 783 338 q 853 241 836 279 q 876 160 871 203 q 881 113 879 136 q 882 65 882 89 q 876 -36 882 14 q 860 -136 871 -86 q 838 -237 849 -187 q 806 -336 828 -287 q 741 -441 781 -396 q 639 -510 701 -486 q 626 -515 632 -512 q 614 -519 621 -518 q 513 -530 563 -525 q 411 -535 463 -535 q 280 -522 344 -535 q 151 -475 215 -510 q 11 -315 50 -421 q -24 -178 -12 -247 q -36 -37 -36 -110 l -36 -6 q -35 40 -35 18 q -35 85 -35 61 q -37 227 -35 156 q -39 369 -39 299 q -39 415 -39 393 q -37 460 -39 436 q -36 483 -36 471 q -36 506 -36 494 q -37 574 -36 533 q -39 646 -39 615 q -38 663 -39 656 q -37 676 -37 671 q -3 908 -26 794 q 61 1131 21 1021 q 189 1301 103 1243 q 394 1358 275 1358 q 619 1354 507 1358 q 667 1351 643 1353 q 714 1342 690 1349 q 798 1294 767 1328 q 843 1207 829 1260 q 867 1073 861 1140 q 874 936 874 1006 l 874 889 q 869 785 872 836 q 864 682 867 733 q 812 552 860 599 q 681 503 764 506 q 644 502 663 503 q 608 501 626 501 q 544 503 576 501 q 478 510 511 504 q 405 543 431 517 q 379 617 379 569 l 379 626 q 381 667 379 647 q 386 707 383 686 q 393 786 390 747 q 396 865 396 825 q 379 1036 396 950 q 370 1072 376 1056 q 357 1106 364 1089 q 318 1132 350 1132 q 298 1122 304 1131 q 289 1103 292 1114 q 267 1019 278 1061 q 247 933 256 976 q 235 848 242 904 q 224 729 229 792 q 214 609 218 667 q 207 522 210 551 q 205 498 206 510 q 204 474 204 486 q 207 413 204 443 q 214 346 210 382 z "},"7":{"ha":1053,"x_min":-33,"x_max":971,"o":"m 211 1149 q 251 1170 235 1157 q 279 1211 268 1183 l 253 1211 q 221 1204 233 1211 q 208 1172 208 1197 q 208 1161 208 1167 q 211 1149 208 1156 m 7 1196 q 47 1220 32 1211 q 69 1238 61 1229 q 80 1258 76 1247 q 88 1286 83 1268 q 58 1274 69 1279 q 38 1258 46 1268 q 22 1234 29 1249 q 7 1196 15 1219 m 107 -472 q 129 -474 119 -474 q 146 -475 139 -475 q 181 -465 169 -475 q 207 -425 192 -454 q 185 -421 194 -421 q 144 -436 161 -421 q 107 -472 126 -451 m 410 804 q 448 820 435 814 q 467 835 461 826 q 476 856 474 843 q 478 890 478 868 q 431 859 450 878 q 410 804 413 840 m 226 -476 q 258 -482 243 -482 q 303 -466 286 -482 q 338 -426 321 -450 q 324 -424 331 -425 q 313 -424 318 -424 q 265 -437 285 -424 q 226 -476 244 -451 m 143 -154 q 102 -172 118 -164 q 78 -188 86 -179 q 67 -211 69 -197 q 63 -247 64 -225 q 89 -229 75 -237 q 115 -212 103 -221 q 135 -190 126 -203 q 143 -157 143 -178 l 143 -154 m 418 1147 q 455 1148 440 1147 q 478 1149 469 1149 q 507 1160 493 1149 q 544 1200 521 1172 q 527 1204 536 1203 q 501 1206 518 1206 q 456 1186 478 1206 q 418 1147 433 1167 m 411 1203 q 390 1205 397 1204 q 378 1206 383 1206 l 371 1206 q 322 1183 340 1203 q 282 1143 303 1163 q 305 1142 293 1142 q 336 1142 317 1142 q 356 1146 347 1143 q 372 1156 364 1149 q 388 1174 379 1163 q 411 1203 397 1185 m 18 -442 q 28 -458 19 -451 q 47 -464 36 -464 q 58 -461 56 -464 q 79 -444 69 -454 q 100 -426 89 -435 q 110 -411 110 -419 q 106 -403 110 -407 q 97 -392 101 -397 q 85 -387 92 -387 q 74 -392 79 -387 q 49 -410 61 -401 q 25 -429 36 -419 q 21 -435 22 -432 q 18 -442 19 -439 m 364 669 q 395 686 381 678 q 422 705 410 694 q 440 729 433 715 q 447 764 447 743 l 447 774 q 388 738 408 763 q 364 669 368 714 m 106 -118 q 145 -103 131 -110 q 167 -87 160 -97 q 178 -62 175 -78 q 183 -22 181 -47 q 128 -56 146 -31 q 106 -118 111 -81 m 488 1047 q 543 1081 528 1065 q 558 1126 558 1097 q 558 1138 558 1132 q 557 1150 558 1143 q 506 1110 521 1138 q 488 1047 492 1083 m 150 8 q 189 28 174 19 q 213 45 204 36 q 224 65 221 54 q 228 93 228 76 q 227 102 228 97 q 226 114 226 107 q 173 75 193 99 q 150 8 153 51 m 528 1039 q 472 999 492 1022 q 453 938 453 975 l 453 926 q 510 968 497 938 q 528 1039 524 999 m 240 281 q 304 318 288 303 q 321 363 321 333 q 321 373 321 368 q 319 385 321 378 q 265 352 290 369 q 239 297 239 335 q 240 281 239 286 m 199 147 q 238 165 222 157 q 261 183 253 174 q 273 203 269 192 q 276 229 276 214 q 276 239 276 235 q 275 250 275 243 q 199 147 200 232 m 3 1096 q 42 1120 26 1110 q 66 1138 57 1131 q 78 1153 75 1146 q 82 1169 82 1160 q 81 1185 82 1176 q 76 1207 79 1194 q 52 1189 65 1197 q 28 1170 39 1181 q 9 1147 17 1160 q 1 1115 1 1133 q 1 1106 1 1111 q 3 1096 1 1101 m 411 650 q 349 613 375 635 q 324 549 324 590 l 324 543 q 386 577 361 556 q 411 643 411 599 l 411 650 m 82 978 q 24 944 42 958 q 7 908 7 929 q 9 894 7 901 q 14 875 11 886 q 70 915 54 901 q 86 950 86 929 q 82 978 86 961 m 369 519 q 304 480 329 504 q 279 407 279 456 q 313 424 296 415 q 342 445 329 433 q 362 472 354 457 q 369 511 369 488 l 369 519 m 11 -387 q 72 -342 50 -368 q 94 -271 94 -315 q 35 -306 61 -286 q 10 -365 10 -325 q 10 -376 10 -371 q 11 -387 10 -381 m 18 758 q 42 773 33 763 q 64 790 51 783 q 96 839 96 810 q 86 875 96 856 q 27 836 43 850 q 11 800 11 822 q 13 782 11 792 q 18 758 15 772 m 83 1106 q 25 1069 42 1083 q 8 1031 8 1054 q 17 986 8 1013 q 67 1020 44 1001 q 90 1071 90 1039 q 83 1106 90 1085 m 92 758 q 31 716 47 733 q 14 671 14 699 q 18 633 14 656 q 83 690 65 672 q 100 725 100 708 q 97 740 100 732 q 92 758 94 747 m 92 646 q 59 615 74 629 q 29 585 44 600 q 19 567 19 576 q 28 546 19 556 q 53 532 39 532 q 67 538 61 532 q 115 589 96 558 q 118 597 118 594 q 110 615 118 607 q 100 635 103 624 q 92 646 100 638 m 464 1113 q 421 1115 442 1114 q 379 1115 400 1115 q 326 1115 356 1115 q 239 1113 296 1114 q 226 1102 231 1113 q 219 1077 222 1092 q 216 1048 217 1063 q 215 1024 215 1033 l 215 976 q 216 938 215 957 q 219 900 217 919 q 226 833 225 867 q 228 765 228 799 q 227 703 228 733 q 225 642 226 674 q 208 583 225 610 q 165 538 190 557 q 110 508 140 518 q 54 497 81 497 l 46 497 q 0 524 17 500 q -28 607 -28 561 q -28 618 -28 613 q -26 629 -28 624 q -24 661 -25 644 q -24 693 -24 678 q -25 748 -24 721 q -28 803 -26 775 q -31 915 -29 860 q -33 1026 -33 969 q -33 1099 -33 1064 q -32 1161 -32 1135 l -32 1185 q 22 1296 -24 1256 q 138 1340 67 1336 q 201 1342 169 1342 q 265 1343 233 1343 l 357 1343 q 612 1336 485 1340 q 868 1329 739 1332 l 896 1329 q 951 1308 932 1326 q 971 1260 971 1290 q 967 1232 971 1246 q 947 1161 958 1196 q 925 1092 936 1126 q 810 720 864 915 q 689 326 757 525 q 584 22 635 174 q 481 -285 533 -131 q 446 -364 465 -325 q 407 -442 426 -403 q 353 -501 386 -482 q 279 -519 321 -519 l 251 -519 q 148 -516 200 -519 q 44 -501 96 -512 q -31 -417 -25 -489 q -32 -405 -32 -410 q -32 -394 -32 -400 q -24 -336 -32 -364 q -4 -281 -17 -308 q 100 -19 54 -151 q 186 247 146 113 q 296 591 238 421 q 410 935 354 761 q 440 1031 426 983 q 464 1113 454 1078 z "},"8":{"ha":1026,"x_min":-46,"x_max":944,"o":"m 300 244 q 321 261 318 250 l 321 263 q 313 271 321 271 l 311 271 q 294 251 300 269 q 297 249 294 250 q 300 244 299 247 m 217 1219 q 183 1192 197 1206 q 158 1154 169 1178 q 199 1178 183 1165 q 217 1219 215 1192 m 688 -419 q 640 -435 654 -419 q 617 -468 626 -450 q 652 -451 636 -462 q 688 -419 668 -439 m 329 1124 q 376 1144 360 1124 q 418 1183 393 1164 q 356 1169 378 1183 q 324 1124 335 1156 l 329 1124 m 190 340 q 185 343 188 342 q 181 347 183 344 q 142 317 161 332 q 104 285 124 301 q 140 267 132 267 q 163 288 147 267 q 176 313 169 300 q 190 340 183 326 m 28 67 q 76 94 63 85 q 90 126 90 103 q 85 167 90 143 q 58 151 68 161 q 43 127 49 140 q 35 99 38 114 q 28 67 32 83 m 453 -436 q 401 -425 424 -425 q 365 -435 382 -425 q 338 -471 349 -446 q 370 -481 357 -478 q 393 -485 383 -485 q 420 -474 408 -485 q 453 -436 432 -462 m 306 153 q 324 160 311 153 q 352 176 338 167 q 378 194 367 186 q 390 207 389 203 l 390 210 q 385 222 390 217 q 372 230 378 226 q 360 233 367 233 q 344 228 351 233 q 319 210 332 218 q 294 192 307 201 q 285 185 290 189 q 281 175 281 181 q 282 171 281 172 q 292 160 285 164 q 306 153 300 156 m 349 129 q 382 103 367 103 q 404 113 393 103 q 431 133 417 124 q 458 151 444 142 q 468 165 468 160 q 464 174 468 169 q 454 182 460 178 q 439 188 447 188 q 419 179 429 188 q 385 155 401 167 q 349 129 368 143 m 556 39 q 460 -11 493 35 q 477 -29 471 -17 q 493 -42 483 -42 l 496 -42 q 524 -26 511 -37 q 550 -4 538 -15 q 561 17 561 3 q 556 39 561 28 m 325 -417 q 292 -400 306 -406 q 269 -394 279 -394 q 245 -406 256 -394 q 218 -446 235 -418 q 250 -460 238 -456 q 272 -465 263 -465 q 295 -454 285 -465 q 325 -417 306 -443 m 75 1004 q 113 1033 94 1019 q 147 1062 132 1047 q 170 1095 161 1076 q 179 1140 179 1114 q 110 1090 135 1122 q 75 1004 86 1057 m 474 -174 q 535 -127 518 -157 q 556 -56 553 -97 q 511 -79 526 -69 q 488 -100 496 -89 q 477 -128 479 -111 q 474 -174 475 -144 m 467 -483 q 515 -499 494 -499 q 578 -433 561 -499 q 550 -429 563 -429 q 502 -444 522 -429 q 467 -483 482 -460 m 574 978 q 518 940 533 954 q 503 903 503 926 q 503 867 503 879 q 507 843 504 854 q 542 865 528 856 q 564 883 556 874 q 575 904 572 892 q 578 936 578 917 q 574 978 578 950 m 122 -403 q 148 -418 138 -412 q 167 -424 158 -424 q 191 -411 178 -424 q 229 -369 204 -399 q 208 -347 215 -354 q 194 -339 201 -339 q 180 -345 188 -339 q 158 -362 172 -351 q 138 -380 149 -371 q 122 -403 128 -389 m 71 -76 q 13 -114 29 -100 q -3 -151 -3 -128 q 3 -192 -3 -169 q 61 -153 46 -167 q 76 -118 76 -139 q 71 -76 76 -99 m 136 543 q 84 515 100 528 q 68 486 68 503 q 86 440 68 468 q 133 477 119 465 q 146 504 146 489 q 143 520 146 511 q 136 543 140 529 m 121 646 q 63 611 81 625 q 46 582 46 597 q 61 544 46 568 q 115 583 100 571 q 129 611 129 596 q 126 626 129 618 q 121 646 124 635 m 164 449 q 140 436 149 446 q 121 417 131 426 q 96 386 96 396 q 102 371 96 379 q 121 347 108 363 q 139 361 131 354 q 157 375 147 368 q 178 393 172 386 q 185 407 185 400 q 180 424 185 414 q 164 449 175 433 m 444 99 q 410 73 426 85 q 379 49 394 61 q 367 22 367 36 q 376 -3 367 10 q 388 -10 383 -10 q 401 -3 394 -10 q 414 7 407 4 q 426 14 421 10 q 436 22 431 18 q 456 40 450 33 q 463 54 463 46 q 458 71 463 61 q 444 99 453 81 m 83 -182 q 55 -202 68 -190 q 28 -226 42 -214 q 11 -244 17 -237 q 6 -257 6 -250 q 24 -296 6 -268 q 54 -276 42 -289 q 81 -251 67 -262 q 97 -235 92 -240 q 103 -222 103 -229 q 98 -206 103 -215 q 83 -182 93 -197 m 110 760 q 49 717 65 732 q 32 682 32 701 q 35 665 32 675 q 40 643 38 656 q 67 657 56 647 q 90 676 78 667 q 113 696 106 689 q 119 714 119 703 q 117 732 119 721 q 110 760 114 743 m 417 1128 q 438 1117 428 1121 q 458 1107 447 1113 q 471 1101 467 1101 q 478 1104 472 1101 q 508 1131 493 1118 q 535 1158 522 1143 q 540 1172 540 1164 q 521 1192 540 1188 q 507 1193 517 1193 q 478 1183 489 1193 q 447 1159 463 1171 q 417 1128 432 1147 m -6 -75 q 63 -28 40 -49 q 86 19 86 -8 q 85 33 86 26 q 81 49 83 40 q 32 21 49 32 q 7 -1 15 10 q -3 -29 -1 -12 q -6 -75 -4 -46 m 503 981 q 558 1020 542 1003 q 574 1056 574 1038 q 569 1092 574 1079 q 556 1118 564 1104 q 526 1098 538 1107 q 506 1080 514 1089 q 495 1060 499 1071 q 492 1033 492 1049 q 503 981 492 1018 m 131 1007 q 63 960 83 979 q 43 913 43 940 q 45 893 43 903 q 50 871 47 883 q 108 918 82 892 q 133 985 133 944 q 133 995 133 990 q 131 1007 132 1000 m 507 553 q 567 592 550 576 q 583 636 583 608 q 581 658 583 646 q 576 685 579 669 q 516 646 532 665 q 500 600 500 626 q 502 578 500 589 q 507 553 504 567 m 506 407 q 561 448 544 426 q 578 506 578 469 q 574 549 578 524 q 522 503 542 529 q 501 440 501 478 q 506 407 501 425 m 508 693 q 569 732 553 718 q 585 765 585 746 q 582 791 585 776 q 574 833 579 806 q 523 795 543 817 q 503 740 503 774 q 504 713 503 722 q 508 693 506 703 m 165 -307 q 142 -275 150 -285 q 126 -265 133 -265 q 112 -272 119 -265 q 89 -292 104 -279 q 72 -307 81 -299 q 57 -322 64 -315 q 49 -339 49 -331 q 54 -351 49 -346 q 65 -364 60 -357 q 83 -375 74 -375 q 101 -365 92 -375 q 132 -336 117 -350 q 165 -307 147 -322 m 110 868 q 48 828 65 844 q 29 793 31 811 q 31 774 29 785 q 35 753 32 764 q 75 778 60 768 q 100 797 90 789 q 113 813 110 806 q 117 831 117 821 q 115 842 117 832 q 110 868 113 851 m 244 140 q 223 49 231 94 q 210 -42 215 4 q 208 -58 208 -50 q 208 -75 208 -67 q 233 -176 208 -132 q 306 -256 257 -219 q 351 -278 333 -278 q 396 -243 371 -278 q 433 -162 424 -206 q 444 -72 443 -119 q 424 -70 433 -71 q 404 -67 414 -69 q 352 -38 372 -60 q 332 11 332 -17 q 335 32 332 25 q 340 60 340 47 q 328 92 340 81 q 296 114 315 103 q 274 127 285 119 q 244 140 264 135 m 457 403 q 468 442 467 424 q 469 479 469 460 l 469 771 q 466 892 468 832 q 460 1013 464 951 q 438 1073 456 1057 q 379 1089 421 1089 l 372 1089 l 339 1085 q 279 1036 294 1083 q 249 929 260 983 q 238 821 238 875 l 238 804 q 242 734 239 767 q 250 678 246 701 q 260 626 256 650 q 280 551 264 586 q 322 486 296 515 q 382 435 347 457 q 457 403 417 414 m 944 571 q 927 430 944 499 q 894 290 910 361 q 890 274 892 282 q 886 257 889 265 q 876 206 876 232 q 894 135 876 171 q 926 -8 926 67 q 919 -85 926 -47 q 896 -161 911 -124 q 831 -297 868 -232 q 740 -419 793 -362 q 727 -434 733 -426 q 714 -449 721 -442 q 514 -535 628 -535 q 463 -531 489 -535 q 394 -519 428 -524 q 324 -512 360 -515 q 206 -485 261 -507 q 97 -435 150 -464 q -8 -324 22 -392 q -44 -171 -37 -256 q -46 -151 -46 -161 q -46 -132 -46 -142 q -36 -21 -46 -75 q -10 86 -26 33 q 26 190 6 139 q 67 293 46 242 q 72 310 69 303 q 75 326 75 318 q 69 351 75 339 q 34 460 50 406 q 8 563 18 514 q -8 653 -3 611 q -14 728 -14 696 q -10 821 -14 775 q 1 914 -7 867 q 63 1088 17 1008 q 175 1235 108 1167 q 231 1276 200 1260 q 296 1301 261 1292 q 424 1326 360 1319 q 554 1332 488 1332 q 603 1331 579 1332 q 653 1329 628 1331 q 719 1326 686 1328 q 786 1315 753 1324 q 881 1243 851 1301 q 915 1154 901 1199 q 933 1061 929 1110 q 941 908 940 986 q 944 728 942 829 l 944 571 z "},"9":{"ha":1003,"x_min":-56,"x_max":922,"o":"m 296 1153 q 326 1167 311 1160 q 351 1196 342 1175 q 317 1181 332 1189 q 296 1153 303 1172 m 185 1249 q 147 1227 165 1239 q 121 1193 129 1215 q 159 1214 140 1203 q 185 1249 178 1225 m 89 -169 q 38 -185 49 -174 q 22 -236 26 -196 q 58 -203 40 -217 q 89 -169 75 -190 m 299 99 q 342 94 325 94 q 374 106 364 94 q 399 147 383 117 q 386 149 392 149 q 375 150 381 150 q 299 99 331 150 m 540 1058 q 491 1030 504 1039 q 478 1006 478 1021 q 481 990 478 999 q 486 971 483 982 q 531 998 521 989 q 542 1032 542 1007 q 541 1044 542 1038 q 540 1058 540 1050 m 394 357 q 448 397 435 368 q 471 463 461 426 q 414 423 433 447 q 394 361 394 399 l 394 357 m 482 857 q 529 886 517 876 q 542 911 542 896 q 535 949 542 921 q 490 919 501 929 q 479 890 479 910 q 480 876 479 883 q 482 857 481 868 m 456 615 q 506 643 494 632 q 518 683 518 654 q 518 699 518 690 q 517 717 518 707 q 454 633 454 693 q 456 615 454 622 m 500 589 q 466 570 479 578 q 445 556 453 563 q 435 540 438 549 q 433 517 433 531 q 434 505 433 511 q 435 490 435 499 q 483 521 465 501 q 501 575 501 540 q 501 581 501 578 q 500 589 500 585 m 536 839 q 486 810 500 819 q 472 782 472 800 q 474 765 472 775 q 478 743 475 756 q 522 771 506 754 q 539 815 539 788 q 538 826 539 821 q 536 839 538 832 m 361 1144 q 404 1132 386 1132 q 478 1193 442 1132 q 453 1197 463 1197 q 405 1178 425 1197 q 361 1144 385 1158 m 161 107 q 208 100 189 100 q 248 110 231 100 q 278 144 265 119 q 251 158 263 153 q 229 163 240 163 q 199 150 214 163 q 161 107 185 138 m 656 -424 q 635 -422 649 -422 q 573 -442 597 -422 q 526 -487 549 -461 q 558 -493 542 -493 q 613 -472 590 -493 q 656 -424 635 -450 m 469 1064 q 527 1103 511 1089 q 543 1133 543 1118 q 532 1169 543 1144 q 501 1152 514 1164 q 474 1129 488 1140 q 456 1114 463 1119 q 450 1101 450 1108 q 455 1087 450 1094 q 469 1064 460 1079 m 381 -494 q 421 -501 406 -501 q 474 -485 453 -501 q 514 -439 496 -468 q 481 -432 499 -432 q 452 -438 465 -432 q 427 -454 439 -444 q 404 -474 415 -464 q 381 -494 393 -485 m 528 60 q 478 8 500 32 q 457 -51 457 -17 q 458 -64 457 -58 q 460 -76 458 -69 q 494 -54 481 -64 q 517 -35 508 -44 q 528 -16 525 -26 q 532 10 532 -6 q 528 60 532 28 m 179 186 q 142 224 154 224 q 126 217 135 224 q 103 199 118 211 q 101 197 101 197 q 99 196 100 197 q 81 171 81 183 q 92 146 81 161 q 115 131 103 131 q 140 147 126 131 q 161 165 150 158 q 179 186 172 172 m 463 49 q 492 78 478 64 q 519 104 506 92 q 532 129 532 117 q 529 139 532 133 q 515 151 525 150 q 496 154 506 151 q 492 155 493 154 q 489 156 492 156 q 461 142 475 156 q 438 122 450 131 q 421 96 426 113 q 444 76 436 90 q 463 49 451 63 m 93 331 q 60 301 75 314 q 32 274 44 288 q 25 260 25 264 q 31 244 25 251 q 40 229 38 236 q 47 219 43 224 q 56 214 50 214 q 61 215 60 214 q 117 261 97 233 q 119 271 119 264 q 115 285 119 278 q 107 301 110 293 q 101 313 104 307 q 93 331 99 319 m 63 -385 q 84 -412 76 -403 q 99 -421 92 -421 q 113 -414 106 -421 q 135 -394 121 -407 q 156 -374 146 -383 q 178 -353 167 -364 q 140 -319 153 -319 q 106 -342 129 -319 q 83 -362 94 -353 q 63 -385 71 -371 m 390 -432 q 336 -426 363 -426 q 282 -440 301 -426 q 246 -487 263 -454 q 286 -497 267 -497 q 341 -477 317 -497 q 390 -432 365 -457 m 6 307 q 63 351 47 336 q 79 383 79 367 q 67 429 79 397 q 10 394 26 407 q -7 363 -7 382 q 6 307 -7 344 m 86 -232 q 72 -239 79 -235 q 56 -253 64 -246 q 40 -268 47 -261 q 22 -288 28 -281 q 15 -304 15 -296 q 38 -347 15 -315 q 62 -334 53 -344 q 81 -315 71 -324 q 103 -294 96 -301 q 111 -278 111 -286 q 105 -260 111 -271 q 86 -232 99 -250 m 265 -408 q 235 -387 246 -393 q 214 -381 224 -381 q 171 -408 200 -381 q 160 -420 165 -415 q 147 -432 154 -425 q 135 -453 135 -444 q 158 -471 135 -460 q 178 -475 168 -475 q 203 -462 192 -475 q 234 -435 218 -447 q 265 -408 250 -422 m 128 1139 q 60 1094 83 1119 q 38 1017 38 1069 l 38 997 q 108 1051 89 1014 q 128 1139 126 1089 m 75 556 q 43 543 56 553 q 18 526 31 533 q -13 503 -4 513 q -22 481 -22 493 q -10 432 -22 465 q 34 455 17 446 q 60 473 51 464 q 73 492 69 482 q 76 519 76 503 q 76 535 76 526 q 75 556 76 544 m 97 981 q 0 875 0 946 q 1 858 0 867 q 6 839 3 849 q 74 882 50 854 q 99 954 99 910 q 99 967 99 961 q 97 981 99 974 m 418 -254 q 467 -225 447 -239 q 498 -197 486 -211 q 515 -165 510 -182 q 519 -128 519 -149 q 519 -109 519 -118 q 517 -89 518 -100 q 474 -117 490 -100 q 447 -157 457 -135 q 430 -203 436 -179 q 418 -254 424 -228 m -10 692 q 34 718 17 708 q 62 736 51 728 q 76 753 72 744 q 81 775 81 763 q 78 799 81 786 q 74 829 76 811 q 30 806 47 815 q 3 788 13 796 q -10 770 -7 779 q -14 747 -14 761 q -10 692 -14 729 m -11 554 q 31 579 14 569 q 59 597 49 589 q 74 615 69 606 q 78 638 78 624 q 76 661 78 649 q 71 693 74 674 q 26 669 43 679 q -1 651 10 660 q -15 634 -11 643 q -18 613 -18 625 q -16 588 -18 601 q -11 554 -14 574 m 204 635 q 208 544 208 590 q 208 497 208 521 q 206 450 207 474 l 206 440 q 218 371 206 404 q 251 308 231 338 q 286 283 269 283 q 319 304 300 283 q 351 364 340 329 q 420 635 399 499 q 442 913 442 771 q 442 944 442 928 q 440 976 442 961 q 434 1040 439 1015 q 415 1077 429 1064 q 376 1096 401 1090 q 307 1104 350 1101 q 294 1106 300 1106 q 283 1106 289 1106 q 259 1096 264 1106 q 247 1058 254 1086 q 217 849 224 954 q 204 635 211 744 m 500 1339 q 604 1334 553 1336 q 708 1329 656 1332 q 765 1319 738 1328 q 821 1297 793 1311 q 919 1139 914 1249 q 922 1088 921 1113 q 922 1036 922 1063 q 919 866 922 951 q 913 696 915 781 q 906 467 910 582 q 903 239 903 353 q 903 158 903 199 q 906 78 903 118 q 906 52 906 65 q 907 26 907 39 q 890 -153 907 -65 q 833 -328 874 -242 q 719 -471 789 -419 q 546 -529 650 -522 q 466 -534 506 -532 q 386 -536 426 -536 q 292 -533 339 -536 q 199 -518 246 -529 q 59 -443 111 -499 q -22 -308 7 -387 q -28 -288 -26 -297 q -29 -268 -29 -279 q -24 -227 -29 -247 q -10 -187 -18 -207 q 47 -137 8 -147 q 108 -128 75 -128 q 158 -133 136 -128 q 192 -151 179 -137 q 215 -183 206 -164 q 319 -281 250 -254 q 340 -285 332 -285 q 369 -262 357 -285 q 413 -124 403 -194 q 422 22 422 -53 l 422 26 q 381 60 422 60 q 349 58 365 58 q 317 58 333 58 q 248 60 282 58 q 179 65 214 63 q 101 93 133 71 q 43 153 69 115 q -33 308 -10 228 q -56 475 -56 388 q -56 497 -56 486 q -54 519 -56 508 q -53 552 -53 536 q -53 585 -53 568 l -53 650 q -37 867 -53 760 q 10 1081 -22 975 q 130 1261 46 1193 q 332 1333 214 1329 q 360 1335 346 1335 q 388 1335 374 1335 q 444 1334 415 1335 q 500 1333 472 1333 l 500 1339 z "}," ":{"ha":694,"x_min":0,"x_max":0,"o":""},"!":{"ha":586,"x_min":-31,"x_max":506,"o":"m 408 153 q 378 133 392 146 q 353 97 364 121 q 390 121 376 108 q 408 153 404 133 m -31 340 q -28 451 -31 396 q -21 563 -25 507 q -13 685 -15 625 q -11 808 -11 746 q -12 922 -11 865 q -12 1036 -12 978 l -12 1101 q -12 1149 -12 1125 q -11 1197 -12 1174 q 22 1281 -8 1247 q 100 1326 51 1315 q 206 1339 153 1339 q 313 1342 260 1339 q 343 1344 328 1343 q 374 1344 358 1344 q 400 1344 388 1344 q 425 1342 413 1343 q 485 1319 467 1338 q 503 1263 503 1301 l 503 1253 q 497 1101 499 1176 q 496 950 496 1025 q 497 906 497 928 q 497 861 497 883 q 490 639 497 749 q 482 417 483 529 q 481 362 482 389 q 481 307 481 335 q 481 280 481 293 q 482 253 481 267 l 482 239 q 468 165 482 199 q 429 105 454 131 q 369 65 404 79 q 293 50 335 50 q 119 54 207 50 q 94 56 107 54 q 69 60 82 57 q -25 175 -18 81 q -29 250 -28 213 q -31 324 -31 288 l -31 340 m 39 1207 q 56 1224 46 1217 q 77 1238 67 1231 q 94 1257 88 1246 q 101 1285 101 1268 l 101 1290 q 56 1263 74 1279 q 39 1218 39 1247 l 39 1207 m 233 93 q 255 89 246 90 q 271 88 264 88 q 300 100 290 88 q 325 146 310 113 q 313 149 318 149 q 304 149 308 149 q 263 130 276 149 q 233 93 249 111 m 121 160 q 92 182 106 182 q 65 165 78 182 q 55 156 60 160 q 46 146 50 151 q 38 137 42 142 q 33 126 33 132 q 40 113 33 119 q 61 100 53 100 q 78 110 69 100 q 101 133 89 122 q 121 160 114 144 m 115 93 q 135 91 126 92 q 150 90 143 90 q 192 103 179 90 q 218 150 206 117 q 196 154 206 154 q 152 135 169 154 q 115 93 135 117 m 78 547 q 30 510 50 529 q 10 461 10 492 q 15 429 10 446 q 63 462 43 444 q 83 511 83 479 q 78 547 83 529 m 17 171 q 60 212 40 192 q 81 261 81 232 q 74 296 81 281 q 28 260 46 279 q 10 210 10 240 q 17 171 10 194 m 74 417 q 22 381 38 397 q 7 340 7 364 q 14 299 7 326 q 60 336 38 318 q 82 383 82 354 q 74 417 82 397 m 28 1083 q 83 1118 67 1104 q 100 1156 100 1132 q 92 1199 100 1171 q 47 1160 68 1179 q 25 1107 25 1140 q 25 1096 25 1101 q 28 1083 25 1090 m 88 689 q 38 648 58 669 q 17 594 17 626 q 22 564 17 579 q 76 595 63 582 q 90 640 90 608 q 90 663 90 651 q 88 689 89 674 m 28 958 q 83 994 68 981 q 97 1032 97 1008 q 93 1071 97 1046 q 38 1038 53 1051 q 24 997 24 1024 q 28 958 24 981 m 29 700 q 82 736 65 718 q 99 778 99 754 q 96 798 99 788 q 89 821 93 808 q 42 783 61 804 q 24 732 24 763 q 29 700 24 715 m 93 949 q 41 913 57 929 q 25 874 25 896 q 28 853 25 864 q 35 831 31 843 q 81 865 61 846 q 100 914 100 885 q 93 949 100 928 m 88 -74 q 39 -92 51 -83 q 26 -122 26 -100 q 27 -131 26 -126 q 28 -140 28 -135 q 63 -112 44 -124 q 88 -74 81 -100 m 329 -439 q 303 -435 314 -435 q 263 -450 278 -435 q 235 -481 249 -465 q 231 -487 231 -485 q 235 -494 231 -492 q 246 -497 240 -496 q 251 -498 249 -497 q 257 -499 254 -499 q 299 -479 285 -499 q 329 -439 313 -460 m 436 -435 q 423 -433 429 -433 q 410 -432 417 -432 q 374 -444 386 -432 q 344 -493 363 -457 q 377 -490 364 -493 q 400 -481 390 -487 q 418 -464 410 -475 q 436 -435 426 -453 m 218 -435 q 205 -433 211 -433 q 192 -433 199 -433 q 141 -447 158 -433 q 108 -493 124 -460 q 136 -497 122 -497 q 182 -480 163 -497 q 218 -435 201 -462 m 85 -265 q 34 -303 58 -285 q 10 -358 10 -322 q 14 -387 10 -371 q 38 -367 25 -376 q 63 -347 51 -357 q 81 -323 74 -336 q 89 -292 89 -310 q 85 -265 89 -281 m 14 -265 q 72 -226 54 -240 q 89 -192 89 -211 q 78 -149 89 -178 q 33 -188 54 -168 q 11 -243 11 -208 q 12 -253 11 -249 q 14 -265 13 -258 m 90 -372 q 55 -403 69 -387 q 25 -436 40 -419 q 18 -450 18 -443 q 24 -467 18 -456 q 31 -477 26 -472 q 42 -482 36 -482 l 44 -482 q 82 -457 65 -472 q 110 -424 99 -442 q 113 -412 113 -419 q 105 -393 113 -403 q 90 -372 97 -383 m 97 -532 q 10 -508 38 -532 q -24 -424 -18 -483 q -26 -381 -26 -401 q -26 -337 -26 -360 q -24 -243 -26 -290 q -21 -149 -22 -196 q 15 -59 -19 -89 q 107 -26 50 -29 q 204 -22 156 -24 q 301 -19 253 -19 q 415 -24 358 -19 q 467 -42 450 -26 q 486 -93 483 -57 q 489 -156 489 -125 q 490 -217 489 -186 q 494 -278 492 -249 q 503 -339 496 -307 q 505 -349 504 -344 q 506 -361 506 -354 q 493 -419 506 -389 q 460 -474 481 -449 q 414 -515 440 -499 q 360 -532 388 -532 l 350 -532 q 324 -529 338 -529 q 299 -529 311 -529 q 260 -530 279 -529 q 221 -531 240 -531 l 221 -532 l 97 -532 z "},"\"":{"ha":740,"x_min":-44,"x_max":658,"o":"m 386 675 q 362 663 371 668 q 347 653 353 658 q 336 640 340 647 q 325 618 332 632 q 358 628 346 624 q 376 637 369 632 q 383 651 382 642 q 386 675 385 660 m 13 1201 q 55 1234 35 1218 q 90 1274 75 1250 q 31 1256 46 1271 q 13 1201 17 1242 m 463 738 q 499 760 486 747 q 513 792 513 772 q 508 813 513 800 q 470 792 479 800 q 461 765 461 785 q 461 753 461 760 q 463 738 461 747 m 521 1035 q 481 1010 492 1018 q 471 988 471 1001 q 472 973 471 981 q 476 954 474 965 q 514 975 504 968 q 524 1001 524 982 q 523 1016 524 1008 q 521 1035 522 1024 m 481 1063 q 518 1087 507 1078 q 529 1110 529 1096 q 517 1151 529 1124 q 487 1126 499 1140 q 475 1092 475 1113 q 481 1063 475 1078 m 468 843 q 508 867 497 858 q 519 888 519 875 q 517 903 519 894 q 513 925 515 913 q 477 908 489 918 q 465 874 465 899 q 466 860 465 867 q 468 843 467 853 m 517 1260 q 483 1239 493 1249 q 472 1214 472 1229 q 481 1178 472 1200 q 513 1201 504 1193 q 522 1224 522 1208 q 521 1239 522 1231 q 517 1260 519 1247 m 197 614 q 225 610 211 610 q 272 629 254 610 q 308 668 289 649 q 282 672 293 672 q 235 655 254 672 q 197 614 217 638 m 76 615 q 119 610 100 610 q 156 623 143 610 q 182 668 169 636 q 160 672 169 672 q 114 653 132 672 q 76 615 96 635 m 536 696 q 527 710 536 703 q 511 717 518 717 q 504 715 506 717 q 475 693 489 704 q 446 671 461 682 q 435 654 435 664 q 443 639 435 644 q 464 626 456 626 q 481 636 472 626 q 506 659 493 647 q 529 682 518 671 q 533 689 532 685 q 536 696 535 693 m 22 624 q 28 625 26 624 q 58 652 43 639 q 89 681 74 665 q 93 690 93 685 q 90 701 93 696 q 83 711 86 706 q 72 721 81 721 q 67 719 68 721 q 30 694 47 707 q 4 658 13 681 q 3 650 3 656 q 22 624 3 632 m -3 714 q 25 737 10 726 q 53 758 40 747 q 74 783 65 769 q 82 818 82 797 q 82 831 82 825 q 79 844 82 838 q 50 822 65 832 q 22 799 35 811 q 2 772 10 788 q -6 736 -6 757 q -5 726 -6 731 q -3 714 -4 721 m 88 961 q 60 940 75 950 q 35 918 46 929 q 16 892 24 907 q 8 857 8 878 q 10 839 8 846 q 37 860 22 850 q 63 881 51 869 q 83 905 75 892 q 90 938 90 918 q 90 949 90 943 q 88 961 90 954 m 89 1201 q 13 1114 13 1175 q 14 1099 13 1107 q 18 1083 15 1092 q 41 1105 28 1096 q 66 1124 54 1114 q 86 1144 78 1133 q 94 1172 94 1156 q 89 1201 94 1186 m 90 1090 q 31 1044 49 1063 q 14 1003 14 1026 q 22 958 14 985 q 48 978 35 968 q 72 999 61 988 q 89 1024 82 1011 q 96 1056 96 1038 q 90 1090 96 1074 m 467 1281 q 511 1307 490 1294 q 554 1328 532 1319 q 588 1333 571 1333 q 649 1272 639 1333 q 656 1206 654 1239 q 658 1139 657 1172 l 658 1089 q 653 923 658 1006 q 640 757 649 840 q 598 658 633 699 q 508 594 563 618 q 475 588 490 588 q 433 600 451 588 q 410 610 422 610 q 383 599 397 610 q 331 579 363 583 q 249 572 290 574 q 168 569 208 569 q 57 574 113 569 q -10 597 11 576 q -40 663 -31 618 q -44 706 -44 683 q -44 717 -44 713 q -43 729 -44 722 q -28 858 -32 794 q -25 988 -25 922 q -26 1055 -25 1021 q -28 1122 -26 1089 l -28 1153 q -28 1168 -28 1160 q -29 1183 -28 1176 l -29 1192 q -1 1278 -29 1246 q 92 1318 28 1311 q 244 1327 168 1326 q 399 1331 321 1328 l 401 1331 q 439 1315 425 1331 q 467 1281 453 1300 z "},"#":{"ha":1561,"x_min":-49,"x_max":1485,"o":"m 496 1253 q 522 1272 518 1267 q 528 1292 526 1276 q 506 1280 515 1288 q 496 1253 497 1272 m 922 146 q 951 182 951 146 l 951 190 q 924 172 936 179 q 907 147 913 165 q 922 146 913 146 m 219 815 q 231 822 226 819 q 240 829 236 825 q 253 839 247 833 q 260 853 260 844 l 258 860 q 253 867 258 867 q 219 847 229 864 q 215 832 215 840 q 219 815 215 825 m 1196 1221 q 1238 1274 1238 1235 l 1236 1289 q 1207 1260 1218 1275 q 1196 1221 1196 1244 m 221 156 q 240 163 236 156 q 246 193 243 171 q 217 183 229 192 q 189 158 204 174 l 221 156 m 1033 613 q 1074 647 1065 635 q 1083 681 1083 658 l 1082 701 q 1049 667 1057 689 q 1033 613 1042 644 m 961 357 q 997 385 989 367 q 1008 431 1006 404 q 961 365 961 411 l 961 357 m 1 44 q 34 61 19 53 q 60 82 49 69 q 65 94 65 88 l 63 101 q 51 108 58 108 q 43 106 49 108 q 15 87 28 97 q 1 53 1 76 l 1 44 m 856 779 q 831 784 840 782 q 813 786 821 786 q 790 758 790 786 l 793 729 l 856 779 m 996 483 q 1031 507 1022 497 q 1040 536 1040 517 l 1039 561 q 1006 529 1013 550 q 996 483 999 508 m 1240 731 q 1278 756 1260 743 q 1310 788 1296 768 l 1281 789 q 1247 778 1253 789 q 1240 731 1242 767 m 597 -37 q 628 -13 613 -25 q 665 14 644 -1 q 639 19 650 17 q 619 21 628 21 q 596 -11 596 21 l 597 -37 m 457 1142 q 501 1158 490 1151 q 511 1189 511 1165 l 510 1211 q 472 1188 486 1203 q 457 1149 457 1174 l 457 1142 m 240 340 q 279 361 264 349 q 294 400 294 374 l 293 415 q 255 392 271 404 q 239 356 239 381 l 240 340 m 1156 1096 q 1200 1124 1189 1103 q 1213 1176 1211 1144 q 1156 1100 1156 1158 l 1156 1096 m 263 444 q 307 469 288 457 q 326 507 326 482 l 324 524 q 278 499 292 518 q 263 444 265 481 m 424 921 q 445 935 440 921 q 454 990 450 949 q 431 976 443 982 q 410 964 419 971 q 396 948 401 957 q 390 925 390 939 q 424 921 413 921 m 204 225 q 238 237 225 232 q 256 248 250 242 q 265 263 263 254 q 267 286 267 271 l 267 306 q 222 278 239 294 q 204 229 204 261 l 204 225 m 1057 -37 q 1072 -29 1064 -37 l 1128 24 l 1092 25 q 1056 18 1063 25 q 1044 -10 1049 11 l 1043 -24 q 1049 -35 1043 -31 q 1057 -37 1054 -37 m 1115 964 q 1149 985 1138 976 q 1167 1001 1161 993 q 1174 1022 1172 1010 q 1175 1054 1175 1033 q 1149 1040 1158 1046 q 1133 1025 1139 1033 q 1124 1003 1128 1017 q 1115 964 1121 989 m 917 217 q 960 249 944 231 q 976 297 976 267 l 975 311 q 946 293 956 300 q 931 277 936 286 q 922 255 925 268 q 917 217 919 242 m 296 561 q 345 586 328 568 q 363 644 363 604 l 363 649 q 338 633 350 640 q 317 617 326 625 q 301 597 307 608 q 294 572 294 586 l 296 561 m 419 1019 q 486 1101 486 1032 q 436 1074 447 1097 q 419 1019 425 1050 m 825 -157 q 873 -137 861 -150 q 885 -90 885 -125 l 885 -74 q 841 -106 854 -85 q 825 -157 828 -126 m 115 -181 q 148 -164 136 -171 q 166 -151 160 -157 q 174 -135 172 -144 q 176 -112 176 -126 l 176 -93 q 126 -122 139 -111 q 113 -154 113 -133 l 115 -181 m 1135 -37 q 1198 -18 1174 -37 q 1242 39 1222 1 q 1172 12 1197 33 q 1122 -37 1147 -10 l 1135 -37 m 253 740 q 269 746 263 740 q 297 765 282 757 q 322 790 311 774 q 282 800 301 800 q 226 769 246 800 q 224 761 224 767 q 229 750 224 756 q 253 740 242 740 m 115 -499 q 144 -488 131 -499 q 185 -447 157 -478 q 146 -436 160 -436 q 113 -451 126 -436 q 86 -494 99 -465 q 115 -499 104 -499 m 65 -446 q 105 -411 85 -426 q 125 -368 125 -396 q 121 -342 125 -357 q 71 -378 85 -365 q 57 -408 57 -390 q 65 -446 57 -421 m 1319 735 q 1369 740 1350 736 q 1399 750 1388 743 q 1417 769 1411 757 q 1428 800 1422 781 l 1418 800 q 1388 794 1401 800 q 1363 778 1375 788 q 1341 756 1351 768 q 1319 735 1331 744 m 1010 715 q 1062 734 1042 715 q 1104 776 1082 753 q 1094 778 1099 778 q 1085 778 1089 778 q 1026 759 1050 778 q 972 722 1003 740 q 1010 715 996 715 m 33 -26 q 62 -14 46 -26 q 110 26 78 -1 q 91 38 99 33 q 75 42 83 42 q 46 30 63 42 q -1 -10 29 18 q 18 -22 10 -17 q 33 -26 26 -26 m 757 -451 q 808 -412 785 -432 q 832 -356 832 -393 l 829 -335 q 805 -355 818 -346 q 781 -374 792 -364 q 762 -397 769 -385 q 754 -428 754 -410 q 754 -439 754 -433 q 757 -451 754 -444 m 878 715 q 908 722 894 715 q 935 738 922 728 q 959 758 947 747 q 985 778 971 769 q 951 783 968 783 q 895 763 918 783 q 847 721 872 743 q 878 715 863 715 m 219 -512 q 247 -506 235 -512 q 270 -489 260 -499 q 292 -467 281 -479 q 315 -446 303 -456 q 286 -442 299 -442 q 228 -461 250 -442 q 186 -504 207 -481 q 219 -512 204 -512 m 799 -512 q 842 -494 826 -512 q 876 -456 858 -475 q 853 -443 861 -447 q 840 -439 846 -439 q 822 -449 833 -439 q 792 -474 807 -461 q 764 -506 776 -486 q 799 -512 779 -512 m 669 -61 q 701 -53 688 -61 q 729 -34 715 -46 q 757 -10 743 -22 q 789 14 771 3 l 776 14 q 650 -58 689 14 l 669 -61 m 79 -319 q 108 -301 93 -310 q 136 -281 124 -292 q 157 -258 149 -271 q 165 -225 165 -244 l 163 -206 q 119 -226 135 -217 q 96 -246 104 -235 q 84 -274 88 -257 q 79 -319 81 -292 m 789 -310 q 853 -265 838 -281 q 869 -233 869 -250 q 867 -216 869 -225 q 863 -193 865 -207 q 806 -236 824 -208 q 789 -304 789 -264 l 789 -310 m 139 -65 q 158 -58 147 -65 q 178 -41 168 -51 q 197 -19 189 -31 q 207 0 206 -8 l 208 8 q 196 24 208 24 q 183 19 192 24 q 140 -6 161 8 q 90 -36 118 -19 q 117 -53 110 -42 q 139 -65 125 -64 m 329 675 q 388 717 374 688 q 403 788 403 747 q 377 775 392 783 q 349 758 363 767 q 327 743 336 750 q 318 733 318 736 q 323 704 319 718 q 329 675 326 690 m 811 -58 q 867 -37 843 -58 q 919 8 892 -15 q 883 14 903 14 q 822 -7 846 14 q 771 -49 797 -28 q 811 -58 792 -58 m 358 -511 q 406 -498 390 -511 q 447 -449 422 -485 q 408 -444 424 -444 q 356 -460 376 -444 q 315 -508 335 -475 l 358 -511 m 826 146 q 865 179 857 146 q 885 254 874 217 q 907 329 896 292 q 960 501 935 415 q 1014 681 986 588 l 800 681 q 772 671 781 681 q 758 643 764 661 q 719 512 739 576 q 681 381 700 447 q 656 283 665 332 q 636 183 646 233 l 635 171 q 660 153 635 153 q 741 150 700 151 q 822 146 782 149 l 826 146 m 797 -553 q 713 -468 713 -553 l 713 -454 q 724 -391 715 -422 q 740 -328 732 -360 q 771 -214 756 -271 q 801 -96 786 -157 l 743 -93 q 673 -95 707 -93 q 604 -97 639 -97 l 590 -97 q 564 -121 568 -97 q 558 -160 561 -140 q 551 -199 554 -179 q 543 -269 549 -235 q 525 -336 538 -303 q 519 -358 519 -350 l 521 -376 q 508 -432 521 -407 q 475 -481 494 -457 q 418 -530 450 -512 q 342 -549 386 -547 l 288 -550 q 197 -547 242 -550 q 107 -536 151 -543 q 18 -439 18 -522 l 18 -424 q 31 -343 21 -382 q 49 -264 40 -304 l 83 -110 l 86 -87 q 79 -72 86 -76 q 54 -65 72 -68 q 26 -62 40 -62 q -1 -57 13 -62 q -37 -34 -26 -47 q -49 3 -49 -21 l -47 21 q -33 84 -43 58 q -4 125 -22 110 q 42 149 14 140 q 108 160 69 157 q 140 170 131 163 q 154 197 150 178 l 288 685 q 259 699 274 696 q 229 708 244 703 q 174 790 174 731 q 181 851 174 822 q 221 896 188 879 q 266 913 243 907 q 313 921 289 919 q 343 932 333 922 q 360 960 353 942 q 396 1075 376 1018 q 428 1190 415 1132 q 438 1231 432 1211 q 454 1271 444 1251 q 497 1322 471 1303 q 560 1344 524 1342 q 624 1349 592 1347 q 689 1350 657 1350 q 773 1348 731 1350 q 857 1343 815 1346 q 903 1323 886 1340 q 919 1278 919 1306 q 919 1266 919 1271 q 917 1254 918 1261 q 884 1124 901 1188 q 850 993 867 1060 q 842 963 846 978 q 838 928 838 947 l 838 918 q 935 915 886 917 q 1033 911 985 914 l 1036 911 q 1060 922 1054 911 q 1069 946 1065 932 q 1103 1065 1086 1006 q 1138 1183 1119 1124 q 1157 1242 1146 1214 q 1188 1296 1168 1271 q 1233 1331 1206 1318 q 1289 1344 1261 1344 q 1318 1340 1303 1344 q 1355 1315 1342 1333 q 1368 1271 1368 1296 q 1368 1258 1368 1264 q 1365 1246 1368 1253 q 1336 1128 1351 1186 q 1306 1011 1321 1069 l 1297 979 q 1289 938 1289 950 q 1308 924 1289 924 l 1342 926 q 1367 928 1354 928 q 1393 929 1381 929 l 1415 928 q 1466 904 1447 925 q 1485 851 1485 883 l 1485 843 q 1447 747 1481 785 q 1354 697 1413 708 q 1304 691 1329 692 q 1254 690 1279 690 l 1249 690 q 1228 685 1236 690 q 1217 665 1221 681 q 1146 428 1183 546 q 1089 189 1108 311 q 1087 181 1088 185 q 1086 174 1086 178 q 1092 158 1086 165 q 1142 160 1115 160 q 1194 165 1168 160 l 1208 167 q 1267 140 1244 167 q 1289 78 1289 114 q 1283 46 1289 61 q 1223 -46 1264 -12 q 1121 -79 1182 -79 l 1101 -78 q 1071 -74 1083 -76 q 1050 -72 1058 -72 q 1025 -87 1032 -72 q 1011 -150 1018 -101 q 994 -262 1001 -207 q 978 -375 986 -318 q 874 -535 961 -478 q 842 -548 858 -544 q 808 -553 825 -551 l 797 -553 z "},"$":{"ha":1001,"x_min":-29,"x_max":924,"o":"m 317 1061 q 284 1044 297 1054 q 260 1013 271 1035 q 297 1028 281 1022 q 317 1061 314 1033 m 313 1279 q 276 1247 292 1263 q 261 1207 261 1232 q 263 1194 261 1199 q 289 1211 279 1204 q 304 1224 299 1218 q 311 1239 310 1231 q 313 1260 313 1247 l 313 1279 m 760 660 q 821 677 796 665 q 861 721 846 689 q 846 722 853 722 q 833 722 839 722 q 815 720 822 722 q 799 711 807 718 q 783 692 792 704 q 760 660 774 679 m 531 875 q 558 870 547 872 q 579 868 569 868 q 608 880 597 868 q 639 924 618 892 q 610 920 622 922 q 585 913 597 918 q 561 898 574 907 q 531 875 549 889 m 442 -490 q 463 -494 454 -493 q 479 -496 472 -496 q 503 -486 494 -496 q 526 -450 511 -476 q 507 -446 515 -447 q 492 -444 499 -444 q 468 -454 476 -444 q 442 -490 460 -464 m 56 772 q 103 805 82 788 q 124 858 124 822 l 124 869 q 78 827 90 854 q 56 772 67 800 m 13 103 q 61 142 49 129 q 74 169 74 154 q 69 196 74 179 q 25 160 38 183 q 13 103 13 136 m 415 -450 q 369 -437 386 -437 q 342 -451 353 -437 q 319 -496 332 -464 q 350 -503 338 -503 q 388 -487 374 -503 q 415 -450 403 -472 m 551 -494 q 573 -497 563 -496 q 590 -497 583 -497 q 628 -485 618 -497 q 647 -440 639 -472 q 635 -437 640 -437 q 625 -437 631 -437 q 583 -453 600 -437 q 551 -494 567 -468 m 310 1171 q 262 1142 275 1153 q 249 1113 249 1132 q 250 1096 249 1106 q 254 1074 251 1086 q 304 1106 290 1093 q 318 1136 318 1119 q 310 1171 318 1150 m 440 351 q 399 364 411 364 q 376 354 385 364 q 353 322 367 344 q 347 314 350 318 q 344 306 344 310 q 353 294 344 299 q 364 287 358 290 q 375 283 369 283 q 390 293 382 283 q 414 321 401 307 q 440 351 426 335 m 253 343 q 281 330 269 335 q 300 325 292 325 q 323 339 314 325 q 344 385 332 353 q 320 395 329 392 q 304 399 311 399 q 282 386 292 399 q 253 343 272 374 m 249 411 q 226 422 236 414 q 204 431 217 431 q 185 422 194 431 q 167 404 175 414 q 153 383 160 394 q 147 372 147 378 q 151 364 147 368 q 167 354 157 357 q 188 351 176 351 q 211 358 204 351 q 233 381 222 369 q 249 411 243 392 m 328 -199 q 283 -243 304 -221 q 263 -299 263 -265 q 268 -333 263 -317 q 314 -288 292 -310 q 336 -235 336 -267 q 328 -199 336 -219 m 447 213 q 475 242 463 228 q 501 272 488 257 q 511 290 511 282 q 504 306 511 296 q 478 325 489 325 q 451 307 468 325 q 424 278 435 288 q 414 257 414 268 q 447 213 414 242 m 218 -179 q 242 -199 233 -192 q 258 -206 251 -206 q 272 -199 265 -206 q 292 -178 279 -192 q 306 -162 299 -169 q 321 -146 314 -154 q 329 -131 329 -137 q 311 -111 329 -121 q 293 -107 300 -107 q 271 -118 281 -107 q 244 -147 258 -133 q 218 -179 229 -160 m 108 390 q 150 438 136 424 q 164 464 164 453 q 156 481 164 472 q 132 508 147 490 q 108 489 117 501 q 90 464 100 476 q 75 443 81 451 q 69 428 69 435 q 108 390 69 414 m 333 -328 q 279 -379 296 -360 q 263 -419 263 -399 q 278 -468 263 -437 q 322 -424 301 -447 q 342 -368 342 -400 q 333 -328 342 -351 m 96 743 q 38 701 60 719 q 17 646 17 682 q 22 606 17 626 q 49 629 35 618 q 74 652 63 640 q 94 678 86 664 q 101 713 101 693 q 100 727 101 719 q 96 743 99 735 m 126 -144 q 150 -160 142 -156 q 165 -165 158 -165 q 178 -160 172 -165 q 194 -144 183 -156 q 220 -119 207 -132 q 242 -90 233 -107 q 196 -68 207 -68 q 179 -76 188 -68 q 157 -100 171 -83 q 138 -120 147 -111 q 126 -144 129 -129 m 24 -35 q 78 18 63 0 q 94 51 94 36 q 89 74 94 63 q 72 101 83 85 q 33 58 53 79 q 13 8 13 38 q 24 -35 13 -12 m 706 924 q 685 911 693 919 q 669 894 676 903 q 642 865 651 875 q 633 849 633 856 q 644 833 633 842 q 678 804 656 824 q 699 820 692 810 q 717 842 707 831 q 742 879 742 868 q 733 897 742 888 q 706 924 725 907 m 89 -122 q 117 -90 103 -107 q 146 -57 131 -74 q 154 -42 154 -49 q 144 -24 154 -36 q 118 -3 125 -3 q 106 -8 111 -3 q 89 -24 100 -12 l 56 -61 q 46 -78 46 -69 q 57 -99 46 -87 q 70 -112 64 -106 q 89 -122 76 -119 m 99 619 q 40 573 58 590 q 22 536 22 556 q 47 475 22 517 q 70 495 63 482 q 89 519 78 508 q 113 571 113 543 q 99 619 113 596 m 479 96 q 533 144 514 124 q 553 188 553 164 q 531 240 553 210 q 481 203 494 217 q 467 167 467 189 q 470 138 467 154 q 479 96 474 121 m 763 833 q 708 776 725 797 q 690 733 690 754 q 697 707 690 721 q 715 675 704 693 q 760 721 740 697 q 781 776 781 744 q 763 833 781 803 m 350 -537 q 256 -508 283 -535 q 226 -414 228 -481 l 226 -346 q 226 -312 226 -329 q 225 -279 226 -296 q 224 -247 225 -258 q 217 -228 222 -235 q 200 -217 211 -221 q 169 -206 189 -212 q 57 -152 107 -186 q -14 -49 7 -118 q -29 56 -29 6 q -17 151 -29 103 q 4 190 -11 172 q 41 222 19 208 q 87 244 63 236 q 135 253 111 253 q 147 253 142 253 q 160 250 153 253 q 206 193 201 240 q 209 157 208 175 q 213 121 210 139 q 229 76 215 93 q 267 47 243 58 q 315 26 290 36 q 365 7 340 15 q 400 0 389 0 q 439 60 438 0 l 439 69 q 403 202 439 151 q 285 286 368 253 q 253 298 269 293 q 221 306 236 303 q 106 344 150 318 q 35 405 61 369 q -3 481 8 440 q -19 567 -14 522 q -22 592 -21 579 q -22 615 -22 604 q 3 758 -22 690 q 76 888 29 825 q 121 931 96 913 q 174 961 146 949 q 205 984 197 969 q 213 1019 213 999 l 213 1143 q 224 1227 213 1193 q 258 1283 236 1261 q 313 1319 281 1306 q 385 1343 344 1333 q 439 1352 413 1350 q 493 1354 465 1354 q 563 1351 528 1354 q 632 1344 597 1347 q 688 1274 685 1339 q 689 1232 689 1253 q 689 1192 689 1211 q 689 1151 689 1171 q 688 1110 689 1131 l 688 1104 q 696 1074 688 1085 q 726 1056 704 1063 q 796 1021 767 1046 q 849 961 825 996 q 883 900 868 932 q 908 835 897 868 q 917 783 917 810 q 903 720 917 750 q 867 667 890 690 q 814 631 844 644 q 749 618 783 618 q 737 618 742 618 q 725 619 732 618 q 685 641 697 624 q 667 681 674 658 q 658 716 661 699 q 651 751 656 733 q 565 831 635 818 q 555 832 560 832 q 546 832 550 832 q 479 774 493 832 q 471 696 471 733 q 485 601 471 644 q 509 560 493 575 q 554 538 525 544 q 675 503 615 522 q 788 447 735 483 q 844 392 819 424 q 888 324 869 361 q 915 245 906 286 q 924 163 924 204 q 918 99 924 131 q 899 39 913 67 q 835 -40 875 -11 q 751 -92 796 -69 q 704 -157 704 -114 q 705 -163 704 -160 q 706 -169 706 -167 q 710 -278 710 -224 q 721 -386 710 -332 q 722 -406 722 -393 q 712 -451 722 -429 q 684 -492 701 -474 q 644 -521 667 -510 q 597 -533 621 -532 q 576 -535 586 -535 q 554 -535 565 -535 q 511 -534 532 -535 q 468 -533 490 -533 l 468 -537 l 350 -537 z "},"%":{"ha":1517,"x_min":-50,"x_max":1435,"o":"m 1003 64 q 1033 90 1026 74 q 1046 124 1040 107 q 1017 101 1029 114 q 1003 64 1004 88 m 825 1226 q 864 1255 846 1243 q 883 1294 882 1267 q 844 1272 863 1285 q 825 1226 825 1260 m 1163 -487 q 1215 -467 1194 -479 q 1253 -432 1236 -456 q 1201 -446 1221 -432 q 1163 -487 1182 -460 m 33 1144 q 86 1180 64 1163 q 111 1239 108 1197 q 64 1199 83 1218 q 33 1144 44 1179 m 1211 -296 q 1235 -284 1226 -289 q 1249 -271 1243 -279 q 1260 -250 1256 -262 q 1274 -214 1265 -237 q 1242 -229 1254 -222 q 1222 -242 1229 -236 q 1213 -256 1215 -249 q 1210 -274 1210 -262 l 1211 -296 m 951 -89 q 995 -51 988 -76 q 1003 11 1003 -25 q 974 -8 983 3 q 960 -33 964 -19 q 954 -60 956 -46 q 951 -89 953 -75 m 758 961 q 790 976 778 969 q 810 990 803 983 q 819 1007 817 997 q 821 1032 821 1017 l 819 1056 q 799 1039 810 1046 q 778 1024 788 1032 q 762 1005 768 1015 q 756 979 756 994 l 758 961 m 724 826 q 775 858 763 844 q 788 906 788 872 l 788 925 q 738 888 749 914 q 724 826 726 861 m 425 646 q 458 649 442 647 q 490 654 475 650 q 519 669 506 658 q 544 699 533 679 q 493 697 513 699 q 461 690 474 694 q 441 674 449 685 q 425 646 433 664 m 1174 -8 q 1183 -4 1179 -8 q 1213 20 1197 8 q 1236 50 1228 32 q 1213 57 1224 54 q 1193 60 1203 60 q 1149 26 1158 60 l 1146 15 q 1154 1 1146 7 q 1163 -5 1158 -1 q 1174 -8 1168 -8 m 601 383 q 638 401 625 389 q 657 430 650 414 q 667 464 664 446 q 678 500 671 482 q 640 480 654 492 q 618 453 626 468 q 606 420 610 438 q 601 383 603 403 m 681 683 q 735 718 715 694 q 756 782 756 742 l 756 789 q 700 750 719 774 q 681 688 681 726 l 681 683 m -1 1011 q 25 1029 11 1021 q 51 1048 39 1038 q 70 1071 63 1058 q 78 1101 78 1083 q 76 1119 78 1113 q 14 1081 31 1097 q -3 1032 -3 1064 l -1 1011 m 792 1088 q 829 1106 815 1094 q 851 1133 843 1118 q 861 1167 858 1149 q 865 1204 864 1185 q 827 1176 842 1188 q 805 1156 813 1165 q 794 1135 797 1146 q 792 1110 792 1125 l 792 1088 m 488 -68 q 546 -34 531 -49 q 561 8 561 -19 l 558 39 q 526 22 538 28 q 507 5 514 15 q 497 -22 500 -6 q 488 -68 493 -39 m 1231 -185 q 1267 -167 1253 -175 q 1290 -152 1282 -160 q 1300 -135 1297 -144 q 1303 -110 1303 -125 l 1301 -82 q 1265 -101 1279 -93 q 1244 -117 1251 -108 q 1233 -138 1236 -126 q 1231 -167 1231 -150 l 1231 -185 m 183 647 q 209 657 199 647 q 239 690 219 667 q 206 708 218 701 q 183 714 193 714 q 160 701 171 714 q 128 660 149 689 q 183 647 167 647 m 569 229 q 603 248 592 236 q 621 276 615 260 q 628 310 626 292 q 632 346 629 328 q 582 312 596 331 q 568 257 568 293 l 569 229 m 560 915 q 610 956 596 929 q 625 1019 625 983 l 625 1025 q 570 992 585 1004 q 556 957 556 981 l 560 915 m 646 536 q 702 583 689 551 q 719 656 715 615 q 644 553 644 628 l 646 536 m 554 1026 q 583 1049 569 1038 q 611 1072 597 1060 q 625 1106 625 1083 q 617 1126 625 1119 q 607 1131 610 1131 q 592 1124 599 1131 q 579 1113 586 1117 q 568 1103 572 1108 q 557 1094 564 1099 q 536 1063 536 1079 q 554 1026 536 1049 m 926 -235 q 979 -201 965 -212 q 993 -169 993 -190 q 991 -149 993 -161 q 986 -122 989 -137 q 955 -139 967 -132 q 937 -156 943 -146 q 928 -179 931 -165 q 926 -215 926 -193 l 926 -235 m 524 72 q 581 107 567 90 q 596 160 596 124 l 594 193 q 568 181 578 186 q 551 166 558 176 q 538 134 543 156 q 524 72 532 113 m 514 1114 q 540 1126 525 1114 q 585 1169 554 1139 q 560 1187 569 1181 q 540 1193 550 1193 q 513 1178 526 1193 q 479 1131 500 1163 q 499 1119 490 1124 q 514 1114 507 1114 m 539 -508 q 578 -494 563 -508 q 619 -451 593 -479 q 585 -447 600 -447 q 531 -461 554 -447 q 486 -497 508 -475 q 515 -506 503 -503 q 539 -508 528 -508 m 422 -361 q 483 -319 458 -344 q 508 -250 508 -294 l 508 -243 q 446 -283 469 -258 q 422 -351 422 -307 l 422 -361 m 304 636 q 351 647 331 636 q 388 688 372 658 q 343 694 363 694 q 297 683 318 694 q 257 642 275 671 q 281 638 269 639 q 304 636 293 636 m 1226 -85 q 1260 -58 1244 -69 q 1289 -36 1275 -47 q 1296 -19 1296 -29 q 1293 -8 1296 -12 q 1286 4 1290 -3 q 1271 18 1281 18 l 1265 17 q 1233 -7 1249 6 q 1208 -36 1218 -19 q 1206 -46 1206 -42 q 1213 -65 1206 -56 q 1226 -85 1219 -74 m 669 -511 q 721 -494 699 -511 q 763 -453 743 -478 q 722 -449 739 -449 q 674 -462 693 -449 q 638 -506 654 -475 q 669 -511 653 -511 m 1088 -493 q 1113 -480 1101 -493 q 1147 -436 1125 -467 q 1123 -423 1132 -428 q 1106 -418 1114 -418 q 1078 -431 1093 -418 q 1033 -474 1063 -443 q 1088 -493 1072 -493 m 950 -350 q 995 -319 982 -331 q 1008 -292 1008 -308 q 1006 -270 1008 -282 q 997 -240 1003 -258 q 944 -272 961 -260 q 928 -300 928 -285 q 933 -322 928 -310 q 950 -350 939 -333 m 425 -485 q 438 -480 432 -485 q 450 -471 443 -475 q 476 -455 463 -462 q 497 -435 489 -447 l 469 -379 q 435 -400 450 -390 q 408 -424 419 -410 q 399 -449 399 -435 q 408 -475 399 -464 q 425 -485 417 -485 m -1 889 q 56 922 42 911 q 71 957 71 933 q 69 976 71 965 q 65 1003 68 988 q 8 972 25 986 q -8 935 -8 958 q -6 915 -8 925 q -1 889 -4 904 m 1068 -390 q 1049 -363 1057 -375 q 1029 -344 1042 -351 q 979 -378 994 -365 q 964 -401 964 -390 q 973 -422 964 -411 q 999 -449 982 -432 l 1068 -390 m 457 -224 q 519 -176 507 -211 q 531 -99 531 -142 q 471 -134 488 -115 q 454 -187 454 -153 q 455 -204 454 -196 q 457 -224 456 -212 m 17 771 q 40 785 31 775 q 60 804 49 794 q 82 824 75 817 q 89 840 89 831 q 85 858 89 847 q 74 883 81 868 q 13 847 29 861 q -4 818 -4 833 q 2 797 -4 808 q 17 771 8 786 m 78 682 q 113 706 89 682 q 131 724 121 715 q 143 747 140 732 q 127 768 135 757 q 108 788 119 779 q 103 789 107 789 q 91 784 96 789 q 81 774 86 779 l 49 743 q 39 726 39 735 q 46 710 39 721 q 78 682 65 682 m 1163 -287 q 1184 -210 1178 -247 q 1193 -135 1190 -172 l 1193 -129 q 1165 -57 1193 -89 q 1156 -46 1161 -51 q 1143 -40 1150 -40 l 1139 -40 q 1128 -51 1128 -43 q 1126 -68 1128 -60 q 1122 -136 1122 -101 q 1124 -176 1122 -156 q 1128 -218 1125 -197 q 1137 -254 1131 -236 q 1163 -287 1143 -272 m 493 846 q 508 858 507 846 q 511 879 508 869 q 515 893 514 886 q 518 907 517 900 q 520 928 519 918 q 521 949 521 938 q 514 1010 521 981 q 492 1069 507 1040 q 482 1081 488 1076 q 469 1086 476 1086 l 465 1086 q 453 1076 454 1085 q 451 1060 453 1068 q 448 1027 449 1043 q 446 996 447 1011 q 450 935 449 964 q 464 878 451 906 q 474 856 468 867 q 492 846 479 846 l 493 846 m 515 -543 q 438 -532 478 -543 q 364 -450 364 -511 q 364 -435 364 -443 q 367 -419 364 -428 q 425 -162 396 -289 q 489 94 454 -35 q 558 368 525 232 q 625 643 592 504 q 628 654 628 649 q 629 665 628 660 l 618 668 q 476 613 550 624 q 328 603 403 603 l 271 603 q 201 608 235 604 q 132 618 167 611 q 26 671 65 629 q -29 774 -14 713 q -50 940 -50 854 q -29 1101 -50 1019 q 13 1192 -17 1151 q 81 1263 42 1233 q 169 1308 121 1292 q 267 1325 217 1325 q 375 1329 321 1326 q 483 1332 429 1332 l 519 1332 q 649 1290 599 1329 q 735 1186 699 1250 q 742 1170 739 1179 q 750 1150 744 1161 q 767 1200 760 1178 q 782 1244 774 1222 q 831 1313 800 1288 q 910 1342 863 1339 q 1035 1346 972 1346 q 1124 1344 1079 1346 q 1213 1336 1168 1342 q 1271 1272 1271 1329 l 1268 1250 q 1252 1179 1261 1214 q 1233 1108 1243 1144 q 1138 742 1185 924 q 1033 378 1090 560 q 1005 269 1015 324 q 983 158 994 214 l 981 146 q 986 128 981 138 q 1089 185 1033 175 q 1207 196 1144 194 l 1208 196 q 1273 180 1239 196 q 1337 139 1307 164 q 1389 84 1367 114 q 1419 26 1411 54 q 1435 -79 1435 -28 q 1434 -101 1435 -90 q 1432 -124 1433 -112 q 1399 -266 1421 -197 q 1338 -397 1378 -335 q 1254 -487 1303 -451 q 1139 -529 1206 -522 l 1110 -531 q 1005 -506 1054 -531 q 928 -415 956 -481 l 889 -317 q 872 -353 876 -336 q 864 -387 867 -369 q 804 -500 854 -456 q 686 -544 754 -544 l 515 -543 z "},"&":{"ha":1067,"x_min":-43,"x_max":983,"o":"m 703 157 q 678 147 685 156 q 669 119 672 138 q 691 134 685 125 q 703 157 697 143 m 781 274 q 757 256 767 267 q 743 224 747 244 q 781 274 775 246 m 561 -335 q 550 -319 554 -325 q 544 -318 549 -318 q 540 -319 542 -318 q 513 -351 525 -335 q 493 -387 500 -367 l 493 -389 q 501 -400 493 -394 q 503 -401 503 -400 q 507 -401 504 -401 l 510 -401 q 511 -400 511 -401 q 536 -367 524 -383 q 561 -335 549 -350 m 104 97 q 146 118 129 106 q 174 145 163 131 q 194 176 185 160 q 213 208 203 192 q 209 209 210 208 q 207 210 208 210 q 197 206 200 210 q 190 200 193 203 q 150 152 171 176 q 104 97 129 128 m 244 -10 q 249 -12 247 -11 q 254 -15 251 -14 q 282 17 268 1 q 310 50 296 33 q 317 68 317 57 q 314 82 317 74 q 301 93 310 93 q 293 88 297 93 q 244 -10 258 42 m 210 1217 q 152 1163 168 1185 q 129 1114 136 1142 q 166 1137 153 1128 q 187 1155 179 1146 q 199 1178 194 1164 q 210 1217 203 1192 m 672 678 q 590 560 594 633 q 638 616 617 588 q 672 678 658 644 m 675 738 q 731 778 714 753 q 754 846 749 804 q 726 823 740 833 q 701 801 713 813 q 683 774 690 789 q 675 738 675 758 m 664 1185 q 622 1194 639 1194 q 600 1189 610 1194 q 576 1169 590 1183 q 568 1160 572 1165 q 564 1149 564 1154 q 567 1142 564 1144 q 586 1132 574 1132 q 601 1138 590 1132 q 631 1160 617 1149 q 664 1185 646 1171 m 632 -469 q 667 -474 654 -474 q 692 -462 683 -474 q 721 -418 701 -450 q 701 -413 710 -415 q 686 -411 693 -411 q 660 -424 671 -411 q 632 -469 650 -437 m 851 -419 q 827 -417 838 -418 q 808 -417 817 -417 q 770 -428 781 -417 q 744 -472 760 -440 q 775 -476 761 -476 q 819 -463 800 -476 q 851 -419 838 -450 m 757 1088 q 708 1058 722 1069 q 693 1032 693 1047 q 710 988 693 1017 q 756 1022 743 1011 q 769 1046 769 1033 q 767 1063 769 1054 q 757 1088 764 1072 m 346 -487 q 282 -475 301 -475 q 250 -490 261 -475 q 222 -542 239 -506 l 228 -542 q 292 -528 264 -542 q 346 -487 321 -514 m 719 872 q 772 907 757 894 q 788 939 788 919 q 785 958 788 947 q 778 985 782 969 q 728 949 742 963 q 715 913 715 936 q 719 872 715 897 m 667 1069 q 703 1099 686 1085 q 738 1128 721 1113 q 719 1156 726 1147 q 706 1165 713 1165 q 693 1160 700 1165 q 675 1147 686 1156 q 657 1133 665 1140 q 640 1119 649 1126 q 636 1113 638 1117 q 632 1106 635 1108 q 648 1089 640 1097 q 667 1069 656 1081 m 576 -461 q 581 -460 579 -460 q 586 -457 583 -460 q 609 -428 597 -442 q 632 -400 621 -415 q 633 -394 633 -399 q 629 -385 633 -389 q 614 -370 621 -378 q 596 -362 607 -362 q 588 -364 590 -362 q 574 -376 582 -367 q 560 -396 567 -385 q 549 -417 554 -407 q 544 -433 544 -428 q 545 -436 544 -436 q 546 -437 546 -436 q 576 -461 557 -456 m 338 -212 q 361 -184 350 -197 q 383 -156 372 -171 q 396 -139 392 -144 q 400 -126 400 -133 q 378 -85 400 -115 q 351 -112 361 -97 q 328 -143 340 -128 q 314 -172 314 -157 q 338 -212 314 -192 m 113 -511 q 163 -532 151 -532 q 181 -524 174 -532 q 200 -497 188 -515 q 214 -481 207 -489 q 222 -460 221 -472 q 201 -441 208 -447 q 186 -435 193 -435 q 172 -442 179 -435 q 153 -462 164 -449 q 134 -485 143 -474 q 113 -511 125 -496 m 168 311 q 144 288 151 296 q 136 269 136 279 q 141 251 136 261 q 153 224 146 240 q 158 225 157 224 q 174 236 167 231 q 189 249 182 242 q 217 274 208 265 q 226 293 226 282 q 222 314 226 303 q 206 344 217 325 l 168 311 m 119 46 q 47 -10 72 22 q 22 -96 22 -43 q 68 -66 51 -78 q 94 -41 85 -54 q 108 -8 103 -28 q 119 46 113 11 m 60 946 q 112 983 92 969 q 143 1008 132 997 q 158 1028 154 1018 q 161 1056 161 1039 q 160 1068 161 1061 q 160 1083 160 1075 q 124 1060 142 1071 q 92 1034 107 1049 q 69 1001 78 1019 q 60 957 60 983 l 60 946 m 119 325 q 176 367 160 353 q 193 400 193 382 q 176 451 193 418 q 122 413 138 428 q 106 378 106 397 q 109 355 106 367 q 119 325 113 343 m -3 -256 q 27 -228 11 -242 q 57 -201 43 -215 q 79 -171 71 -187 q 88 -132 88 -154 q 87 -121 88 -126 q 85 -108 86 -115 q -8 -219 -8 -156 q -7 -237 -8 -228 q -3 -256 -6 -246 m 294 -119 q 317 -99 308 -111 q 335 -75 325 -86 q 353 -51 347 -60 q 360 -33 360 -42 q 353 -12 360 -24 q 336 18 347 -1 q 311 -3 321 10 q 292 -29 301 -17 q 273 -53 279 -44 q 267 -71 267 -62 q 274 -90 267 -79 q 294 -119 281 -100 m 92 440 q 156 489 139 472 q 172 521 172 506 q 168 542 172 531 q 158 568 164 553 q 96 532 114 547 q 78 494 78 517 q 81 470 78 483 q 92 440 85 457 m 72 561 q 136 605 118 590 q 154 639 154 619 q 151 661 154 649 q 140 692 147 674 q 80 649 96 664 q 64 613 64 635 q 72 561 64 594 m 49 811 q 95 846 76 832 q 125 871 114 860 q 140 890 136 882 q 144 910 144 899 q 142 929 144 919 q 136 954 139 939 q 105 931 121 942 q 75 908 89 921 q 53 878 61 894 q 44 840 44 863 q 49 811 44 828 m 78 -240 q 72 -240 75 -240 q 68 -242 69 -240 q 49 -259 58 -250 q 32 -276 40 -268 q 6 -305 14 -294 q -3 -326 -3 -315 q 3 -348 -3 -336 q 19 -381 8 -360 q 76 -332 60 -349 q 93 -296 93 -315 q 89 -272 93 -285 q 78 -240 85 -260 m 58 682 q 124 734 106 717 q 143 774 143 751 q 140 795 143 783 q 132 824 138 807 q 94 797 108 808 q 69 774 79 785 q 56 753 60 764 q 53 729 53 743 q 54 708 53 719 q 58 682 56 697 m 338 -343 q 392 -294 371 -324 q 438 -235 414 -264 q 454 -206 454 -214 q 448 -190 454 -199 q 431 -167 442 -182 q 390 -202 403 -181 q 370 -248 378 -224 q 356 -297 363 -272 q 338 -343 350 -322 m 114 -349 q 86 -370 96 -358 q 65 -393 76 -382 q 44 -418 51 -408 q 38 -436 38 -428 q 68 -479 38 -447 q 74 -483 71 -482 q 83 -486 78 -483 l 113 -453 q 138 -424 129 -433 q 146 -403 146 -414 q 138 -381 146 -393 q 114 -349 129 -369 m 231 -87 q 211 -186 211 -133 q 219 -249 211 -219 q 238 -294 226 -278 q 253 -318 246 -306 q 275 -331 261 -331 l 276 -331 q 302 -317 293 -331 q 321 -292 311 -304 q 326 -275 326 -285 q 318 -256 326 -267 q 287 -206 299 -232 q 263 -154 275 -181 q 247 -122 256 -137 q 231 -87 239 -106 m 533 564 q 619 714 581 639 q 674 872 658 789 q 678 919 678 897 q 660 1006 678 965 q 601 1079 642 1047 q 558 1101 574 1101 q 526 1053 539 1101 q 507 947 513 1000 q 501 840 501 893 q 504 760 501 800 q 511 679 507 719 q 516 624 514 651 q 533 564 518 596 m 649 174 q 699 241 676 210 q 747 300 722 272 q 790 339 767 324 q 843 354 813 354 q 856 354 850 354 q 869 351 863 354 q 935 288 935 336 q 919 239 935 261 q 888 190 904 214 q 854 142 871 165 q 808 74 831 107 q 761 7 785 40 q 744 -32 744 -17 q 756 -64 744 -46 q 833 -180 792 -125 q 935 -276 875 -235 q 983 -354 983 -312 q 965 -412 983 -382 q 906 -482 942 -456 q 818 -508 871 -508 q 732 -510 775 -508 q 644 -512 689 -512 q 578 -504 610 -512 q 521 -468 547 -496 q 494 -444 510 -456 q 464 -422 479 -433 q 417 -472 440 -449 q 369 -519 394 -496 q 298 -565 336 -551 q 221 -578 260 -578 q 144 -565 182 -578 q 76 -531 107 -553 q 21 -479 44 -510 q -15 -412 -3 -449 q -43 -253 -43 -335 q -26 -117 -43 -183 q 17 18 -8 -50 q 51 88 32 54 q 101 150 71 122 q 118 185 118 167 q 114 208 118 196 q 49 447 72 326 q 15 690 26 567 q 11 753 13 722 q 10 815 10 783 q 15 912 10 864 q 33 1008 19 960 q 200 1263 75 1163 q 332 1322 260 1307 q 419 1338 376 1333 q 507 1342 463 1342 q 595 1338 551 1342 q 683 1322 639 1333 q 803 1260 757 1304 q 875 1150 850 1217 q 905 1052 894 1101 q 915 954 915 1003 q 879 785 915 867 q 767 577 831 675 q 615 397 704 479 q 583 340 583 368 q 594 300 583 325 q 622 241 610 272 q 649 174 633 210 z "},"'":{"ha":558,"x_min":-21,"x_max":476,"o":"m 40 1189 q 73 1217 56 1206 q 90 1251 90 1229 q 88 1268 90 1254 q 51 1247 65 1260 q 38 1210 38 1235 q 38 1201 38 1206 q 40 1189 39 1196 m 226 668 q 197 672 211 672 q 153 658 172 672 q 117 618 135 644 q 150 621 133 619 q 181 626 167 622 q 206 640 194 631 q 226 668 218 649 m 42 1089 q 85 1115 72 1106 q 97 1138 97 1124 q 86 1176 97 1150 q 51 1151 67 1165 q 36 1115 36 1138 q 42 1089 36 1101 m 24 733 q 71 762 58 751 q 83 792 83 772 q 82 808 83 799 q 78 828 81 817 q 22 753 22 810 q 22 744 22 749 q 24 733 22 739 m 39 857 q 82 885 69 875 q 94 911 94 896 q 92 931 94 919 q 85 957 89 942 q 50 925 65 942 q 35 882 35 908 q 39 857 35 871 m 44 974 q 82 1004 64 989 q 100 1046 100 1019 q 96 1068 100 1056 q 52 1042 64 1051 q 40 1013 40 1032 q 44 974 40 999 m 256 629 q 269 627 263 628 q 283 626 276 626 q 376 681 344 626 q 364 683 369 682 q 351 683 358 683 q 299 670 322 683 q 256 629 276 657 m 78 717 q 50 699 63 710 q 26 676 38 688 q 15 654 15 665 q 25 632 15 646 q 44 622 38 622 q 64 632 51 622 q 115 675 88 654 q 98 699 107 689 q 78 717 89 710 m 476 1024 q 470 895 476 964 q 463 756 464 826 q 447 701 463 729 q 408 650 432 674 q 355 610 383 626 q 300 593 326 594 q 191 587 246 589 q 82 582 136 585 l 71 582 q 38 586 54 582 q -3 608 10 593 q -19 653 -17 622 q -21 667 -21 660 q -21 683 -21 675 q -19 723 -21 703 q -14 764 -17 743 q -2 883 -7 824 q 3 1001 3 942 q 1 1062 3 1032 q -3 1122 0 1092 q -4 1141 -4 1132 q -4 1158 -4 1150 q -3 1188 -4 1174 q -1 1218 -3 1203 q 61 1299 7 1275 q 108 1315 85 1308 q 158 1324 132 1322 q 255 1329 207 1326 q 351 1332 303 1332 l 388 1332 q 444 1316 428 1331 q 468 1260 461 1301 q 475 1188 474 1225 q 476 1110 476 1151 l 476 1024 z "},"(":{"ha":717,"x_min":-40,"x_max":635,"o":"m 190 1211 q 229 1237 218 1219 q 250 1278 240 1254 q 210 1252 222 1268 q 190 1211 199 1236 m 181 1156 q 135 1121 149 1143 q 117 1067 122 1099 q 149 1083 138 1076 q 165 1099 160 1090 q 174 1119 171 1107 q 181 1156 176 1132 m 64 932 q 122 956 107 935 q 136 1026 136 978 q 83 991 96 1018 q 64 932 71 964 m 519 -458 q 488 -453 501 -456 q 464 -451 475 -451 q 421 -465 436 -451 q 389 -512 406 -479 q 410 -513 400 -512 q 431 -514 419 -514 q 481 -504 458 -514 q 519 -458 504 -494 m 26 765 q 88 806 72 790 q 104 856 104 822 q 103 872 104 864 q 101 892 103 881 q 61 873 76 882 q 38 851 46 864 q 28 819 31 839 q 26 765 26 799 m 238 -499 q 288 -512 261 -512 q 333 -498 311 -512 q 374 -447 354 -483 q 326 -440 346 -440 q 276 -453 299 -440 q 238 -499 254 -467 m 189 -242 q 140 -277 156 -264 q 125 -306 125 -290 q 132 -329 125 -317 q 151 -361 139 -342 q 198 -328 183 -340 q 213 -301 213 -317 q 206 -277 213 -290 q 189 -242 200 -264 m 7 618 q 45 636 31 628 q 68 653 60 644 q 80 672 76 661 q 83 699 83 682 q 83 718 83 707 q 81 743 82 729 q 21 708 38 728 q 4 656 4 689 q 4 638 4 647 q 7 618 4 629 m 232 -356 q 184 -388 200 -374 q 168 -422 168 -403 q 193 -478 168 -444 q 246 -433 231 -449 q 261 -406 261 -417 q 252 -385 261 -396 q 232 -356 243 -375 m 69 458 q 13 411 31 432 q -4 364 -4 390 q 7 313 -4 343 q 42 337 28 326 q 65 356 56 347 q 77 373 74 364 q 81 393 81 382 q 78 420 81 404 q 69 458 75 436 m 7 467 q 40 488 26 479 q 63 505 54 496 q 75 524 71 514 q 79 550 79 535 q 77 574 79 561 q 72 603 75 586 q 13 567 29 586 q -4 524 -4 549 q -1 497 -4 511 q 7 467 1 483 m 7 156 q 63 204 39 179 q 88 264 88 229 q 76 308 88 282 q 11 266 28 283 q -6 225 -6 249 q -2 194 -6 211 q 7 156 1 178 m 144 -112 q 92 -149 108 -136 q 75 -179 75 -162 q 83 -208 75 -192 q 108 -253 92 -225 q 157 -216 142 -229 q 172 -186 172 -203 q 165 -157 172 -174 q 144 -112 158 -140 m 111 25 q 53 -19 71 -3 q 35 -54 35 -35 q 42 -82 35 -67 q 63 -121 49 -97 q 114 -84 99 -97 q 129 -50 129 -71 q 124 -19 129 -37 q 111 25 119 -1 m 26 11 q 63 38 49 28 q 87 57 78 49 q 100 72 96 65 q 104 89 104 79 q 99 119 104 101 q 85 168 93 138 q 28 123 44 140 q 11 81 11 106 q 15 51 11 67 q 26 11 19 35 m -36 415 q -40 515 -40 465 q -31 667 -40 590 q -6 818 -22 743 q 47 1004 15 914 q 128 1181 79 1094 q 142 1208 135 1194 q 156 1235 149 1221 q 216 1306 178 1283 q 303 1331 254 1328 q 351 1333 326 1332 q 400 1333 376 1333 q 487 1331 444 1333 q 572 1322 529 1329 q 619 1302 603 1318 q 635 1263 635 1286 q 625 1225 635 1243 q 601 1183 614 1203 q 578 1142 589 1163 q 492 901 519 1024 q 458 649 464 778 q 454 552 456 600 q 453 456 453 504 q 463 233 453 343 q 497 11 472 122 q 547 -160 517 -76 q 614 -328 576 -244 q 631 -401 631 -365 q 568 -521 631 -475 q 539 -538 554 -532 q 507 -546 524 -544 q 453 -548 479 -547 q 400 -549 428 -549 q 318 -547 360 -549 q 236 -543 276 -546 q 146 -474 167 -542 q 110 -375 129 -424 q 72 -278 92 -326 q 35 -180 53 -229 q 3 -79 17 -131 q -31 104 -21 13 q -40 290 -40 196 l -40 328 q -38 367 -39 347 q -36 415 -37 388 z "},")":{"ha":465,"x_min":-42,"x_max":379,"o":"m 138 -67 q 183 -47 171 -58 q 194 -7 194 -36 q 194 4 194 -1 q 193 17 193 10 q 165 7 175 11 q 151 -5 156 3 q 143 -27 146 -12 q 138 -67 140 -42 m 226 154 q 177 131 190 142 q 164 97 164 121 q 168 56 164 81 q 198 63 186 60 q 216 75 210 67 q 224 97 222 83 q 226 133 226 110 l 226 154 m 164 -110 q 124 -125 139 -114 q 101 -151 110 -136 q 87 -183 92 -165 q 76 -218 82 -200 q 116 -203 101 -214 q 140 -178 131 -193 q 153 -147 149 -164 q 164 -110 158 -129 m 17 1178 q 77 1208 60 1197 q 94 1235 94 1219 q 90 1256 94 1244 q 78 1283 85 1267 q 17 1178 21 1251 m 239 279 q 189 258 203 267 q 175 228 175 250 q 176 210 175 221 q 181 183 178 199 q 229 200 217 193 q 242 233 242 207 q 241 253 242 242 q 239 279 240 264 m 58 1088 q 94 1108 78 1099 q 126 1129 110 1118 q 136 1144 136 1138 q 133 1157 136 1151 q 128 1168 131 1163 q 122 1180 125 1174 q 114 1186 119 1186 q 112 1185 113 1186 q 110 1185 111 1185 q 74 1166 92 1176 q 46 1140 57 1156 q 42 1128 42 1133 q 48 1108 42 1118 q 58 1088 54 1099 m 178 429 q 234 459 217 446 q 251 490 251 472 q 238 531 251 506 q 183 506 197 515 q 168 479 168 497 q 171 459 168 471 q 178 429 174 447 m 203 889 q 147 854 164 869 q 129 821 129 839 q 146 776 129 803 q 202 808 186 797 q 218 835 218 818 q 214 857 218 844 q 203 889 210 869 m 114 878 q 137 894 126 888 q 158 908 147 901 q 185 928 176 921 q 193 944 193 935 q 189 961 193 951 q 178 986 185 971 q 117 958 135 968 q 100 931 100 949 q 103 909 100 921 q 114 878 107 897 m 221 772 q 166 743 185 756 q 147 708 147 731 q 160 663 147 692 q 215 688 200 681 q 231 714 231 694 q 228 738 231 724 q 221 772 225 751 m 4 -456 q 38 -479 24 -471 q 68 -487 53 -487 q 103 -472 88 -487 q 138 -426 119 -457 q 96 -411 117 -411 q 49 -428 69 -411 q 4 -456 28 -444 m 233 649 q 175 626 193 638 q 157 592 157 614 q 169 543 157 572 q 227 570 211 561 q 243 599 243 579 q 240 620 243 608 q 233 649 238 632 m 178 303 q 235 327 219 317 q 251 363 251 338 q 249 385 251 372 q 244 415 247 399 q 210 401 224 407 q 188 388 196 394 q 178 372 181 382 q 175 349 175 363 q 176 329 175 340 q 178 303 176 318 m 146 1096 q 111 1078 126 1089 q 81 1054 96 1067 q 71 1026 71 1049 q 81 993 71 1004 q 93 986 88 986 q 106 992 100 986 q 118 1000 111 997 q 131 1006 125 1003 q 143 1013 136 1010 q 167 1042 167 1024 q 163 1061 167 1050 q 157 1079 160 1069 q 146 1096 154 1089 m 110 -251 q 63 -278 81 -261 q 35 -317 46 -296 q 18 -360 25 -337 q 3 -404 11 -383 q 48 -391 25 -397 q 76 -362 71 -385 q 93 -310 83 -336 q 110 -251 103 -283 m 378 396 q 379 365 379 381 q 379 333 379 349 q 339 16 379 174 q 236 -300 299 -142 q 225 -326 231 -312 q 218 -353 219 -339 q 190 -431 214 -399 q 135 -494 165 -464 q 61 -524 106 -524 q 13 -513 36 -524 q -25 -483 -10 -503 q -42 -432 -42 -461 q -38 -404 -42 -418 q -29 -376 -35 -390 q 8 -279 -10 -328 q 49 -183 26 -231 q 121 42 100 -72 q 142 278 142 157 q 141 320 142 299 q 139 364 140 342 q 126 529 133 447 q 113 694 118 611 q 101 774 110 735 q 81 853 92 814 q 49 973 65 914 q 17 1092 33 1032 q 8 1119 13 1106 q -4 1144 3 1132 q -18 1197 -18 1171 q -7 1244 -18 1222 q 22 1288 4 1267 q 75 1324 42 1311 q 140 1336 108 1336 q 178 1331 163 1336 q 219 1288 206 1318 q 307 1031 272 1161 q 357 763 342 901 q 372 611 365 688 q 379 450 379 535 q 378 423 379 436 q 378 396 378 410 z "},"*":{"ha":689,"x_min":-40,"x_max":606,"o":"m 236 1244 q 247 1253 243 1250 q 256 1261 251 1257 q 264 1275 264 1269 q 258 1283 264 1279 q 251 1286 253 1286 q 243 1283 247 1286 q 235 1276 239 1279 q 231 1263 231 1269 q 236 1244 231 1256 m 400 740 q 426 764 418 756 q 435 779 435 772 q 428 792 435 786 q 406 810 421 799 q 403 776 404 792 q 400 740 401 760 m 25 1144 q 60 1172 43 1158 q 89 1206 76 1186 q 90 1211 90 1207 q 86 1224 90 1218 q 78 1235 82 1229 q 71 1239 75 1239 q 64 1236 67 1239 q 32 1208 47 1222 q 6 1176 17 1194 q 3 1167 3 1171 q 8 1154 3 1160 q 19 1144 13 1149 l 25 1144 m 267 829 q 243 799 256 814 q 219 769 231 785 q 200 737 208 754 q 192 699 192 719 q 215 726 201 714 q 240 751 228 739 q 260 779 251 764 q 268 815 268 794 q 267 829 268 824 m 21 658 q 46 653 33 653 q 77 667 65 653 q 101 693 89 682 q 111 708 111 700 q 103 721 111 714 q 85 732 92 732 q 71 724 76 732 q 45 694 58 708 q 21 658 32 679 m 279 736 q 242 697 257 717 q 213 654 226 676 q 211 649 211 653 q 213 640 211 642 q 233 635 222 635 q 282 707 282 642 q 281 721 282 714 q 279 736 281 728 m 128 993 q 157 1024 143 1010 q 185 1054 171 1039 q 190 1065 190 1060 q 186 1077 190 1072 q 178 1088 182 1082 q 167 1094 172 1094 q 150 1085 160 1094 q 122 1057 135 1072 q 104 1031 104 1039 q 128 993 104 1021 m 446 650 q 472 670 464 656 q 490 696 479 685 q 500 714 500 706 q 486 736 500 725 q 469 746 476 746 q 450 732 460 746 q 434 713 442 722 q 418 693 426 704 q 413 685 415 689 q 411 676 411 682 q 413 668 411 671 q 426 656 418 660 q 446 650 435 653 m 46 1100 q 55 1083 50 1092 q 68 1069 60 1075 q 76 1067 74 1067 q 87 1072 83 1067 q 96 1082 90 1078 q 113 1099 106 1090 q 132 1117 121 1108 q 143 1136 143 1126 q 139 1150 143 1143 q 128 1164 135 1157 q 115 1171 122 1171 q 106 1166 110 1171 q 96 1157 101 1161 q 75 1138 85 1147 q 56 1119 65 1129 q 46 1100 46 1110 m -1 704 q 14 714 10 710 q 122 856 74 781 q 222 1004 169 932 q 225 1010 225 1007 q 226 1013 225 1011 q 226 1015 226 1014 q 221 1024 226 1022 q 214 1025 219 1025 q 206 1022 208 1025 q 181 999 194 1010 q 161 972 168 988 q 115 902 142 933 q 65 836 89 871 q 38 797 51 817 q 13 757 25 776 q 2 737 7 746 q -3 717 -3 728 q -1 704 -3 708 m 324 692 q 290 625 310 651 q 228 599 269 599 l 219 599 q 169 626 182 601 q 150 683 156 651 q 121 663 131 676 q 99 639 111 649 q 74 620 86 628 q 46 613 61 613 q 18 619 35 613 q -40 696 -35 643 l -40 704 q -34 741 -40 724 q -18 775 -28 758 q 28 846 3 813 q 78 914 53 879 q 96 936 89 929 q 103 950 103 943 q 78 993 103 960 q 31 1059 54 1026 q -17 1126 7 1092 q -39 1190 -39 1161 q 0 1267 -39 1228 q 115 1319 56 1319 q 183 1304 146 1319 q 199 1300 192 1300 q 214 1307 204 1300 q 246 1324 229 1318 q 281 1332 263 1329 q 325 1338 303 1338 q 376 1316 360 1338 q 401 1243 392 1294 q 435 1277 419 1261 q 468 1308 451 1293 q 528 1333 497 1333 q 575 1315 556 1333 q 606 1261 606 1289 q 589 1217 606 1239 q 567 1191 578 1203 q 544 1167 556 1179 q 488 1103 517 1135 q 431 1042 460 1072 q 417 1015 417 1028 q 432 986 417 1001 q 501 913 468 950 q 569 838 535 875 q 606 765 606 797 q 579 697 606 736 q 556 665 569 681 q 507 624 532 636 q 458 611 482 611 q 371 653 413 611 q 350 672 361 663 q 324 692 339 681 z "},"+":{"ha":999,"x_min":-35,"x_max":921,"o":"m 606 -10 q 632 1 621 -7 q 650 31 643 10 q 606 -10 615 13 m 699 356 q 717 367 710 361 q 725 382 725 372 q 724 385 725 385 q 724 389 724 386 q 714 392 724 392 q 696 374 696 390 q 699 356 696 369 m 319 856 q 269 823 288 840 q 246 778 250 806 q 268 789 257 783 q 290 803 279 794 q 308 824 300 811 q 319 856 315 836 m 74 485 q 38 470 50 476 q 18 456 25 464 q 10 433 11 447 q 8 397 8 419 q 30 412 18 406 q 51 425 42 418 q 68 442 61 432 q 75 467 75 451 q 74 485 75 478 m 750 346 q 790 342 775 342 q 823 353 813 342 q 853 399 833 365 q 829 403 840 403 q 785 387 804 403 q 750 346 767 371 m 569 24 q 547 26 557 25 q 528 26 538 26 q 486 15 499 26 q 461 -28 474 4 q 490 -33 474 -33 q 533 -17 514 -33 q 569 24 551 0 m 442 26 q 408 32 425 32 q 372 18 388 32 q 338 -29 356 4 q 376 -33 364 -33 q 403 -22 392 -33 q 442 26 414 -10 m 29 354 q 67 344 49 344 q 113 362 94 344 q 151 399 132 379 q 127 409 138 406 q 107 413 117 413 q 73 399 89 413 q 29 354 57 386 m 271 -24 q 300 -1 288 -17 q 329 25 313 14 q 342 43 342 33 q 329 65 342 50 q 313 76 322 76 q 294 65 306 76 q 272 40 283 53 q 249 15 260 28 q 240 0 240 7 q 244 -10 240 -4 q 271 -24 253 -19 m 233 658 q 300 699 283 685 q 317 728 317 713 q 314 743 317 735 q 308 763 311 751 q 246 724 263 739 q 229 689 229 710 q 233 658 229 676 m 164 347 q 176 351 169 351 q 202 342 190 351 q 226 332 214 332 q 239 336 232 332 q 273 363 254 350 q 299 399 292 375 q 258 406 274 406 q 206 390 229 406 q 164 347 183 375 m 235 56 q 258 81 246 69 q 282 103 271 92 q 301 128 293 115 q 308 156 308 140 q 306 176 308 165 q 296 199 303 186 q 251 152 272 175 q 229 93 229 129 q 235 56 229 74 m 308 654 q 247 619 264 632 q 231 585 231 606 q 233 566 231 576 q 239 540 236 556 q 297 563 282 553 q 311 606 311 574 q 310 627 311 615 q 308 654 310 639 m 229 185 q 254 210 242 197 q 278 235 267 222 q 296 261 289 247 q 303 293 303 275 q 296 329 303 311 q 235 281 251 301 q 218 238 218 261 q 229 185 218 218 m 711 767 q 710 727 711 756 q 708 666 710 699 q 706 603 707 633 q 704 557 704 572 q 731 525 704 525 l 738 525 q 782 528 760 528 q 826 532 804 529 l 842 532 q 921 458 921 532 q 921 448 921 453 q 919 436 921 443 q 876 339 911 369 q 774 303 842 308 q 709 294 725 300 q 693 260 693 288 q 694 240 693 251 q 697 213 696 228 q 702 165 700 189 q 707 117 704 140 q 708 105 708 110 q 708 93 708 100 q 676 -6 708 35 q 582 -61 643 -46 q 543 -67 563 -65 q 504 -68 524 -68 q 417 -68 460 -68 q 329 -69 374 -68 q 257 -58 294 -69 q 215 -34 231 -50 q 197 13 200 -18 q 190 139 194 76 q 181 265 185 201 q 178 288 179 279 q 174 299 178 296 q 162 304 169 303 q 140 306 154 306 q 63 310 101 306 q -2 333 22 313 q -33 388 -26 353 q -35 397 -35 392 q -35 406 -35 401 q -20 461 -35 433 q 19 504 -6 489 q 75 528 46 519 q 136 538 104 538 q 183 542 172 538 q 194 574 194 547 q 194 586 194 579 q 193 601 193 593 q 190 644 192 624 q 189 688 189 665 q 190 720 189 704 q 194 753 192 736 q 240 847 207 811 q 335 890 272 883 q 415 899 375 896 q 494 901 454 901 q 572 898 533 901 q 647 885 610 894 q 694 861 681 876 q 710 810 707 846 q 711 788 711 799 q 711 767 711 778 z "},",":{"ha":594,"x_min":-46,"x_max":510,"o":"m 47 -74 q 14 -92 28 -81 q -7 -135 0 -104 q 27 -104 14 -118 q 47 -74 40 -90 m 26 -676 q 65 -630 46 -649 q 90 -583 83 -611 q 57 -594 69 -589 q 38 -606 44 -599 q 28 -627 31 -614 q 26 -661 26 -640 l 26 -676 m 306 -525 q 316 -526 311 -525 q 325 -526 321 -526 q 358 -518 349 -526 q 368 -489 368 -510 q 367 -475 368 -482 q 365 -458 367 -468 q 332 -487 347 -472 q 306 -525 317 -501 m 411 -656 q 342 -666 371 -656 q 300 -717 313 -676 l 311 -717 q 411 -656 368 -717 m 188 -431 q 157 -425 169 -428 q 135 -422 144 -422 q 108 -433 117 -422 q 82 -471 99 -443 q 129 -475 113 -475 q 158 -466 149 -475 q 188 -431 168 -457 m 71 -119 q 48 -142 61 -132 q 24 -162 35 -151 q 4 -186 13 -174 q -4 -217 -4 -199 q -3 -226 -4 -221 q -1 -237 -3 -231 q 19 -216 7 -225 q 44 -197 32 -207 q 66 -176 57 -187 q 75 -146 75 -164 q 71 -119 75 -135 m 49 -715 q 88 -729 76 -729 q 114 -715 101 -729 q 146 -669 126 -701 q 104 -651 115 -651 q 90 -659 97 -651 q 69 -682 82 -667 q 57 -697 63 -690 q 49 -715 51 -704 m 161 -724 q 190 -728 178 -726 q 211 -729 201 -729 q 246 -716 235 -729 q 276 -667 257 -703 q 244 -661 261 -661 q 197 -678 217 -661 q 161 -724 178 -694 m 207 -478 q 240 -482 226 -481 q 263 -483 253 -483 q 297 -472 286 -483 q 328 -432 308 -461 q 295 -426 308 -429 q 271 -424 282 -424 q 238 -435 250 -424 q 207 -478 226 -447 m 78 -224 q 13 -278 32 -257 q -6 -322 -6 -299 q -4 -337 -6 -329 q 0 -354 -3 -344 q 40 -320 25 -333 q 64 -296 56 -307 q 76 -274 72 -285 q 79 -250 79 -264 q 79 -238 79 -244 q 78 -224 79 -232 m 78 -336 q 47 -364 58 -349 q 21 -394 35 -379 q 6 -411 10 -406 q 0 -428 0 -418 q 8 -453 0 -440 q 22 -461 17 -461 q 28 -460 26 -461 q 62 -431 46 -446 q 89 -396 78 -415 q 93 -382 93 -390 q 88 -360 93 -371 q 78 -336 82 -349 m 246 -525 q 188 -516 217 -521 q 128 -511 158 -511 q 114 -511 121 -511 q 100 -512 107 -511 q 83 -514 94 -514 q 64 -512 74 -514 q 44 -510 54 -511 q -15 -484 4 -503 q -37 -425 -33 -465 q -46 -253 -46 -340 q -42 -124 -46 -189 q -19 -67 -39 -89 q 33 -33 1 -44 q 91 -21 61 -24 q 150 -15 121 -18 q 235 -12 193 -14 q 322 -11 278 -11 q 371 -12 346 -11 q 419 -14 396 -12 q 491 -35 472 -17 q 510 -106 510 -54 q 510 -297 510 -201 q 507 -487 510 -392 q 483 -603 506 -550 q 422 -703 460 -656 q 381 -736 404 -725 q 331 -753 358 -747 q 240 -763 286 -761 q 150 -765 194 -765 l 83 -765 q 19 -746 43 -765 q -12 -696 -6 -726 q -17 -661 -17 -679 q -2 -602 -17 -629 q 40 -560 13 -575 q 88 -540 64 -546 q 138 -535 113 -535 l 174 -535 q 210 -533 192 -535 q 246 -525 228 -532 z "},"-":{"ha":999,"x_min":-37,"x_max":915,"o":"m 558 343 q 591 357 578 343 q 615 388 604 371 q 583 392 594 392 q 559 383 568 392 q 535 349 550 374 q 558 343 546 343 m 761 353 q 795 355 782 353 q 817 363 808 357 q 833 377 826 368 q 847 401 840 386 q 838 403 843 403 q 831 403 833 403 q 790 388 806 403 q 761 353 775 374 m 321 342 q 366 360 349 342 q 399 397 383 378 q 371 403 386 403 q 327 384 344 403 q 290 347 310 365 q 306 343 299 344 q 321 342 314 342 m 681 339 q 708 350 700 339 q 728 392 717 361 l 704 393 q 672 384 682 393 q 642 344 661 375 q 664 340 654 342 q 681 339 674 339 m 453 347 q 479 358 469 347 q 504 396 489 368 l 475 399 q 449 389 460 399 q 418 351 439 379 q 453 347 440 347 m 92 346 q 119 358 108 346 q 151 400 131 369 q 126 410 136 407 q 108 414 117 414 q 81 400 94 414 q 42 354 68 386 q 92 346 75 346 m 207 342 q 249 356 233 342 q 279 403 264 371 q 263 407 271 406 q 249 408 256 408 q 201 392 221 408 q 165 347 182 375 q 188 343 178 344 q 207 342 199 342 m 8 385 q 58 426 44 413 q 71 454 71 439 q 68 469 71 461 q 61 490 65 478 q 16 463 29 475 q 3 428 3 451 q 8 385 3 408 m 636 303 q 492 307 563 307 q 356 305 424 307 q 219 303 288 303 l 153 304 q 53 313 103 304 q -9 334 8 319 q -35 385 -26 349 q -37 401 -37 393 q -37 418 -37 410 q -27 465 -37 443 q 7 504 -17 488 q 67 535 35 526 q 135 543 99 543 l 144 543 q 414 531 279 536 q 685 526 549 526 l 722 526 q 775 529 749 526 q 828 533 801 532 l 838 533 q 894 515 874 533 q 915 465 915 497 q 910 431 915 447 q 861 350 894 381 q 775 313 828 319 q 718 305 747 308 q 661 301 689 301 l 636 303 z "},".":{"ha":581,"x_min":-36,"x_max":497,"o":"m 346 -483 q 403 -465 382 -479 q 435 -421 424 -450 l 406 -418 q 375 -431 385 -418 q 346 -483 365 -443 m 168 -486 q 196 -474 188 -486 q 219 -426 204 -462 q 205 -424 211 -424 q 193 -424 199 -424 q 163 -436 174 -424 q 140 -483 153 -449 l 168 -486 m 17 -153 q 35 -128 25 -140 q 56 -106 46 -117 q 72 -81 65 -94 q 82 -51 79 -68 q 10 -112 10 -57 q 17 -153 10 -128 m 276 -482 q 306 -470 297 -482 q 325 -424 314 -458 l 297 -422 q 266 -433 275 -422 q 242 -479 257 -443 q 261 -481 253 -481 q 276 -482 269 -482 m 10 -285 q 33 -260 21 -272 q 56 -236 46 -249 q 73 -210 67 -224 q 79 -176 79 -196 q 74 -143 79 -160 q 28 -197 51 -172 q 6 -258 6 -222 q 10 -285 6 -271 m 71 -481 q 94 -471 85 -481 q 118 -437 104 -461 q 125 -419 125 -426 q 112 -401 125 -407 q 92 -383 99 -396 q 61 -428 76 -408 q 36 -472 46 -449 q 71 -481 58 -481 m 18 -432 q 36 -401 25 -415 q 58 -372 47 -386 q 76 -342 68 -357 q 83 -307 83 -326 q 78 -275 83 -290 q 23 -332 39 -310 q 7 -379 7 -354 q 18 -432 7 -399 m 90 -521 q 33 -517 54 -521 q -2 -501 11 -512 q -21 -468 -15 -489 q -31 -412 -26 -447 q -35 -345 -33 -379 q -36 -276 -36 -311 q -35 -201 -36 -239 q -31 -126 -33 -164 q 5 -38 -25 -64 q 97 -10 35 -12 l 243 -10 q 295 -8 269 -10 q 347 -7 321 -7 l 400 -10 q 460 -32 443 -14 q 481 -94 478 -50 q 482 -159 482 -126 q 482 -224 482 -192 q 484 -271 482 -247 q 493 -318 486 -294 q 497 -354 497 -337 q 485 -415 497 -386 q 450 -467 472 -444 q 399 -504 428 -490 q 338 -518 371 -518 q 250 -521 293 -519 q 163 -522 207 -522 l 90 -521 z "},"/":{"ha":947,"x_min":-42,"x_max":865,"o":"m 313 -492 q 358 -477 340 -492 q 390 -442 375 -462 q 357 -433 369 -433 q 331 -446 343 -433 q 293 -490 318 -458 q 303 -492 299 -492 q 313 -492 308 -492 m 411 1190 q 469 1231 456 1203 q 486 1301 483 1260 q 454 1281 467 1293 q 434 1255 442 1269 q 422 1224 426 1240 q 411 1190 417 1207 m 129 74 q 176 117 157 96 q 196 172 196 139 l 193 194 q 145 156 164 178 q 126 99 126 135 l 129 74 m 157 219 q 213 269 197 238 q 228 342 228 300 q 171 297 186 318 q 156 239 156 276 l 157 219 m 367 1038 q 426 1081 400 1057 q 451 1144 451 1104 l 450 1158 q 388 1113 407 1143 q 367 1038 369 1082 m 44 -258 q 102 -212 81 -239 q 124 -146 124 -186 l 122 -129 q 63 -181 78 -149 q 44 -258 47 -214 m 207 -490 q 248 -477 235 -490 q 276 -432 261 -464 q 246 -428 260 -428 q 156 -485 192 -428 q 185 -489 172 -487 q 207 -490 197 -490 m 82 -99 q 123 -75 108 -90 q 146 -41 138 -60 q 158 1 154 -22 q 167 47 163 24 q 103 -18 122 18 q 82 -99 85 -54 m 65 -492 q 99 -479 83 -492 q 143 -435 114 -467 q 121 -424 131 -428 q 101 -412 111 -419 q 88 -407 96 -407 q 72 -414 79 -407 q 41 -444 57 -429 q 15 -479 25 -458 q 44 -488 32 -485 q 65 -492 56 -492 m 272 707 q 320 740 301 726 q 349 769 339 754 q 363 805 358 785 q 367 857 367 825 q 301 798 321 836 q 272 707 281 760 m 314 874 q 363 903 346 892 q 390 927 381 914 q 403 961 399 940 q 414 1019 408 982 q 344 957 369 992 q 314 874 319 922 m 233 544 q 303 599 283 572 q 324 669 324 626 l 322 689 q 258 635 283 667 q 233 551 233 603 l 233 544 m 192 374 q 232 399 217 383 q 256 433 247 414 q 270 473 265 451 q 279 518 275 494 q 236 497 253 507 q 210 472 219 488 q 197 433 201 457 q 192 374 193 410 m 1 -422 q 47 -390 29 -410 q 75 -350 64 -371 q 93 -308 86 -329 q 107 -267 100 -286 q 27 -333 54 -296 q 0 -408 0 -371 q 1 -415 0 -411 q 1 -422 1 -419 m 282 -529 q 265 -528 274 -528 q 249 -528 257 -528 l 46 -525 q -42 -449 -42 -521 l -39 -419 q -22 -344 -36 -389 q 4 -250 -8 -299 q 67 8 38 -121 q 122 269 96 138 q 181 511 146 392 q 244 753 215 631 q 307 977 272 867 q 375 1200 342 1088 q 382 1221 378 1211 q 390 1242 386 1231 q 438 1318 411 1297 q 519 1339 465 1339 l 539 1339 q 665 1334 603 1336 q 792 1328 728 1332 q 865 1264 865 1324 q 861 1229 865 1247 q 751 800 807 1014 q 631 374 696 586 q 585 182 601 278 q 543 -10 569 86 q 514 -135 526 -74 q 499 -242 501 -196 q 476 -343 493 -294 q 435 -439 458 -392 q 381 -506 413 -481 q 303 -531 350 -531 l 282 -529 z "},":":{"ha":581,"x_min":-33,"x_max":500,"o":"m 364 -199 q 415 -181 396 -199 q 449 -135 433 -164 q 412 -137 425 -135 q 390 -145 399 -139 q 374 -164 381 -151 q 360 -199 368 -176 l 364 -199 m 288 -200 q 312 -189 304 -200 q 335 -146 319 -178 q 300 -142 311 -142 q 274 -153 282 -142 q 251 -196 267 -164 q 288 -200 274 -200 m 18 122 q 55 164 39 146 q 81 204 71 182 q 83 217 83 213 q 81 225 83 222 q 69 231 75 231 q 56 226 61 231 q 15 151 15 203 l 18 122 m 171 -207 q 189 -205 182 -207 q 201 -196 196 -203 q 213 -177 207 -189 q 228 -146 219 -165 q 214 -144 221 -144 q 201 -143 207 -143 q 169 -156 179 -143 q 147 -206 158 -169 l 171 -207 m 17 1 q 68 48 53 31 q 83 85 83 65 q 72 131 83 101 q 54 105 64 117 q 35 81 44 93 q 19 55 25 68 q 13 25 13 42 q 17 1 13 14 m 82 -200 q 101 -192 93 -200 q 122 -162 108 -183 q 131 -143 131 -150 q 115 -121 131 -133 q 100 -114 106 -114 q 90 -119 93 -114 q 81 -131 86 -124 q 60 -160 71 -146 q 44 -192 50 -174 q 82 -200 69 -200 m 22 -150 q 42 -123 31 -136 q 62 -96 53 -110 q 78 -67 71 -82 q 85 -36 85 -53 q 76 1 85 -19 q 34 -49 56 -25 q 13 -107 13 -74 q 22 -150 13 -129 m 108 -242 q 36 -234 61 -240 q -1 -215 11 -228 q -15 -180 -12 -201 q -22 -124 -18 -158 q -27 -60 -25 -92 q -29 3 -29 -29 q -27 77 -29 40 q -22 151 -25 114 q 13 243 -18 215 q 108 274 44 271 l 249 274 l 249 272 l 350 274 l 400 272 q 461 252 443 269 q 482 193 479 235 q 485 126 485 160 q 486 58 485 92 q 488 8 486 33 q 497 -42 490 -17 q 500 -57 500 -49 q 500 -74 500 -65 q 490 -132 500 -103 q 460 -185 479 -161 q 414 -224 442 -208 q 353 -239 386 -239 l 296 -237 q 216 -240 256 -237 q 136 -242 176 -242 l 108 -242 m 406 613 q 421 624 415 618 q 433 639 426 629 q 413 631 417 633 q 406 613 410 628 m 19 915 q 55 956 35 939 q 82 1000 75 972 q 32 985 47 997 q 17 944 17 974 q 17 931 17 938 q 19 915 18 924 m 310 589 q 339 600 332 589 q 353 642 346 611 q 341 644 346 643 q 331 644 336 644 q 268 593 288 644 l 310 589 m 181 585 q 217 597 201 585 q 243 639 233 610 l 203 643 q 173 632 182 643 q 149 590 164 621 q 165 586 157 588 q 181 585 174 585 m 68 588 q 100 597 88 588 q 124 629 113 607 q 128 643 128 638 q 114 663 128 657 q 93 679 100 668 q 58 638 74 658 q 31 593 43 618 q 68 588 51 588 m 10 779 q 67 839 50 818 q 85 879 85 860 q 72 917 85 896 q 41 883 53 897 q 22 857 29 869 q 11 833 14 844 q 8 807 8 821 l 10 779 m 13 642 q 36 669 24 656 q 59 695 49 682 q 76 724 69 708 q 83 758 83 739 q 78 794 83 778 q 54 767 67 779 q 31 742 42 756 q 13 715 21 729 q 6 681 6 700 q 13 642 6 661 m 68 546 q -25 625 -10 547 q -31 658 -28 642 q -33 693 -33 675 l -33 703 q -31 812 -32 757 q -26 921 -29 867 q 6 1013 -22 983 q 96 1047 33 1043 q 200 1053 149 1050 q 304 1056 251 1056 q 354 1056 329 1056 q 404 1053 379 1056 q 462 1033 444 1050 q 482 976 479 1017 q 485 895 485 936 q 486 814 485 854 q 488 783 486 799 q 493 753 489 768 q 499 713 499 735 q 489 659 499 685 q 463 613 479 633 q 422 577 446 592 q 371 558 399 563 q 322 554 347 554 q 271 553 296 554 l 68 546 z "},";":{"ha":594,"x_min":-46,"x_max":514,"o":"m -3 156 q 25 176 13 164 q 50 213 38 189 q 12 190 25 201 q -3 156 -1 178 m 97 -306 q 42 -319 58 -308 q 25 -357 25 -331 q 29 -389 25 -371 l 97 -306 m 328 -250 q 364 -236 357 -250 q 374 -172 371 -222 q 331 -204 350 -187 q 304 -249 313 -221 l 328 -250 m 293 -440 q 356 -425 329 -437 q 404 -381 383 -412 l 378 -378 q 326 -393 346 -378 q 293 -440 307 -408 m 115 -197 q 156 -189 138 -197 q 181 -149 174 -181 q 133 -143 154 -143 q 102 -155 113 -143 q 78 -196 92 -167 l 115 -197 m 197 -449 q 276 -387 247 -449 q 243 -382 260 -382 q 194 -399 214 -382 q 158 -442 175 -417 q 197 -449 182 -449 m -10 36 q 31 73 13 56 q 68 108 50 90 q 81 135 81 119 q 69 167 81 149 q 47 142 61 153 q 20 118 33 131 q -2 91 7 106 q -11 54 -11 76 l -10 36 m 83 -449 q 109 -436 97 -449 q 144 -392 121 -424 q 119 -373 128 -379 q 103 -367 110 -367 q 69 -397 92 -367 q 55 -414 63 -406 q 47 -435 47 -422 l 47 -439 q 68 -446 60 -443 q 83 -449 76 -449 m 261 -203 q 298 -190 286 -203 q 324 -147 310 -178 l 282 -143 q 238 -153 258 -143 q 206 -196 218 -164 q 237 -201 224 -199 q 261 -203 250 -203 m -8 -81 q 62 -14 43 -35 q 81 26 81 7 q 78 44 81 35 q 74 64 76 53 q 47 38 61 50 q 19 12 32 25 q -3 -17 6 -1 q -11 -56 -11 -33 q -10 -68 -11 -62 q -8 -81 -10 -74 m 18 -182 q 24 -181 22 -182 q 56 -151 40 -165 q 86 -118 72 -136 q 93 -99 93 -110 q 89 -76 93 -87 q 83 -49 85 -64 q 38 -90 56 -68 q 3 -132 21 -112 q -4 -147 -4 -139 q 6 -174 -4 -160 q 18 -182 11 -182 m 92 -487 q 17 -467 44 -487 q -18 -411 -11 -446 q -20 -395 -19 -403 q -21 -381 -21 -387 q 56 -269 -21 -301 q 144 -254 96 -254 q 193 -256 168 -256 q 243 -256 218 -256 q 188 -235 217 -236 q 131 -232 160 -233 l 53 -232 q -14 -206 8 -228 q -43 -140 -36 -185 q -44 -118 -44 -133 l -46 61 l -46 135 q -21 213 -44 185 q 51 251 3 240 q 88 258 69 256 q 124 261 106 261 q 232 265 178 263 q 340 268 286 268 q 384 268 363 268 q 428 265 406 268 q 493 243 474 261 q 513 179 513 225 l 514 85 l 513 -101 q 510 -156 511 -129 q 506 -208 508 -182 q 481 -315 501 -265 q 429 -411 461 -365 q 379 -456 408 -440 q 315 -475 350 -472 q 204 -484 260 -481 q 92 -487 149 -487 m 364 579 q 449 642 426 586 l 421 644 q 387 631 397 644 q 364 579 376 618 m 186 576 q 209 589 201 576 q 232 638 217 601 l 204 640 q 178 629 188 640 q 151 582 169 618 q 171 578 163 579 q 186 576 179 576 m 28 907 q 46 932 36 921 q 65 954 56 943 q 81 978 75 965 q 88 1008 88 992 l 88 1013 q 38 990 53 1004 q 22 949 22 976 q 28 907 22 929 m 276 581 q 297 583 289 581 q 313 591 306 585 q 326 608 319 597 q 343 639 332 619 l 315 640 q 277 628 288 640 q 258 581 267 617 l 276 581 m 31 783 q 69 828 49 807 q 90 879 90 849 q 85 907 90 894 q 36 860 51 881 q 21 819 21 840 q 31 783 21 801 m 81 582 q 106 591 96 582 q 131 624 115 600 q 136 639 136 631 q 122 658 136 647 q 104 667 111 667 q 86 653 96 667 q 67 623 78 638 q 49 586 56 608 q 81 582 69 582 m 31 636 q 69 689 47 664 q 90 747 90 714 q 85 779 90 764 q 35 729 50 750 q 19 685 19 708 q 31 636 19 665 m 156 539 q 110 540 132 539 q 67 544 89 542 q 32 551 46 547 q 9 564 18 556 q -5 586 0 572 q -12 621 -10 600 q -21 703 -18 663 q -24 786 -24 744 q -21 869 -24 828 q -15 951 -18 911 q 93 1051 -6 1049 q 172 1054 133 1054 q 250 1054 210 1054 l 407 1053 q 467 1033 450 1051 q 488 972 485 1015 q 490 911 490 942 q 490 849 490 881 q 494 793 492 821 q 501 738 496 765 q 504 721 504 729 q 504 706 504 713 q 493 645 504 675 q 463 592 482 615 q 419 556 444 569 q 363 542 393 542 l 347 543 l 300 546 l 243 544 q 198 540 219 542 q 156 539 176 539 z "},"<":{"ha":1143,"x_min":-44,"x_max":1058,"o":"m 806 -46 q 868 -27 843 -43 q 913 14 893 -11 q 876 26 892 26 q 844 10 860 26 q 806 -46 828 -7 m 65 401 q -3 339 19 386 q -7 326 -7 332 q 11 301 -7 311 q 21 294 17 299 q 31 290 25 290 q 40 296 36 290 q 70 322 56 310 q 90 354 85 335 l 90 360 q 82 381 90 371 q 65 401 74 392 m 324 267 q 291 282 304 276 q 267 288 278 288 q 235 273 251 288 q 190 225 219 258 q 228 201 214 210 q 254 193 243 193 q 278 205 267 193 q 308 240 289 217 q 317 251 313 246 q 324 267 322 256 m 224 304 q 177 325 196 318 q 144 332 158 332 q 111 317 125 332 q 75 271 97 303 q 110 248 97 256 q 133 240 122 240 q 156 249 144 240 q 188 276 168 257 q 203 289 194 283 q 224 304 211 294 m 310 179 q 381 153 357 153 q 417 169 400 153 q 457 219 433 185 q 403 238 422 231 q 374 244 385 244 q 348 230 358 244 q 310 179 338 215 m 701 103 q 665 128 678 119 q 640 136 651 136 q 617 128 629 136 q 586 103 606 119 q 566 88 576 96 q 550 68 556 81 q 592 40 576 49 q 618 31 607 31 q 644 42 631 31 q 681 79 657 54 q 690 90 685 85 q 701 103 694 96 m 590 163 q 544 187 563 178 q 510 196 525 196 q 474 180 490 196 q 432 129 458 164 q 473 102 458 111 q 500 93 488 93 q 526 103 513 93 q 563 132 539 113 q 577 144 569 138 q 590 163 585 150 m 825 44 q 776 74 793 64 q 749 85 760 85 q 723 71 735 85 q 683 29 711 57 q 675 20 679 25 q 671 8 671 15 l 671 6 q 715 -20 699 -11 q 743 -29 732 -29 q 769 -17 757 -29 q 804 21 782 -6 q 814 32 810 26 q 825 44 818 38 m 444 363 q 533 332 493 350 q 614 299 574 314 q 727 243 674 276 q 840 186 781 210 q 885 170 863 178 q 929 156 907 163 q 996 85 996 135 q 974 26 996 60 q 935 -19 957 1 q 890 -57 914 -40 q 810 -82 853 -82 q 788 -81 799 -82 q 767 -76 778 -79 q 677 -42 721 -61 q 592 0 633 -24 q 378 106 488 60 q 156 192 268 151 q 77 222 115 206 q 3 263 39 239 q -44 325 -44 293 q -15 388 -44 351 q 47 442 13 419 q 114 486 81 464 q 372 656 244 571 q 626 832 500 740 q 728 876 674 867 q 805 888 767 883 q 882 893 843 893 q 979 885 929 893 q 1027 872 1004 881 q 1057 832 1050 863 q 1058 815 1058 826 q 1044 778 1058 793 q 1011 750 1031 764 q 797 601 906 672 q 581 456 689 529 q 515 412 549 435 q 444 363 482 389 z "},"=":{"ha":1003,"x_min":-36,"x_max":931,"o":"m 558 176 q 580 172 569 174 q 600 171 590 171 q 632 179 618 171 q 656 211 646 188 q 626 217 640 217 q 590 206 607 217 q 558 176 574 196 m 417 179 q 467 171 447 171 q 500 181 488 171 q 525 217 513 192 q 509 221 517 219 q 494 222 501 222 q 452 210 471 222 q 417 179 433 199 m 63 271 q 74 301 74 282 l 74 306 q 63 318 74 318 l 58 318 q 31 306 43 315 q 10 283 19 296 q 1 258 1 271 q 13 229 1 244 l 63 271 m 132 224 q 108 237 118 232 q 90 242 99 242 q 65 228 76 242 q 36 188 54 215 q 61 177 51 181 q 78 174 71 174 q 101 185 92 174 q 132 224 111 197 m 389 215 q 363 222 374 219 q 343 225 351 225 q 316 215 328 225 q 283 178 304 204 q 319 171 304 171 q 389 215 361 171 m 154 185 q 196 172 181 172 q 224 183 211 172 q 258 222 238 194 q 226 229 240 229 q 187 216 204 229 q 154 185 169 203 m 792 217 q 778 218 785 218 q 765 218 772 218 q 717 208 738 218 q 683 168 696 197 q 706 167 696 167 q 724 167 715 167 q 746 169 738 167 q 761 176 754 171 q 775 192 768 182 q 792 217 782 201 m 101 138 q 82 138 92 138 q 63 140 72 139 q 15 150 33 144 q -14 165 -3 156 q -30 190 -25 175 q -36 229 -35 206 l -36 242 q -13 313 -36 283 q 53 356 10 343 q 122 364 86 364 l 136 364 q 231 359 185 361 q 326 356 278 357 q 447 352 388 353 q 568 346 507 351 q 608 344 588 344 q 647 343 628 343 q 733 346 690 343 q 819 353 776 349 q 833 354 826 354 q 846 354 839 354 q 881 347 865 354 q 908 321 897 340 q 922 268 922 293 q 907 213 922 240 q 852 153 885 175 q 775 131 819 132 q 730 129 751 129 q 685 129 708 129 q 572 135 628 132 q 458 138 517 138 l 101 138 m 15 546 q 35 564 24 556 q 55 581 46 572 q 71 599 64 589 q 78 625 78 610 q 77 631 78 628 q 76 638 76 635 q 27 611 40 624 q 14 572 14 599 q 14 559 14 565 q 15 546 14 553 m 557 539 q 526 543 540 543 q 481 528 499 543 q 447 494 464 514 q 475 489 460 489 q 519 503 500 489 q 557 539 538 518 m 150 549 q 101 564 117 564 q 70 550 82 564 q 46 506 58 536 q 72 500 58 500 q 114 518 97 500 q 150 549 131 536 m 724 496 q 753 492 740 493 q 776 490 765 490 q 815 502 804 490 q 840 544 826 514 q 814 549 825 549 q 765 534 786 549 q 724 496 743 519 m 574 494 q 615 490 596 490 q 663 500 642 490 q 700 538 685 510 q 665 542 681 542 q 616 530 638 542 q 574 494 594 518 m 147 494 q 167 490 158 492 q 185 489 176 489 q 241 506 218 489 q 282 550 264 522 q 253 554 265 554 q 198 535 221 554 q 147 494 175 517 m 292 494 q 340 490 321 490 q 390 503 372 490 q 426 546 407 515 q 390 551 410 551 q 336 536 360 551 q 292 494 313 521 m 182 453 q 49 467 113 453 q -12 500 8 475 q -32 557 -32 525 q -6 626 -32 593 q 51 673 18 658 q 124 688 85 688 l 133 688 q 349 681 242 681 q 564 672 456 682 q 606 669 585 669 q 649 669 628 669 q 707 671 678 669 q 767 675 736 672 q 803 678 785 676 q 839 681 821 679 l 842 681 q 906 658 882 681 q 931 601 931 636 q 924 564 931 585 q 771 456 890 457 q 698 454 735 454 q 625 454 661 454 l 446 454 l 446 453 l 182 453 z "},">":{"ha":1142,"x_min":-44,"x_max":1064,"o":"m 826 257 q 856 262 842 257 q 883 282 869 267 q 819 257 840 282 l 826 257 m 932 289 q 969 299 953 292 q 1001 328 986 307 q 980 324 990 325 q 960 319 969 322 q 944 309 951 315 q 932 289 936 303 m 74 -10 q 100 17 88 4 q 124 43 113 29 q 133 57 129 49 q 135 67 135 60 q 132 78 135 74 q 124 83 131 83 q 121 83 122 83 q 118 82 119 82 q 81 60 94 76 q 68 19 68 43 q 74 -10 68 3 m 106 -39 q 122 -40 111 -40 q 166 -31 146 -40 q 206 -15 186 -22 q 214 -1 214 -12 l 214 0 q 210 7 214 6 q 200 11 206 8 q 181 16 189 14 q 167 18 174 18 q 140 6 151 18 q 106 -39 129 -7 m 7 718 q 28 737 17 728 q 49 756 39 746 q 65 776 58 765 q 71 803 71 788 q 67 829 71 814 q -3 753 -3 793 q 0 736 -3 744 q 7 718 3 728 m 658 372 q 638 388 647 378 q 618 399 629 399 q 601 392 613 399 q 576 367 588 381 q 554 339 565 353 q 550 328 550 332 q 563 317 550 317 l 565 317 q 617 332 592 324 q 658 372 643 340 m 346 464 q 363 476 354 468 l 396 514 q 404 523 400 518 q 408 533 408 528 q 400 546 408 539 q 386 557 393 551 q 371 563 379 563 q 356 554 364 563 q 337 535 346 544 q 318 514 328 525 q 311 505 315 510 q 307 494 307 500 q 311 485 307 489 q 346 464 324 469 m 238 650 q 214 671 222 664 q 199 678 206 678 q 184 672 192 678 q 164 654 176 665 q 145 638 154 646 q 132 618 136 631 q 175 588 164 588 q 192 595 183 588 q 215 619 200 603 q 228 633 222 626 q 238 650 235 639 m 497 478 q 467 503 478 496 q 447 510 456 510 q 431 500 438 510 q 411 476 424 490 q 395 460 403 468 q 386 440 388 451 q 413 417 403 425 q 429 410 422 410 q 444 417 436 410 q 465 440 453 425 q 480 458 472 449 q 497 478 488 467 m 468 381 q 492 361 483 368 q 508 354 501 354 q 523 362 515 354 q 544 385 531 369 q 563 403 553 394 q 575 428 572 413 q 550 447 560 440 q 533 453 540 453 q 519 446 526 453 q 500 425 513 439 q 483 404 492 414 q 468 381 474 394 m 329 585 q 328 590 328 588 q 326 594 328 592 q 308 613 319 607 q 286 618 297 618 q 253 606 267 618 q 242 595 247 600 q 233 585 238 590 q 222 574 229 579 q 215 561 215 568 q 219 553 215 557 q 269 519 240 525 q 282 528 272 519 q 302 549 292 538 q 321 572 313 561 q 329 585 329 582 m 167 704 q 141 725 151 717 q 119 740 131 733 q 104 744 113 744 q 72 732 89 744 q 42 699 54 719 q 38 686 38 690 q 47 672 38 675 q 64 661 57 668 q 92 646 79 646 q 124 667 106 646 q 142 685 132 676 q 167 704 153 693 m 517 290 q 447 349 483 324 q 375 397 411 374 q 197 521 283 457 q 21 647 111 585 q 1 663 11 654 q -17 681 -8 671 q -44 744 -44 715 q -19 807 -44 774 q 33 858 4 838 q 101 881 63 879 q 173 883 138 882 q 244 883 208 883 q 316 881 281 883 q 388 872 351 879 q 514 817 458 857 q 701 685 606 747 q 890 560 796 624 q 953 517 922 539 q 1017 475 983 494 q 1053 435 1042 460 q 1064 383 1064 411 q 1051 325 1064 353 q 1014 283 1038 297 q 922 243 968 257 q 601 133 757 196 q 294 -14 446 69 q 237 -41 267 -29 q 176 -65 207 -53 q 158 -72 168 -69 q 139 -76 149 -74 q 126 -78 132 -78 q 115 -79 121 -79 q 36 -31 58 -79 q 25 15 25 -6 q 64 90 25 60 q 190 147 121 139 q 285 176 242 154 q 372 217 328 197 q 442 253 408 233 q 517 290 476 274 z "},"?":{"ha":1003,"x_min":-24,"x_max":925,"o":"m 347 1172 q 307 1159 321 1168 q 283 1131 293 1150 l 290 1131 q 320 1144 311 1131 q 347 1172 329 1157 m 190 719 q 167 728 176 725 q 151 732 158 732 q 133 722 140 732 q 114 686 126 711 q 137 687 128 686 q 153 691 146 688 q 168 701 160 694 q 190 719 176 707 m 325 325 q 353 342 343 331 q 371 367 364 353 q 384 398 378 382 q 399 431 390 414 q 365 410 376 422 q 346 384 353 399 q 335 354 339 369 q 325 325 331 339 m 446 565 q 399 539 411 556 q 385 478 388 522 q 427 513 417 488 q 446 565 438 538 m 272 183 q 322 220 304 199 q 339 274 339 242 q 339 283 339 278 q 338 292 339 288 q 287 249 297 278 q 272 183 276 219 m 124 1146 q 67 1074 89 1114 q 25 985 46 1033 q 65 1021 50 1001 q 91 1061 81 1040 q 109 1103 101 1082 q 124 1146 117 1125 m 456 769 q 503 807 490 793 q 515 844 515 821 q 511 882 515 858 q 454 786 454 854 q 455 778 454 782 q 456 769 456 774 m 426 618 q 478 657 464 638 q 492 715 492 676 q 491 726 492 721 q 490 739 490 732 q 440 688 454 719 q 426 618 426 657 m 586 81 q 560 85 571 83 q 540 86 549 86 q 508 75 521 86 q 472 35 496 64 q 504 30 492 32 q 528 28 517 28 q 558 39 549 28 q 586 81 568 50 m 351 1125 q 379 1110 369 1115 q 396 1106 389 1106 q 409 1110 403 1106 q 426 1125 415 1115 q 444 1140 435 1132 q 460 1156 453 1147 q 468 1172 468 1164 q 450 1188 468 1183 q 433 1189 444 1189 q 413 1182 421 1189 q 351 1125 381 1154 m 324 38 q 368 29 349 29 q 417 43 396 29 q 456 83 438 57 q 403 96 422 96 q 367 83 383 96 q 324 38 351 69 m 269 54 q 321 90 306 78 q 336 115 336 101 q 331 134 336 124 q 318 161 326 144 q 271 125 285 139 q 257 94 257 111 q 269 54 257 79 m 75 965 q 27 918 40 936 q 14 875 14 900 q 22 822 14 856 q 49 848 39 838 q 66 868 60 858 q 75 888 72 878 q 78 913 78 897 q 77 936 78 924 q 75 965 76 949 m 454 1025 q 489 1056 474 1042 q 519 1085 504 1071 q 532 1107 532 1094 q 519 1133 532 1118 q 504 1142 513 1142 q 492 1138 497 1142 q 482 1128 488 1133 q 468 1115 475 1121 q 454 1101 461 1108 q 437 1083 443 1090 q 431 1069 431 1076 q 437 1053 431 1063 q 454 1025 443 1043 m 471 907 q 505 929 492 919 q 526 949 518 939 q 537 972 533 960 q 540 1003 540 985 q 540 1021 540 1011 q 538 1042 539 1031 q 481 1001 497 1018 q 464 956 464 983 q 471 907 464 939 m 89 832 q 46 782 60 801 q 32 747 32 763 q 40 721 32 733 q 64 692 49 708 q 98 732 82 711 q 114 776 114 753 q 89 832 114 803 m 456 -11 q 442 -12 449 -12 q 429 -12 436 -12 q 367 -8 400 -12 q 300 -1 333 -4 q 219 81 219 7 l 219 92 q 234 197 222 144 q 268 299 246 250 q 326 442 297 361 q 382 608 354 522 q 411 737 401 672 q 429 868 421 801 q 431 883 431 875 q 431 897 431 890 q 426 951 431 925 q 417 1001 422 976 q 372 1067 408 1042 q 293 1092 335 1092 q 280 1092 286 1092 q 267 1089 274 1092 q 232 1056 240 1081 q 214 999 221 1028 q 207 943 207 971 q 233 839 207 890 q 253 771 253 803 q 218 690 253 728 q 162 656 197 668 q 94 643 126 643 q 50 651 68 643 q 14 692 22 665 q -14 785 -4 739 q -24 881 -24 832 q -14 970 -24 925 q 19 1061 -4 1015 q 174 1244 78 1182 q 399 1324 269 1306 q 533 1332 465 1332 q 619 1329 576 1332 q 707 1321 663 1326 q 785 1294 747 1315 q 851 1240 822 1272 q 900 1167 881 1208 q 924 1081 919 1125 q 925 1060 925 1069 q 925 1039 925 1050 q 925 1017 925 1028 q 922 996 925 1007 q 906 874 914 935 q 886 751 897 814 q 828 533 867 638 q 753 342 789 429 q 725 263 736 303 q 711 181 714 224 q 701 128 710 153 q 682 79 693 103 q 558 -6 644 1 q 511 -8 535 -7 q 456 -11 488 -8 m 563 -433 q 526 -429 539 -429 q 503 -440 511 -429 q 481 -482 494 -450 q 517 -486 506 -486 q 541 -476 533 -486 q 563 -433 549 -465 m 594 -481 q 643 -468 628 -481 q 669 -421 658 -456 q 638 -422 649 -421 q 619 -429 626 -424 q 604 -447 611 -435 q 588 -481 597 -458 l 594 -481 m 458 -431 q 445 -429 451 -429 q 433 -429 439 -429 q 415 -432 422 -429 q 401 -441 407 -435 q 389 -459 394 -447 q 375 -489 383 -471 q 407 -494 393 -494 q 433 -480 425 -494 q 458 -431 440 -465 m 311 -60 q 262 -79 278 -64 q 246 -126 246 -94 q 250 -167 246 -144 q 269 -140 258 -151 q 288 -116 279 -128 q 304 -92 297 -104 q 311 -62 311 -79 l 311 -60 m 243 -286 q 293 -243 278 -262 q 308 -199 308 -224 q 301 -160 308 -185 q 260 -208 281 -183 q 240 -265 240 -232 q 243 -286 240 -272 m 269 -478 q 310 -486 299 -486 q 328 -478 321 -486 q 350 -450 336 -469 q 360 -429 360 -436 q 343 -407 360 -419 q 329 -401 336 -401 q 317 -406 322 -401 q 308 -418 313 -411 q 290 -447 299 -432 q 269 -478 281 -461 m 307 -285 q 256 -344 271 -324 q 240 -385 240 -365 q 244 -406 240 -396 q 253 -432 247 -417 q 272 -406 261 -418 q 292 -380 282 -393 q 308 -352 301 -367 q 314 -321 314 -337 q 307 -285 314 -303 m 482 -14 q 528 -13 506 -14 q 575 -12 551 -12 q 599 -12 586 -12 q 622 -14 611 -12 q 691 -37 671 -17 q 713 -108 711 -57 l 713 -214 q 716 -272 714 -243 q 725 -331 718 -301 q 729 -362 729 -346 q 719 -420 729 -392 q 690 -472 708 -449 q 644 -510 671 -496 q 585 -525 618 -525 l 578 -525 q 556 -524 567 -524 q 535 -524 546 -524 q 453 -526 494 -524 q 372 -528 413 -528 l 342 -528 q 274 -522 300 -526 q 234 -505 249 -518 q 214 -467 219 -492 q 207 -399 208 -442 q 205 -334 206 -367 q 204 -269 204 -301 q 205 -205 204 -237 q 206 -140 206 -172 q 336 -14 210 -15 l 482 -14 z "},"@":{"ha":1508,"x_min":-33,"x_max":1435,"o":"m 435 1183 q 471 1199 456 1183 q 457 1201 465 1201 q 440 1197 447 1201 q 421 1185 432 1192 l 435 1183 m 1181 -242 q 1201 -231 1194 -235 q 1208 -222 1208 -228 q 1200 -215 1208 -218 q 1189 -223 1193 -215 q 1181 -242 1185 -231 m 1013 386 q 1031 404 1031 386 q 1030 413 1031 408 q 1025 417 1029 417 q 1003 394 1008 411 q 1013 386 1003 389 m 1182 -75 q 1203 -59 1197 -69 q 1215 -29 1208 -49 q 1192 -50 1200 -40 q 1182 -75 1183 -60 m 733 208 q 764 240 761 213 q 754 246 764 246 q 731 231 731 244 q 732 219 731 225 q 733 208 733 214 m 563 1206 q 587 1211 575 1206 q 607 1233 599 1217 q 568 1229 586 1233 q 536 1208 550 1225 l 563 1206 m 661 1221 q 690 1224 679 1222 q 706 1228 700 1225 q 717 1237 713 1231 q 728 1254 721 1243 q 704 1258 715 1258 q 661 1221 675 1258 m 776 958 q 815 981 803 965 q 835 1014 826 996 q 797 999 814 1008 q 776 958 779 989 m 1292 -471 q 1326 -447 1311 -460 q 1351 -414 1340 -435 q 1306 -428 1318 -417 q 1292 -471 1294 -439 m 1107 -471 q 1135 -461 1128 -471 q 1156 -419 1142 -451 l 1151 -419 q 1110 -433 1124 -419 q 1085 -469 1096 -447 l 1107 -471 m 793 181 q 830 199 818 181 q 857 233 842 217 l 839 236 q 817 231 826 236 q 801 217 808 225 q 789 201 794 210 q 775 183 783 192 l 793 181 m 981 -493 q 1023 -483 1008 -493 q 1044 -446 1038 -472 l 1028 -443 q 995 -457 1007 -443 q 975 -493 983 -471 l 981 -493 m 524 -272 q 559 -264 543 -272 q 585 -229 575 -256 q 572 -226 578 -226 q 560 -226 565 -226 q 500 -271 518 -226 l 524 -272 m 889 -504 q 910 -503 901 -504 q 923 -496 918 -501 q 933 -481 928 -490 q 944 -456 938 -472 l 919 -454 q 894 -463 901 -454 q 869 -504 886 -472 l 889 -504 m 682 -519 q 709 -510 703 -519 q 726 -475 715 -501 l 699 -474 q 666 -481 681 -474 q 644 -517 651 -489 l 682 -519 m 785 -514 q 822 -501 808 -514 q 842 -465 835 -487 q 822 -461 831 -462 q 807 -460 814 -460 q 785 -471 792 -460 q 764 -511 778 -482 l 785 -514 m 1214 -468 q 1240 -458 1233 -468 q 1256 -418 1246 -447 l 1229 -415 q 1206 -425 1214 -415 q 1182 -465 1197 -435 q 1200 -467 1193 -467 q 1214 -468 1207 -468 m 815 1228 q 840 1237 833 1228 q 858 1269 847 1246 q 833 1267 846 1267 q 809 1265 821 1267 q 788 1256 797 1263 q 772 1232 778 1249 q 815 1228 801 1228 m 869 956 q 894 963 883 956 q 913 980 904 969 q 931 1002 922 990 q 953 1024 940 1014 l 936 1025 q 906 1018 918 1025 q 885 1001 894 1011 q 869 978 876 990 q 853 958 861 967 l 869 956 m 907 192 q 928 194 919 192 q 944 201 936 196 q 960 217 951 207 q 983 243 969 226 l 965 243 q 938 241 949 243 q 918 234 926 239 q 902 219 910 229 q 883 193 894 210 l 907 192 m 515 -539 q 543 -537 529 -537 q 569 -533 557 -536 q 592 -519 582 -529 q 608 -487 601 -508 q 578 -490 593 -490 q 550 -494 563 -490 q 528 -508 538 -497 q 515 -539 519 -518 m 426 -276 q 449 -267 442 -276 q 468 -231 456 -257 q 451 -228 458 -229 q 438 -228 444 -228 q 414 -236 422 -228 q 386 -271 406 -244 q 426 -276 410 -276 m 1057 -303 q 1081 -296 1071 -303 q 1099 -279 1090 -289 q 1115 -258 1107 -269 q 1135 -236 1124 -246 l 1104 -233 q 1070 -247 1081 -233 q 1043 -301 1060 -261 l 1057 -303 m 300 56 q 328 79 317 69 q 345 97 339 89 q 353 111 351 104 q 356 129 356 118 l 354 157 q 307 122 319 133 q 294 93 294 110 q 296 77 294 86 q 300 56 297 68 m 319 -269 q 335 -263 325 -269 q 353 -249 344 -257 q 369 -231 363 -240 q 375 -214 375 -221 q 351 -186 374 -194 q 336 -197 344 -186 q 311 -224 325 -210 q 297 -251 297 -239 q 319 -269 297 -267 m 969 547 q 1020 593 1004 576 q 1036 626 1036 610 q 1026 658 1036 640 q 997 635 1008 644 q 979 617 986 625 q 969 599 972 608 q 967 578 967 590 l 969 547 m 318 -549 q 340 -535 331 -549 q 365 -490 349 -522 q 344 -478 353 -483 q 328 -474 335 -474 q 306 -488 317 -474 q 279 -536 296 -503 q 302 -545 293 -542 q 318 -549 311 -549 m 422 -550 q 460 -541 451 -550 q 479 -500 468 -532 q 450 -496 463 -497 q 429 -494 438 -494 q 401 -506 407 -494 q 388 -549 394 -517 l 422 -550 m 286 533 q 337 577 322 563 q 351 607 351 592 q 349 623 351 614 q 342 643 346 632 q 301 609 321 626 q 281 563 281 592 q 286 533 281 549 m 46 940 q 101 985 86 956 q 119 1057 117 1015 q 84 1036 97 1049 q 64 1008 71 1024 q 53 976 57 993 q 46 940 50 958 m 150 -464 q 162 -456 154 -464 q 177 -439 169 -449 q 190 -419 185 -429 q 196 -406 196 -410 q 184 -388 194 -394 q 165 -378 174 -382 q 153 -385 161 -378 q 136 -403 144 -393 q 121 -422 128 -412 q 114 -433 114 -431 q 128 -452 114 -440 q 149 -464 142 -464 l 150 -464 m 1063 1182 q 1085 1194 1075 1182 q 1113 1232 1094 1206 q 1083 1243 1094 1239 q 1063 1247 1072 1247 q 1039 1238 1050 1247 q 1007 1207 1028 1229 q 1040 1189 1028 1196 q 1063 1182 1053 1182 m 939 1214 q 993 1258 972 1214 q 940 1272 957 1272 q 915 1262 925 1272 q 892 1228 906 1251 q 939 1214 918 1214 m 286 761 q 314 788 299 775 q 342 813 329 800 q 364 842 356 826 q 372 881 372 858 l 369 903 q 340 876 354 889 q 313 849 325 864 q 294 817 301 835 q 286 775 286 799 l 286 761 m 969 419 q 991 442 979 432 q 1013 464 1003 453 q 1028 488 1022 475 q 1035 515 1035 500 q 1031 540 1035 525 q 979 503 994 519 q 964 461 964 488 q 965 442 964 453 q 969 419 967 432 m 85 -403 q 121 -365 110 -378 q 132 -340 132 -351 q 106 -296 132 -326 q 71 -342 82 -326 q 60 -368 60 -357 q 66 -384 60 -376 q 85 -403 72 -392 m 288 -189 q 324 -158 310 -171 q 344 -136 338 -146 q 354 -117 351 -126 q 357 -94 357 -108 l 356 -69 q 298 -118 314 -101 q 282 -156 282 -135 q 288 -189 282 -171 m 286 -78 q 311 -55 299 -65 q 334 -34 324 -44 q 351 -10 344 -24 q 358 19 358 3 q 354 49 358 32 q 329 26 342 38 q 307 3 317 15 q 291 -25 297 -10 q 285 -61 285 -40 l 286 -78 m 296 168 q 345 204 332 192 q 358 236 358 217 q 356 256 358 246 q 351 282 354 267 q 310 244 331 263 q 290 197 290 226 q 292 183 290 190 q 296 168 293 176 m 1222 463 q 1278 505 1263 490 q 1294 539 1294 519 q 1286 578 1294 553 q 1263 559 1275 568 q 1241 540 1251 550 q 1224 518 1231 531 q 1218 489 1218 506 q 1222 463 1218 476 m 285 651 q 342 694 325 678 q 360 729 360 710 q 347 771 360 746 q 327 750 339 760 q 305 730 315 740 q 288 707 294 719 q 281 678 281 694 q 285 651 281 665 m 297 283 q 338 324 317 304 q 358 375 358 343 q 349 415 358 394 q 331 390 342 401 q 312 368 321 379 q 296 345 303 357 q 289 318 289 333 q 297 283 289 304 m 1219 815 q 1278 859 1261 844 q 1296 889 1296 874 q 1292 906 1296 897 q 1282 928 1289 915 q 1236 892 1258 910 q 1214 844 1214 875 q 1219 815 1214 831 m 233 -515 q 254 -501 244 -515 q 283 -453 264 -486 q 256 -436 267 -442 q 238 -431 244 -431 q 217 -444 226 -431 q 190 -489 207 -457 q 215 -508 206 -501 q 233 -515 225 -515 m 318 917 q 385 974 353 943 q 428 1063 417 1006 q 355 999 381 1035 q 318 917 329 963 m 294 404 q 315 426 304 415 q 334 447 325 436 q 349 471 343 458 q 356 499 356 483 q 346 539 356 518 q 325 515 336 526 q 305 493 314 504 q 290 470 296 482 q 283 443 283 458 q 294 404 283 429 m 15 772 q 66 823 43 797 q 89 888 89 849 q 89 901 89 894 q 86 914 89 907 q 15 788 15 869 l 15 772 m 964 778 q 982 800 971 790 q 1003 820 993 810 q 1019 842 1013 831 q 1026 871 1026 854 q 1019 903 1026 888 q 963 853 979 872 q 946 819 946 835 q 964 778 946 804 m 954 -36 q 1013 25 997 6 q 1029 64 1029 44 q 1028 79 1029 71 q 1024 99 1026 88 q 960 28 976 49 q 943 -7 943 7 q 947 -20 943 -14 q 954 -36 950 -26 m 936 883 q 947 889 942 883 q 956 899 951 894 q 992 930 979 921 q 1004 954 1004 939 q 999 972 1004 961 q 982 1001 993 982 q 951 968 965 983 q 921 938 936 953 q 910 915 910 926 q 919 894 910 904 q 936 883 929 883 m 1211 926 q 1268 966 1251 950 q 1285 997 1285 982 q 1280 1017 1285 1007 q 1268 1043 1275 1028 q 1216 1000 1231 1015 q 1201 968 1201 985 q 1211 926 1201 951 m 1225 700 q 1249 720 1235 711 q 1274 739 1263 729 q 1294 761 1286 749 q 1303 793 1303 774 q 1299 821 1303 804 q 1235 778 1253 793 q 1218 739 1218 763 q 1225 700 1218 725 m 961 654 q 985 677 972 667 q 1010 699 999 688 q 1028 724 1021 711 q 1035 756 1035 738 q 1028 792 1035 774 q 1004 767 1017 779 q 981 744 992 756 q 963 718 969 732 q 956 686 956 704 q 961 654 956 671 m 1171 -19 q 1199 22 1183 3 q 1227 62 1214 42 q 1249 104 1240 82 q 1258 156 1258 126 q 1188 78 1210 111 q 1167 13 1167 46 q 1171 -19 1167 -3 m 951 82 q 1008 138 992 118 q 1024 178 1024 157 q 1018 210 1024 193 q 958 168 975 183 q 942 132 942 153 q 944 109 942 121 q 951 82 947 97 m 1185 1025 q 1194 1028 1192 1025 q 1237 1069 1215 1049 q 1258 1100 1258 1089 q 1251 1117 1258 1107 q 1229 1142 1244 1126 q 1187 1098 1208 1119 q 1165 1063 1165 1076 q 1185 1025 1165 1053 m 1213 168 q 1261 222 1236 196 q 1286 286 1286 249 q 1282 315 1286 299 q 1224 261 1242 283 q 1207 210 1207 239 q 1208 190 1207 200 q 1213 168 1210 179 m 1231 582 q 1281 624 1258 603 q 1304 682 1304 646 q 1300 710 1304 694 q 1238 660 1256 679 q 1219 621 1219 640 q 1231 582 1219 607 m 1147 1107 q 1184 1144 1164 1125 q 1204 1178 1204 1163 q 1192 1200 1204 1188 q 1181 1211 1186 1204 q 1167 1218 1175 1218 q 1156 1213 1161 1218 q 1124 1185 1138 1197 q 1106 1154 1110 1174 q 1118 1133 1106 1143 q 1138 1113 1131 1124 q 1147 1107 1138 1113 m 990 -292 q 997 -287 993 -292 q 1025 -252 1013 -271 q 1049 -214 1038 -233 q 1053 -200 1053 -208 q 1047 -179 1053 -189 q 1036 -157 1042 -169 q 996 -203 1011 -179 q 963 -249 981 -226 q 958 -260 958 -256 q 963 -272 958 -267 q 974 -282 968 -278 q 981 -288 976 -285 q 990 -292 985 -292 m 1219 321 q 1278 371 1260 351 q 1296 415 1296 390 q 1286 460 1296 435 q 1251 433 1265 444 q 1229 413 1238 422 q 1217 394 1221 403 q 1214 372 1214 385 q 1215 349 1214 361 q 1219 321 1217 338 m 33 -325 q 77 -267 61 -297 q 93 -201 93 -237 q 85 -149 93 -178 q 41 -209 61 -181 q 21 -274 21 -237 q 33 -325 21 -299 m 13 461 q 65 513 49 489 q 82 563 82 538 q 68 613 82 586 q 22 565 42 590 q 3 507 3 540 q 13 461 3 485 m 14 308 q 37 337 24 324 q 62 365 50 350 q 81 395 74 379 q 89 432 89 411 q 81 472 89 449 q 29 417 53 443 q 6 351 6 390 q 14 308 6 333 m 21 -4 q 68 51 44 24 q 92 117 92 79 q 83 156 92 135 q 28 104 44 126 q 13 51 13 82 q 21 -4 13 29 m 7 610 q 60 661 39 633 q 81 725 81 689 q 72 771 81 746 q 22 717 43 744 q 0 651 0 689 q 7 610 0 635 m 15 -164 q 89 -40 89 -110 q 81 7 89 -18 q 31 -54 53 -24 q 8 -124 8 -85 q 15 -164 8 -140 m 956 -193 q 978 -163 968 -178 q 1003 -136 989 -149 q 1033 -67 1033 -107 q 1026 -25 1033 -49 q 967 -85 986 -57 q 949 -147 949 -114 q 956 -193 949 -165 m 14 149 q 72 206 50 175 q 93 276 93 236 q 85 326 93 299 q 21 256 40 286 q 1 197 1 225 q 14 149 1 174 m 250 -261 q 242 -189 242 -222 q 243 -153 242 -169 q 246 -118 244 -136 q 253 6 249 -56 q 257 132 257 68 l 256 185 q 247 445 249 315 q 243 706 244 575 q 255 843 243 775 q 294 968 267 911 q 367 1066 322 1025 q 478 1122 411 1107 q 645 1156 561 1143 q 815 1168 729 1168 q 944 1160 879 1168 q 1065 1105 1021 1150 q 1132 995 1110 1060 q 1160 854 1154 931 q 1167 707 1167 778 q 1165 572 1167 633 q 1163 450 1164 510 q 1160 330 1161 390 q 1160 200 1160 269 q 1168 217 1167 208 q 1169 233 1169 225 q 1179 404 1176 319 q 1182 575 1182 489 q 1181 694 1182 635 q 1179 813 1181 753 q 1164 934 1178 875 q 1126 1051 1150 993 q 1071 1128 1107 1100 q 986 1169 1035 1157 q 914 1184 950 1178 q 842 1190 878 1190 q 722 1187 779 1190 q 607 1176 664 1183 q 490 1157 550 1169 q 367 1124 431 1144 q 290 1078 318 1108 q 246 1004 261 1049 q 216 858 224 935 q 208 711 208 781 q 212 581 210 642 q 216 463 214 521 q 219 347 218 406 q 221 222 221 289 l 218 54 q 219 -60 218 -4 q 222 -172 221 -115 q 226 -215 224 -193 q 250 -261 228 -237 m 893 369 q 918 377 914 369 q 924 413 922 385 q 926 455 925 433 q 926 497 926 476 q 921 649 926 574 q 911 800 915 724 q 903 846 911 824 q 882 886 896 868 q 849 915 868 904 q 808 925 831 925 q 768 918 789 925 q 747 894 749 913 q 744 861 746 876 q 733 760 736 811 q 731 658 731 710 l 731 413 q 738 385 731 394 q 767 375 746 376 q 828 373 800 375 q 893 369 857 371 m 511 -365 q 723 -340 618 -356 q 935 -318 828 -325 q 944 -311 938 -318 q 918 -253 925 -283 q 911 -190 911 -222 l 911 -178 q 911 -67 911 -122 q 910 42 911 -12 q 907 83 908 63 q 903 125 906 104 q 897 144 901 138 q 879 150 893 150 q 831 146 853 149 q 782 143 810 143 l 768 143 q 738 135 746 143 q 729 104 729 126 q 731 3 731 53 q 731 -99 731 -47 q 729 -137 731 -118 q 724 -176 728 -157 q 578 -306 701 -293 q 504 -311 542 -308 q 431 -314 467 -314 q 314 -306 372 -314 q 317 -314 315 -312 q 322 -319 319 -317 q 329 -325 325 -322 q 404 -357 365 -347 q 483 -367 443 -367 l 511 -365 m 369 -587 q 263 -573 313 -587 q 171 -531 214 -558 q 91 -467 128 -504 q 21 -386 54 -431 q -12 -300 -8 -346 q -21 -208 -17 -254 q -24 -154 -24 -181 q -24 -100 -24 -128 l -24 -39 q -26 49 -25 13 q -29 117 -28 85 q -31 184 -31 150 q -32 267 -32 218 l -31 451 l -33 638 q -19 820 -33 731 q 22 999 -4 910 q 46 1056 31 1031 q 81 1107 61 1082 q 256 1256 158 1201 q 464 1341 354 1311 q 689 1383 574 1371 q 917 1403 804 1394 l 932 1403 q 983 1397 961 1403 l 1160 1361 q 1263 1310 1218 1347 q 1340 1220 1308 1272 q 1391 1107 1372 1168 q 1417 988 1410 1046 q 1429 862 1424 925 q 1435 735 1435 799 q 1431 640 1435 688 q 1425 475 1424 557 q 1419 310 1426 393 q 1383 96 1411 200 q 1326 -112 1356 -8 q 1292 -182 1315 -150 q 1242 -243 1269 -214 q 1226 -258 1235 -250 q 1211 -281 1217 -265 l 1338 -281 q 1401 -297 1379 -281 q 1422 -343 1422 -314 q 1410 -394 1422 -365 q 1376 -448 1397 -422 q 1326 -491 1354 -474 q 1268 -508 1299 -508 q 1232 -507 1249 -508 q 1196 -506 1215 -506 q 1081 -514 1138 -506 q 968 -536 1025 -522 q 897 -546 933 -544 q 824 -549 860 -547 q 708 -556 764 -550 q 599 -567 653 -561 q 493 -579 546 -574 q 388 -587 440 -585 l 369 -587 z "},"A":{"ha":1086,"x_min":-28,"x_max":1014,"o":"m 443 -418 q 423 -435 431 -426 q 415 -460 415 -444 l 415 -462 q 436 -449 428 -456 q 444 -428 444 -443 q 444 -423 444 -425 q 443 -418 443 -421 m 493 156 q 516 177 507 167 q 531 201 525 188 q 513 206 519 204 q 500 207 506 207 q 488 193 488 207 q 489 177 488 186 q 493 156 490 168 m 961 -428 q 933 -424 942 -424 q 917 -433 921 -424 q 910 -465 914 -442 q 944 -458 929 -464 q 961 -428 958 -451 m 153 1247 q 103 1208 122 1232 q 74 1144 83 1185 q 124 1192 101 1171 q 153 1247 147 1213 m 592 1204 q 565 1208 576 1208 q 517 1176 531 1208 q 514 1165 514 1171 q 515 1160 514 1161 q 526 1153 518 1153 q 535 1154 532 1153 q 565 1172 554 1158 q 592 1204 576 1186 m 378 -432 q 363 -430 369 -431 q 351 -429 357 -429 q 326 -441 333 -429 q 310 -485 319 -453 q 326 -487 324 -487 q 358 -470 347 -487 q 378 -432 368 -453 m 546 142 q 599 160 582 142 q 633 203 617 179 q 622 205 626 204 q 613 206 617 206 q 569 185 583 206 q 536 142 554 165 l 546 142 m 754 214 q 694 199 715 214 q 657 151 672 185 l 676 151 q 699 153 690 151 q 715 162 707 156 q 732 181 724 168 q 754 214 740 193 m 281 -433 q 240 -429 253 -429 q 213 -440 221 -429 q 192 -483 204 -451 q 232 -487 218 -487 q 260 -476 251 -487 q 281 -433 268 -465 m 694 1181 q 651 1201 663 1201 q 628 1188 639 1201 q 597 1144 617 1175 q 633 1122 624 1122 q 663 1144 642 1122 q 677 1161 669 1153 q 694 1181 685 1169 m 865 -357 q 842 -397 853 -379 q 822 -435 832 -415 q 819 -443 819 -440 q 826 -456 819 -451 q 839 -465 832 -461 q 850 -468 843 -468 q 865 -456 858 -468 q 878 -428 871 -442 q 885 -399 885 -414 q 865 -357 885 -378 m 774 -43 q 816 14 804 -6 q 828 50 828 33 q 818 86 828 65 q 784 41 803 63 q 765 -10 765 19 q 774 -43 765 -25 m 169 -431 q 129 -407 140 -407 q 116 -417 121 -407 q 103 -443 111 -428 q 93 -458 99 -450 q 88 -474 88 -465 q 89 -482 88 -479 q 103 -483 97 -483 q 115 -483 110 -483 q 144 -473 135 -483 q 169 -431 153 -462 m 696 1050 q 732 1086 721 1074 q 743 1108 743 1099 q 736 1124 743 1115 q 718 1144 729 1132 q 683 1113 694 1124 q 672 1092 672 1103 q 696 1050 672 1081 m 104 22 q 81 0 92 10 q 61 -23 69 -10 q 48 -56 53 -36 q 43 -107 43 -75 l 43 -114 q 44 -132 43 -125 q 74 -109 63 -119 q 94 -87 86 -99 q 104 -58 101 -75 q 107 -17 107 -42 q 106 1 107 -8 q 104 22 106 11 m 100 1108 q 47 1055 61 1086 q 32 983 32 1024 l 32 976 q 84 1032 68 1000 q 100 1108 100 1064 m 833 453 q 799 419 813 438 q 769 386 785 401 q 763 371 763 379 q 776 354 763 360 q 788 353 779 353 q 817 363 803 353 q 835 389 832 374 q 837 403 836 396 q 838 421 838 411 q 833 453 838 436 m 753 707 q 803 765 789 744 q 818 804 818 786 q 807 844 818 819 q 768 795 788 819 q 749 736 749 771 q 753 707 749 724 m 796 965 q 752 908 765 928 q 739 871 739 888 q 742 855 739 863 q 751 836 746 847 q 794 889 781 872 q 807 924 807 906 q 804 942 807 932 q 796 965 801 951 m 771 1067 q 725 1024 739 1040 q 711 992 711 1007 q 717 970 711 981 q 733 944 722 960 q 746 967 738 957 q 762 987 754 976 q 776 1008 769 997 q 782 1033 782 1019 q 771 1067 782 1050 m 806 -383 q 840 -328 821 -354 q 858 -268 858 -301 l 858 -265 q 850 -235 858 -254 q 817 -290 836 -265 q 796 -342 797 -315 q 806 -383 796 -362 m 43 -300 q 94 -244 78 -264 q 110 -203 110 -224 q 108 -181 110 -193 q 100 -136 106 -168 q 58 -184 78 -160 q 39 -243 39 -208 q 40 -281 39 -269 q 43 -300 40 -292 m 46 192 q 90 228 78 215 q 103 261 103 242 q 100 285 103 272 q 93 318 97 299 q 40 231 40 282 q 46 192 40 210 m 763 567 q 807 622 785 597 q 829 682 829 647 q 819 724 829 703 q 778 667 799 694 q 758 600 758 640 q 763 567 758 585 m 768 85 q 805 130 786 108 q 824 182 824 151 q 815 221 824 200 q 794 199 806 210 q 774 176 783 188 q 760 153 765 165 q 754 128 754 142 q 768 85 754 108 m 835 -18 q 817 -47 828 -33 q 798 -73 807 -60 q 783 -101 789 -86 q 776 -132 776 -115 q 785 -168 776 -147 q 801 -139 792 -153 q 820 -111 811 -125 q 835 -83 829 -97 q 842 -51 842 -68 q 835 -18 842 -36 m 103 -296 q 64 -342 79 -319 q 47 -387 49 -365 q 60 -437 47 -411 q 94 -385 79 -411 q 108 -328 108 -360 l 108 -325 q 107 -312 108 -319 q 103 -296 106 -304 m 832 583 q 760 476 760 521 q 768 442 760 460 q 814 491 790 468 q 838 550 838 514 q 832 583 838 567 m 33 489 q 74 538 60 513 q 89 594 89 563 q 82 638 89 613 q 32 588 46 608 q 18 547 18 567 q 22 521 18 535 q 33 489 26 507 m 72 950 q 35 917 47 935 q 18 877 24 899 q 12 833 13 856 q 8 785 11 810 q 61 840 44 811 q 78 904 78 869 q 72 950 78 929 m 89 485 q 32 385 32 440 q 42 332 32 357 q 85 374 74 350 q 96 426 96 399 q 89 485 96 450 m 104 181 q 56 134 69 160 q 43 78 43 108 q 44 55 43 67 q 49 31 46 43 q 97 72 85 47 q 110 128 110 97 q 108 153 110 140 q 104 181 107 167 m 15 638 q 68 688 51 667 q 85 733 85 710 q 69 785 85 754 q 22 735 35 751 q 8 694 8 718 q 10 670 8 683 q 15 638 13 657 m 465 676 l 465 642 q 469 510 467 575 q 476 378 471 444 q 486 348 478 356 q 517 340 494 340 q 567 339 542 340 q 617 338 592 338 q 679 342 647 338 q 718 350 708 346 q 728 369 728 354 q 727 381 728 375 q 725 396 726 388 q 719 500 719 447 q 717 606 718 553 q 715 710 717 658 q 706 815 713 763 q 690 910 699 864 q 669 1003 682 957 q 632 1069 658 1043 q 571 1111 606 1094 q 533 1121 553 1121 q 475 1067 490 1121 q 456 910 456 986 l 456 894 q 460 785 458 840 q 463 676 461 731 l 465 676 m 967 518 q 968 489 968 503 q 968 461 968 475 q 960 322 968 389 q 956 263 957 293 q 954 204 954 233 q 956 132 954 168 q 964 60 958 96 q 971 3 968 32 q 976 -59 974 -25 q 982 -135 979 -93 q 989 -233 985 -178 q 994 -288 990 -261 q 1006 -336 997 -315 q 1014 -381 1014 -360 q 1006 -424 1014 -404 q 986 -464 999 -444 q 931 -503 965 -497 q 864 -510 897 -510 l 856 -510 q 805 -487 828 -510 q 775 -435 782 -464 q 757 -341 764 -394 q 744 -230 750 -287 q 735 -117 739 -172 q 729 -17 732 -61 q 727 33 728 8 q 725 85 726 58 q 694 115 725 115 q 600 109 647 113 q 504 103 553 106 q 490 94 493 101 q 488 78 488 88 l 489 -240 q 490 -303 489 -272 q 494 -360 492 -333 q 496 -374 496 -367 q 496 -387 496 -381 q 464 -477 496 -443 q 374 -518 432 -511 q 229 -526 303 -526 q 156 -525 193 -526 q 83 -521 119 -524 q 38 -495 51 -518 q 19 -446 25 -472 q 9 -372 13 -407 q 1 -299 6 -337 q 1 -278 1 -287 q 0 -258 0 -269 q 1 -239 0 -249 q 1 -219 1 -229 q 8 -53 6 -122 q 10 76 10 15 q 3 303 10 190 q -17 531 -4 417 q -25 621 -22 575 q -28 711 -28 667 q -28 752 -28 732 q -25 793 -28 772 q -9 968 -18 881 q 29 1142 0 1056 q 92 1249 51 1207 q 200 1310 132 1290 q 356 1338 278 1332 q 513 1343 433 1343 l 532 1343 q 573 1342 553 1343 q 613 1342 593 1342 l 621 1342 q 731 1315 683 1342 q 817 1242 778 1289 q 902 1090 875 1171 q 940 922 929 1010 q 958 716 953 818 q 967 518 964 614 m 842 -131 q 824 -159 835 -146 q 805 -185 814 -172 q 790 -213 796 -199 q 783 -244 783 -228 q 792 -281 783 -260 q 808 -251 799 -265 q 827 -224 818 -237 q 842 -195 836 -210 q 849 -164 849 -181 q 842 -131 849 -149 z "},"B":{"ha":1029,"x_min":-22,"x_max":947,"o":"m 722 -372 q 682 -392 694 -375 q 658 -428 669 -408 q 687 -423 676 -425 q 703 -416 697 -421 q 713 -401 708 -411 q 722 -372 717 -390 m 18 1139 q 57 1172 39 1154 q 90 1213 75 1189 q 54 1201 68 1207 q 33 1188 40 1196 q 22 1167 25 1179 q 18 1139 18 1156 m 515 175 q 476 171 488 174 q 464 157 464 168 q 467 142 464 150 q 474 118 469 133 q 495 143 485 131 q 515 175 506 156 m 796 -129 q 762 -152 776 -140 q 747 -187 747 -164 q 749 -201 747 -196 q 796 -129 789 -178 m 628 192 q 597 188 608 190 q 577 181 585 186 q 564 165 569 175 q 550 136 558 154 q 596 152 579 136 q 628 192 613 168 m 483 1121 q 522 1149 504 1133 q 550 1189 539 1165 q 494 1181 514 1183 q 475 1157 475 1178 q 483 1121 475 1143 m 808 75 q 769 34 778 46 q 760 4 760 22 q 760 -5 760 0 q 761 -17 761 -10 q 797 10 781 -3 q 814 47 814 24 q 808 75 814 63 m 78 365 q 45 342 54 350 q 36 321 36 335 q 38 305 36 314 q 43 281 40 296 q 83 338 83 301 q 82 351 83 344 q 78 365 81 358 m 81 506 q 33 431 33 469 q 40 397 33 413 q 76 422 68 406 q 83 458 83 438 q 83 481 83 469 q 81 506 82 493 m 617 -404 q 587 -413 603 -412 q 556 -417 571 -414 q 529 -428 542 -419 q 510 -461 517 -437 q 543 -460 526 -460 q 574 -456 560 -460 q 599 -440 589 -451 q 617 -404 610 -429 m 254 -472 q 275 -476 265 -475 q 292 -478 285 -478 q 323 -465 313 -478 q 343 -421 333 -453 q 304 -417 318 -417 q 277 -428 285 -417 q 254 -472 269 -440 m 76 249 q 37 214 47 235 q 26 167 26 193 q 26 153 26 160 q 28 140 26 147 q 81 218 81 169 q 76 249 81 232 m 75 625 q 35 598 47 608 q 24 569 24 588 q 32 519 24 553 q 66 553 51 536 q 81 594 81 571 q 75 625 81 610 m 756 218 q 736 221 742 221 q 709 215 721 221 q 688 198 697 208 q 670 176 679 188 q 651 153 661 164 q 681 147 667 147 q 706 155 696 147 q 724 174 717 163 q 739 197 732 185 q 756 218 746 208 m 75 1014 q 31 980 50 997 q 13 935 13 963 q 21 899 13 919 q 61 936 42 918 q 81 985 81 954 q 75 1014 81 999 m 700 542 q 661 515 676 531 q 636 482 646 500 q 620 442 626 464 q 608 399 614 421 q 667 463 644 431 q 700 542 689 496 m 86 1146 q 41 1105 61 1125 q 21 1054 21 1085 q 25 1029 21 1042 q 72 1065 54 1044 q 89 1119 89 1085 q 88 1133 89 1126 q 86 1146 88 1139 m 74 756 q 33 727 44 738 q 21 699 21 717 q 24 678 21 690 q 31 650 26 667 q 79 719 79 674 q 74 756 79 739 m 140 -458 q 189 -467 174 -467 q 215 -453 207 -467 q 236 -407 224 -440 q 217 -402 225 -404 q 203 -400 210 -400 q 174 -413 188 -400 q 140 -458 161 -426 m 475 -422 q 429 -418 446 -418 q 397 -429 406 -418 q 374 -472 388 -440 q 395 -474 385 -474 q 414 -475 406 -475 q 458 -464 443 -475 q 475 -422 472 -453 m 72 899 q 35 855 53 875 q 17 810 17 835 q 25 778 17 796 q 78 857 78 804 q 72 899 78 878 m 796 192 q 767 169 778 185 q 746 142 757 154 q 733 125 738 131 q 728 113 728 119 q 754 76 728 103 q 797 125 782 108 q 811 157 811 142 q 796 192 811 172 m 74 119 q 18 26 18 82 q 19 9 18 18 q 24 -10 21 0 q 65 32 50 10 q 79 83 79 54 q 74 119 79 103 m 18 -135 q 65 -99 50 -115 q 79 -58 79 -82 q 76 -37 79 -47 q 69 -14 74 -26 q 42 -42 53 -31 q 26 -62 32 -53 q 17 -79 19 -71 q 15 -99 15 -87 q 16 -115 15 -106 q 18 -135 17 -124 m 722 700 q 674 654 693 678 q 654 599 654 631 q 658 569 654 583 q 709 610 694 585 q 724 672 724 636 q 724 686 724 679 q 722 700 724 693 m 661 1150 q 632 1173 643 1165 q 613 1181 621 1181 q 590 1168 601 1181 q 560 1129 579 1156 q 583 1109 571 1118 q 607 1089 594 1100 q 635 1117 622 1101 q 661 1150 647 1132 m 650 992 q 672 1011 664 999 q 692 1035 681 1024 q 713 1069 713 1057 q 706 1087 713 1078 q 683 1111 699 1096 q 642 1070 656 1086 q 629 1039 629 1054 q 635 1017 629 1028 q 650 992 640 1007 m 29 -362 q 70 -318 57 -339 q 83 -274 83 -297 q 83 -258 83 -262 q 75 -240 82 -253 q 49 -265 60 -256 q 30 -281 38 -275 q 19 -294 22 -287 q 15 -308 15 -300 q 19 -331 15 -318 q 29 -362 22 -343 m 669 713 q 722 763 706 740 q 739 811 739 786 q 726 857 739 832 q 683 806 703 832 q 664 746 664 781 q 669 713 664 729 m 97 -342 q 72 -374 83 -360 q 50 -404 61 -389 q 44 -418 44 -411 q 60 -436 44 -429 q 82 -442 74 -442 q 106 -432 96 -442 q 131 -405 118 -418 q 160 -376 144 -392 q 126 -359 140 -367 q 97 -342 113 -351 m 665 854 q 719 902 703 883 q 735 944 735 921 q 719 1006 735 967 q 673 957 692 982 q 654 900 654 932 q 665 854 654 881 m 464 -103 q 464 -115 464 -108 q 464 -135 464 -122 q 465 -167 464 -147 q 465 -218 465 -186 q 477 -259 468 -249 q 517 -278 486 -269 q 556 -283 535 -283 q 618 -271 588 -283 q 676 -243 649 -258 q 697 -212 690 -235 q 707 -163 704 -190 q 710 -111 710 -136 q 714 -72 711 -86 q 718 -48 717 -61 q 721 -22 719 -35 l 721 -6 q 719 28 721 11 q 710 60 717 44 q 685 101 699 90 q 642 113 671 113 l 635 113 q 558 99 594 110 q 485 72 521 88 q 461 32 461 61 l 464 -103 m 467 326 q 519 342 506 336 q 542 364 533 349 q 585 449 565 406 q 613 540 604 492 q 629 742 629 640 q 626 831 629 786 q 619 919 624 875 q 606 991 615 956 q 578 1058 597 1026 q 532 1090 558 1090 q 501 1086 519 1090 q 472 1067 478 1082 q 465 1033 467 1053 q 465 1013 465 1022 q 464 993 464 1004 q 461 896 461 944 q 461 799 461 847 q 463 640 461 719 q 467 482 464 561 l 467 326 m 760 365 q 779 353 769 356 q 799 349 789 351 q 892 291 857 329 q 936 193 926 253 q 944 130 942 161 q 947 67 947 99 q 944 3 947 35 q 935 -65 942 -28 q 917 -145 928 -101 q 893 -244 907 -189 q 851 -333 871 -289 q 790 -410 831 -378 q 765 -431 778 -421 q 735 -447 751 -442 q 634 -478 685 -462 q 529 -499 583 -493 q 434 -506 481 -503 q 339 -512 388 -510 q 318 -514 328 -514 q 299 -514 308 -514 q 179 -504 238 -514 q 63 -475 121 -494 q 0 -411 14 -458 q -15 -345 -10 -378 q -21 -278 -21 -312 q -19 -115 -21 -190 q -16 29 -18 -39 q -10 160 -14 97 q -1 285 -7 224 q 0 309 0 297 q 0 333 0 321 q -1 388 0 361 q -4 443 -3 415 q -16 662 -11 553 q -21 881 -21 771 q -19 974 -21 928 q -15 1065 -18 1019 l -15 1079 q -19 1122 -15 1101 q -22 1135 -21 1129 q -22 1149 -22 1142 q -8 1198 -22 1176 q 33 1235 7 1219 q 151 1292 92 1268 q 278 1328 211 1315 q 340 1335 310 1333 q 403 1338 371 1338 q 494 1334 449 1338 q 586 1325 540 1331 q 753 1247 683 1314 q 846 1079 822 1181 q 864 968 858 1024 q 869 857 869 913 q 868 794 869 825 q 864 732 867 764 q 858 685 861 708 q 853 638 856 661 q 824 494 842 564 q 760 365 807 425 m 18 -246 q 65 -210 50 -226 q 79 -169 79 -193 q 78 -152 79 -158 q 74 -133 78 -146 q 46 -160 57 -150 q 28 -177 35 -169 q 18 -192 21 -185 q 15 -210 15 -199 q 16 -226 15 -217 q 18 -246 17 -235 m 810 -24 q 785 -47 794 -39 q 769 -60 775 -54 q 762 -74 764 -67 q 760 -93 760 -81 q 760 -102 760 -97 q 761 -114 761 -107 q 797 -90 781 -100 q 814 -50 814 -79 q 813 -37 814 -43 q 810 -24 813 -31 z "},"C":{"ha":1051,"x_min":-54,"x_max":979,"o":"m 840 -318 q 799 -342 818 -329 q 781 -387 781 -356 l 781 -390 q 818 -358 803 -375 q 840 -318 833 -342 m 754 932 q 765 929 760 929 q 774 929 769 929 q 796 933 785 929 q 817 942 807 936 q 830 949 824 944 q 836 961 836 954 q 832 971 836 967 q 820 983 826 978 q 807 988 814 988 q 790 979 799 988 q 768 958 779 968 q 754 932 757 949 m 658 1189 q 635 1197 644 1194 q 617 1200 625 1200 q 592 1187 601 1200 q 572 1144 582 1174 q 597 1138 589 1138 q 631 1156 619 1138 q 658 1189 643 1174 m 632 -467 q 676 -462 660 -465 q 701 -451 692 -458 q 715 -428 711 -443 q 724 -387 719 -412 q 666 -410 692 -394 q 632 -467 640 -426 m 224 1236 q 106 1113 125 1183 q 175 1163 142 1136 q 224 1236 208 1189 m 651 1117 q 666 1098 656 1106 q 688 1086 676 1090 l 689 1086 q 702 1092 693 1086 q 720 1107 711 1099 q 737 1124 729 1115 q 744 1136 744 1132 l 744 1138 q 740 1147 744 1142 q 730 1158 736 1153 q 717 1167 724 1163 q 704 1171 710 1171 q 691 1165 700 1171 q 673 1149 682 1158 q 658 1131 664 1140 q 651 1117 651 1122 m 831 203 q 783 167 799 183 q 767 125 767 151 q 769 103 767 114 q 776 76 772 92 q 829 128 815 113 q 843 158 843 144 q 839 176 843 167 q 831 203 835 186 m 753 -210 q 810 -142 789 -178 q 838 -60 831 -107 q 777 -117 801 -86 q 753 -197 753 -149 l 753 -210 m 350 -481 q 383 -487 369 -485 q 407 -490 397 -490 q 438 -476 428 -490 q 467 -425 449 -461 q 415 -421 433 -421 q 379 -433 390 -421 q 350 -481 368 -446 m 482 -486 q 504 -487 494 -487 q 522 -487 514 -487 q 553 -485 542 -487 q 574 -475 565 -482 q 588 -456 582 -468 q 603 -425 594 -444 q 554 -421 571 -421 q 517 -434 529 -421 q 482 -486 504 -447 m 194 -326 q 178 -348 185 -339 q 164 -367 171 -357 q 156 -378 160 -372 q 149 -390 153 -383 q 143 -407 143 -400 q 152 -426 143 -418 q 169 -440 161 -433 q 181 -446 175 -446 q 193 -437 189 -446 q 203 -424 197 -429 q 210 -412 207 -418 q 219 -401 214 -407 q 232 -378 232 -389 q 218 -354 232 -364 q 208 -344 213 -350 q 194 -326 203 -337 m 771 -62 q 831 -9 813 -28 q 849 33 849 10 q 839 78 849 53 q 804 49 818 61 q 782 27 790 38 q 771 6 774 17 q 768 -19 768 -6 q 769 -38 768 -28 q 771 -62 769 -49 m 775 1103 q 718 1026 718 1075 q 729 978 718 1004 q 774 1016 761 1001 q 788 1050 788 1031 q 775 1103 788 1067 m 336 -422 q 299 -410 314 -415 q 274 -406 285 -406 q 247 -420 256 -406 q 225 -469 239 -435 q 256 -478 244 -475 q 278 -482 268 -482 q 306 -469 294 -482 q 336 -422 317 -456 m 19 22 q 75 76 60 58 q 90 108 90 94 l 90 114 q 86 138 90 128 q 75 160 82 147 q 21 122 39 135 q 3 90 3 110 q 7 65 3 79 q 19 22 11 50 m 111 -369 q 156 -319 143 -336 q 169 -285 169 -301 q 165 -262 169 -275 q 151 -231 160 -250 q 105 -275 119 -256 q 90 -314 90 -294 q 111 -369 90 -336 m -6 300 q 60 357 42 338 q 78 397 78 376 q 75 424 78 413 q 67 450 72 435 q 39 428 53 439 q 13 406 25 418 q -6 378 1 393 q -12 344 -12 364 q -10 326 -12 336 q -6 300 -8 315 m 125 -101 q 69 -156 85 -137 q 53 -193 53 -174 q 58 -217 53 -204 q 71 -250 63 -231 q 123 -202 107 -219 q 139 -161 139 -185 q 135 -135 139 -150 q 125 -101 132 -121 m 28 928 q 112 997 89 963 q 135 1082 135 1031 q 28 928 33 1043 m 0 161 q 64 203 44 188 q 83 247 83 219 q 71 311 83 269 q 18 262 43 286 q -7 200 -7 238 q 0 161 -7 185 m 88 913 q 17 857 36 893 q -1 772 -1 821 l -1 760 q 68 809 47 778 q 89 885 89 840 q 89 899 89 892 q 88 913 89 906 m 99 38 q 41 -21 58 1 q 24 -65 24 -43 q 42 -121 24 -85 q 91 -74 69 -97 q 113 -15 113 -50 q 99 38 113 10 m -15 593 q 29 625 11 613 q 58 648 47 638 q 73 669 68 658 q 78 693 78 679 q 75 719 78 704 q 69 753 72 733 q 3 703 24 733 q -18 629 -18 674 q -17 612 -18 621 q -15 593 -17 603 m 69 601 q 0 550 21 569 q -21 503 -21 531 q -17 476 -21 492 q -8 442 -14 461 q 53 490 28 464 q 78 556 78 517 q 69 601 78 576 m 446 518 q 444 466 444 492 q 443 415 443 440 q 461 119 443 267 q 517 -187 479 -28 l 525 -221 q 558 -271 536 -254 q 606 -287 581 -287 q 679 -253 644 -287 q 712 -201 703 -229 q 724 -140 721 -172 q 732 9 733 -65 q 733 158 731 83 q 771 270 735 224 q 869 335 807 317 q 881 338 876 338 q 892 338 886 338 q 935 323 917 338 q 957 282 953 308 q 973 161 967 221 q 979 42 979 101 q 966 -110 979 -36 q 921 -260 953 -185 q 790 -439 872 -372 q 582 -518 708 -506 q 516 -522 549 -521 q 450 -524 483 -524 q 348 -521 399 -524 q 246 -514 297 -518 q 144 -469 189 -508 q 67 -370 96 -425 q 26 -251 39 -315 q -26 70 -8 -83 q -50 378 -44 224 q -53 461 -51 419 q -54 543 -54 503 q -51 657 -54 601 q -39 771 -47 713 q -10 936 -26 854 q 44 1096 6 1018 q 135 1217 81 1168 q 264 1301 189 1267 q 366 1334 315 1325 q 468 1343 417 1343 q 570 1338 519 1343 q 672 1325 621 1332 q 802 1272 746 1315 q 894 1160 858 1229 q 919 1064 919 1110 q 858 929 919 994 q 817 901 839 910 q 769 893 794 893 q 753 893 761 893 q 735 896 744 893 q 692 943 696 906 q 689 962 689 953 q 688 982 689 971 q 657 1058 685 1025 q 588 1103 629 1092 q 576 1106 581 1106 q 567 1106 571 1106 q 524 1075 540 1106 q 446 790 450 940 q 444 744 444 767 q 444 699 444 722 q 445 608 444 653 q 446 518 446 563 z "},"D":{"ha":988,"x_min":-47,"x_max":910,"o":"m 692 -356 q 647 -381 665 -365 q 618 -424 629 -396 q 639 -415 632 -421 q 651 -403 646 -410 q 672 -379 663 -392 q 692 -356 681 -367 m 108 1282 q 51 1245 69 1271 q 18 1183 33 1219 q 59 1211 43 1200 q 84 1233 75 1222 q 99 1254 93 1243 q 108 1282 104 1265 m 750 -32 q 693 -87 707 -54 q 679 -165 679 -121 q 726 -106 708 -137 q 750 -32 744 -75 m 567 -412 q 529 -417 543 -415 q 506 -424 515 -418 q 490 -442 497 -431 q 471 -475 482 -454 q 514 -472 499 -474 q 538 -463 529 -469 q 553 -445 547 -457 q 567 -412 558 -433 m 775 117 q 726 75 744 96 q 707 25 707 54 q 711 -3 707 11 q 765 41 754 10 q 775 117 775 72 m 713 117 q 758 154 738 136 q 779 200 779 172 q 772 232 779 214 q 720 206 735 217 q 706 171 706 194 q 708 147 706 160 q 713 117 710 135 m 64 660 q 10 621 25 636 q -6 586 -6 606 q 6 540 -6 571 q 25 563 14 553 q 47 583 36 572 q 64 604 57 593 q 71 631 71 615 q 64 660 71 642 m 761 642 q 708 614 722 624 q 694 585 694 604 q 703 535 694 569 q 752 563 739 553 q 765 596 765 572 q 761 642 765 613 m 569 1167 q 561 1178 567 1175 q 550 1183 556 1181 q 527 1190 538 1188 q 510 1193 517 1193 q 479 1150 479 1193 q 480 1140 479 1144 q 481 1129 481 1135 q 496 1108 482 1108 q 510 1114 503 1108 q 542 1137 526 1125 q 569 1167 557 1149 m 443 -431 q 420 -428 431 -429 q 401 -428 410 -428 q 357 -442 369 -428 q 333 -492 344 -456 q 367 -491 350 -492 q 398 -484 383 -490 q 424 -466 413 -478 q 443 -431 436 -454 m 67 788 q 9 744 26 761 q -8 707 -8 726 q 4 667 -8 692 q 51 704 29 685 q 72 757 72 724 q 71 772 72 764 q 67 788 69 779 m 711 250 q 760 276 744 265 q 775 313 775 288 q 767 363 775 329 q 718 330 732 344 q 704 293 704 315 q 711 250 704 278 m 15 4 q 41 28 29 17 q 67 49 53 39 q 96 100 96 69 q 88 138 96 118 q 26 97 43 114 q 10 51 10 81 q 11 31 10 42 q 15 4 13 19 m 74 549 q 17 501 35 521 q 0 460 0 482 q 13 414 0 440 q 44 442 32 431 q 65 463 57 453 q 75 481 72 472 q 78 503 78 490 q 74 549 78 519 m 75 922 q 7 871 26 889 q -12 832 -12 853 q -1 785 -12 815 q 25 808 11 797 q 51 831 39 819 q 72 858 64 843 q 79 892 79 872 q 75 922 79 906 m 182 -419 q 151 -397 163 -404 q 131 -390 139 -390 q 111 -400 121 -390 q 86 -431 101 -410 q 79 -439 83 -435 q 72 -447 75 -443 q 69 -456 69 -453 q 76 -467 69 -460 q 111 -478 92 -478 q 160 -456 142 -478 q 174 -439 167 -447 q 182 -419 181 -431 m 18 276 q 65 322 42 300 q 88 378 88 344 q 78 419 88 399 q 29 376 51 397 q 7 322 7 356 q 18 276 7 300 m 315 -428 q 257 -417 275 -417 q 222 -432 233 -417 q 194 -483 210 -447 q 247 -492 228 -492 q 288 -476 276 -492 q 315 -428 300 -460 m 15 140 q 76 183 60 168 q 93 222 93 199 q 90 249 93 233 q 81 286 86 265 q 33 235 56 260 q 10 175 10 211 q 15 140 10 157 m 94 1189 q 65 1165 79 1176 q 36 1144 51 1153 q 6 1115 14 1132 q -3 1076 -3 1097 q 1 1040 -3 1058 q 35 1066 18 1054 q 66 1091 51 1078 q 90 1120 81 1104 q 99 1158 99 1136 q 94 1189 99 1172 m -7 913 q 24 934 13 922 q 50 956 35 946 q 90 1021 90 979 q 86 1051 90 1035 q 59 1038 69 1049 q 35 1019 49 1026 q -12 947 -12 992 q -11 931 -12 939 q -7 913 -10 922 m 750 781 q 692 748 710 761 q 675 715 675 735 q 680 689 675 704 q 693 651 685 674 q 747 684 732 672 q 761 717 761 696 q 758 743 761 728 q 750 781 756 758 m 761 517 q 710 487 725 500 q 696 444 696 474 q 704 378 696 421 q 757 410 742 394 q 772 453 772 426 q 761 517 772 475 m 17 -135 q 84 -81 65 -100 q 103 -36 103 -62 q 100 -12 103 -25 q 93 17 97 0 q 53 -10 69 1 q 26 -32 36 -22 q 13 -52 17 -42 q 8 -76 8 -62 q 17 -135 8 -97 m 97 -122 q 37 -174 64 -147 q 10 -242 10 -201 q 18 -287 10 -262 q 44 -267 33 -281 q 68 -244 54 -254 q 110 -174 110 -215 q 97 -122 110 -151 m 682 1047 q 663 1034 671 1040 q 649 1021 656 1028 q 609 988 621 997 q 597 969 597 979 q 603 950 597 963 q 619 913 610 938 q 628 906 621 910 q 653 923 643 911 q 674 946 663 935 q 698 971 690 961 q 706 992 706 981 q 699 1014 706 1001 q 682 1047 693 1026 m 103 -247 q 74 -283 86 -267 q 49 -314 61 -300 q 26 -342 33 -329 q 19 -368 19 -354 q 40 -426 19 -387 q 62 -400 51 -412 q 85 -376 72 -387 q 121 -311 121 -347 q 103 -247 121 -287 m 585 1018 q 622 1047 604 1033 q 658 1074 640 1060 q 665 1088 665 1079 q 663 1097 665 1094 l 638 1135 q 617 1147 626 1147 q 594 1138 608 1147 q 558 1107 569 1118 q 546 1085 546 1096 q 553 1060 546 1074 q 576 1025 561 1047 q 585 1018 579 1022 m 668 778 q 730 819 711 806 q 749 853 749 833 q 741 885 749 867 q 719 931 733 903 q 663 888 681 904 q 646 850 646 872 q 651 819 646 836 q 668 778 657 801 m 456 614 q 473 263 467 438 q 486 -87 479 89 q 491 -175 488 -132 q 497 -261 494 -218 q 499 -281 497 -272 q 511 -290 501 -290 q 521 -289 517 -290 q 583 -258 553 -275 q 625 -203 614 -242 q 660 -65 644 -133 q 675 75 675 4 q 675 93 675 85 q 674 111 675 101 q 666 241 668 176 q 664 371 664 306 l 664 442 q 636 724 664 586 q 549 994 608 861 q 532 1029 542 1013 q 507 1058 522 1046 q 489 1068 497 1068 q 481 1065 486 1068 q 474 1051 474 1061 l 474 1046 q 463 875 471 960 q 456 704 456 790 l 456 614 m -33 -24 q -27 81 -28 31 q -25 181 -26 132 l -25 214 q -29 335 -25 275 q -36 456 -33 394 q -44 656 -42 556 q -47 857 -47 756 q -47 945 -47 901 q -44 1033 -46 989 q -34 1130 -43 1082 q -4 1224 -25 1178 q 60 1302 19 1275 q 154 1332 101 1329 q 219 1334 186 1333 q 283 1335 251 1335 q 407 1331 346 1335 q 531 1321 468 1328 q 676 1271 611 1310 q 781 1153 742 1232 q 853 967 826 1063 q 888 772 879 872 q 894 649 892 710 q 899 525 896 588 q 904 356 901 440 q 910 189 907 272 l 910 167 q 898 23 910 93 q 864 -115 886 -47 q 786 -283 835 -206 q 674 -431 738 -361 q 581 -492 633 -475 q 471 -517 528 -508 q 385 -525 428 -522 q 300 -528 343 -528 q 256 -527 278 -528 q 214 -525 235 -526 q 152 -519 182 -524 q 92 -508 122 -515 q 22 -470 49 -500 q -12 -397 -6 -440 q -17 -364 -15 -381 q -21 -331 -18 -347 q -25 -174 -28 -251 q -33 -24 -22 -97 z "},"E":{"ha":964,"x_min":-42,"x_max":919,"o":"m 471 175 q 486 188 481 176 q 489 194 489 193 q 483 200 489 200 l 481 200 q 467 189 471 200 q 466 186 467 188 q 465 183 465 185 q 471 175 465 179 m 644 160 q 667 168 660 161 q 679 183 675 175 l 679 188 q 672 194 679 194 q 655 183 663 190 q 644 160 647 175 m 478 1153 q 504 1173 493 1163 q 521 1200 515 1183 l 503 1200 q 481 1197 488 1200 q 475 1181 475 1193 q 476 1169 475 1175 q 478 1153 476 1163 m 801 1157 q 809 1156 806 1157 q 815 1156 813 1156 q 872 1199 858 1156 q 856 1201 861 1201 q 824 1188 836 1201 q 801 1157 813 1175 m 710 -471 q 763 -455 739 -461 q 803 -421 788 -449 q 765 -417 778 -417 q 738 -428 747 -417 q 710 -471 729 -439 m 518 160 q 545 155 533 157 q 565 153 557 153 q 590 163 582 153 q 611 200 599 174 q 576 204 594 204 q 542 195 557 204 q 518 160 528 186 m 261 -449 q 233 -444 244 -446 q 211 -442 221 -442 q 182 -453 192 -442 q 158 -492 172 -464 q 171 -490 165 -490 q 183 -490 176 -490 l 193 -490 q 233 -485 215 -490 q 261 -449 251 -479 m 676 1160 q 725 1150 706 1150 q 751 1161 742 1150 q 771 1199 760 1172 q 739 1204 756 1204 q 676 1160 699 1204 m 297 -479 q 346 -483 331 -483 q 379 -473 369 -483 q 406 -435 389 -462 q 384 -433 394 -433 q 363 -432 374 -432 q 325 -441 342 -432 q 297 -479 308 -450 m 547 1164 q 579 1158 567 1161 q 601 1156 592 1156 q 626 1165 618 1156 q 647 1200 635 1175 q 599 1213 614 1213 q 574 1201 585 1213 q 547 1164 564 1190 m 682 -426 q 661 -422 671 -424 q 643 -421 651 -421 q 582 -475 594 -421 l 618 -475 q 658 -467 640 -475 q 682 -426 675 -458 m 439 -475 q 492 -479 474 -479 q 525 -469 515 -479 q 547 -429 535 -458 q 523 -428 533 -428 q 503 -428 513 -428 q 464 -437 474 -428 q 439 -475 454 -446 m 97 1278 q 24 1248 44 1263 q 4 1204 4 1233 q 5 1190 4 1197 q 7 1174 6 1182 q 32 1196 18 1186 q 58 1217 46 1206 q 81 1243 71 1229 q 97 1278 92 1257 m 0 31 q 60 83 43 63 q 78 122 78 103 q 74 144 78 132 q 65 183 71 156 q 19 139 42 160 q -4 83 -4 118 l -4 64 q -3 44 -4 51 q 0 31 -3 38 m 14 -494 q 53 -503 36 -503 q 71 -501 63 -503 q 86 -499 79 -500 q 113 -483 106 -496 q 128 -457 121 -471 q 129 -450 129 -454 q 119 -435 129 -439 q 104 -425 110 -432 q 98 -417 101 -421 q 85 -414 94 -414 l 82 -414 q 47 -449 65 -431 q 14 -494 29 -468 m 1 -264 q 66 -213 49 -232 q 83 -172 83 -194 q 82 -151 83 -164 q 79 -107 81 -139 q 13 -156 29 -139 q -4 -190 -4 -172 q -5 -203 -4 -197 q -6 -214 -6 -208 q -3 -242 -6 -232 q 1 -264 -1 -253 m 85 1182 q 19 1137 39 1158 q 0 1079 0 1115 q 4 1040 0 1063 q 32 1064 17 1053 q 60 1088 47 1075 q 82 1115 74 1100 q 90 1149 90 1129 q 85 1182 90 1165 m -1 171 q 61 228 43 206 q 79 276 79 251 q 67 326 79 297 q 17 273 39 300 q -6 206 -6 246 q -1 171 -6 189 m -3 451 q 31 484 17 469 q 61 511 46 499 q 89 569 89 535 q 88 587 89 578 q 83 606 86 596 q 40 578 57 590 q 13 551 22 565 q -1 520 3 538 q -4 478 -4 503 q -3 465 -4 472 q -3 451 -3 458 m 6 -104 q 42 -80 26 -90 q 67 -61 57 -69 q 81 -43 76 -53 q 85 -21 85 -33 q 82 5 85 -10 q 74 40 79 19 q 47 18 61 29 q 22 -5 33 7 q 4 -31 11 -17 q -3 -64 -3 -46 q 6 -104 -3 -82 m 76 475 q 48 449 63 461 q 21 423 33 436 q 0 394 8 410 q -8 360 -8 379 q 1 317 -8 338 q 30 342 15 329 q 57 367 44 354 q 77 397 69 381 q 85 433 85 413 q 76 475 85 451 m 10 910 q 73 958 53 942 q 93 999 93 975 q 76 1054 93 1018 q 14 1003 32 1021 q -4 964 -4 986 q -1 940 -4 953 q 10 910 3 928 m 83 763 q 51 734 67 747 q 22 706 35 721 q 1 673 10 690 q -7 635 -7 656 q 0 593 -7 613 q 63 645 35 618 q 92 717 92 672 q 83 763 92 738 m 13 -424 q 68 -374 53 -393 q 83 -332 83 -356 q 80 -304 83 -319 q 71 -268 76 -289 q 15 -308 32 -290 q -1 -353 -1 -325 q 2 -383 -1 -367 q 13 -424 6 -400 m 7 743 q 67 801 39 772 q 96 869 96 829 q 85 917 96 888 q 22 865 44 894 q 0 792 0 835 q 2 769 0 781 q 7 743 4 757 m -36 819 q -36 896 -36 854 q -36 981 -36 938 q -37 1065 -36 1024 q -37 1140 -37 1106 l -37 1169 q -37 1183 -37 1176 q -36 1197 -37 1190 q -15 1259 -32 1233 q 38 1300 1 1285 q 158 1331 97 1324 q 281 1338 218 1338 q 358 1339 319 1339 q 436 1339 397 1339 q 492 1338 464 1339 q 549 1336 521 1336 l 567 1336 q 602 1338 585 1338 q 638 1338 619 1338 q 840 1329 740 1338 q 919 1251 919 1322 q 918 1235 919 1240 q 882 1143 911 1169 q 786 1114 853 1117 q 764 1113 775 1114 q 742 1113 753 1113 q 697 1114 719 1113 q 651 1118 675 1115 q 596 1122 624 1121 q 540 1122 568 1122 q 506 1116 519 1118 q 485 1110 493 1114 q 476 1099 478 1107 q 474 1074 474 1090 q 474 1059 474 1067 q 475 1040 475 1051 q 476 901 475 958 q 476 790 476 843 q 476 694 476 742 q 474 605 475 646 q 471 532 472 564 q 468 483 469 500 q 467 431 467 457 q 465 376 467 404 l 465 371 q 472 347 465 356 q 499 338 479 338 q 532 337 515 338 q 565 335 549 336 q 592 335 579 335 q 618 336 604 336 q 637 335 628 336 q 656 333 646 335 q 729 256 729 325 l 729 247 q 718 186 728 218 q 638 121 703 122 q 576 119 607 119 q 515 117 546 118 q 476 109 485 114 q 468 81 468 104 l 467 -18 q 468 -40 468 -29 q 468 -62 468 -51 q 465 -153 468 -108 q 463 -243 463 -199 q 467 -288 463 -278 q 494 -299 471 -299 q 506 -298 500 -299 q 518 -297 511 -297 q 650 -291 585 -294 q 782 -285 715 -287 q 797 -283 789 -283 q 811 -283 804 -283 q 832 -285 825 -283 q 876 -303 861 -287 q 892 -343 892 -319 q 879 -387 892 -365 q 783 -482 842 -456 q 650 -511 725 -508 q 434 -517 542 -514 q 218 -525 326 -521 q 143 -531 181 -528 q 67 -537 106 -535 q 54 -538 60 -537 q 43 -539 49 -539 q 12 -535 24 -539 q -8 -523 0 -532 q -19 -499 -15 -514 q -25 -460 -22 -483 q -37 -319 -35 -389 q -40 -178 -40 -249 q -39 -60 -40 -119 q -37 57 -37 -1 q -38 118 -37 88 q -40 179 -39 149 q -42 216 -42 199 q -42 253 -42 233 q -41 326 -42 289 q -40 399 -40 363 l -36 399 l -36 819 z "},"F":{"ha":992,"x_min":-50,"x_max":917,"o":"m 681 194 q 647 164 653 185 l 654 164 q 681 194 675 164 m 508 206 q 481 194 488 199 q 474 179 474 190 q 475 163 474 169 q 494 180 486 171 q 508 206 503 189 m 796 1164 q 832 1171 818 1164 q 854 1197 846 1178 q 840 1199 849 1199 q 813 1189 824 1199 q 788 1164 801 1179 l 796 1164 m 317 -476 q 333 -478 322 -478 q 381 -453 374 -478 l 381 -449 q 374 -439 381 -443 q 360 -437 368 -437 q 317 -471 332 -437 l 317 -476 m 475 1149 q 503 1176 490 1164 q 529 1201 517 1189 q 510 1203 518 1203 q 494 1204 501 1204 q 478 1199 482 1204 q 474 1179 474 1194 q 474 1165 474 1172 q 475 1149 474 1158 m 282 -444 q 262 -442 271 -443 q 246 -442 253 -442 q 221 -450 228 -442 q 200 -482 214 -458 q 213 -484 207 -483 q 225 -485 218 -485 q 259 -476 244 -485 q 282 -444 274 -468 m 522 153 q 547 149 536 149 q 587 163 571 149 q 614 197 603 176 q 588 203 601 203 q 552 188 567 203 q 522 153 538 172 m 760 1197 q 721 1204 732 1204 q 695 1194 706 1204 q 669 1158 685 1183 q 697 1153 682 1153 q 731 1165 717 1153 q 760 1197 746 1176 m 553 1146 q 590 1148 576 1146 q 614 1156 604 1150 q 630 1172 624 1161 q 644 1199 636 1182 q 617 1203 624 1203 q 574 1184 592 1203 q 533 1146 557 1165 l 553 1146 m 15 1179 q 61 1225 39 1206 q 90 1276 83 1244 q 51 1269 65 1274 q 28 1254 36 1264 q 18 1226 21 1244 q 15 1179 15 1208 m 50 -482 q 70 -483 61 -482 q 90 -483 79 -483 q 128 -476 110 -483 q 161 -444 146 -469 l 157 -444 q 124 -434 138 -444 q 96 -424 110 -424 l 93 -424 q 66 -442 78 -426 q 43 -482 54 -458 l 50 -482 m 75 83 q 51 59 64 71 q 28 35 39 47 q 9 9 17 24 q 1 -24 1 -6 l 1 -50 q 3 -76 1 -71 q 26 -53 13 -64 q 51 -32 39 -43 q 70 -8 63 -21 q 78 25 78 6 q 77 42 78 32 q 75 83 76 53 m 6 -454 q 65 -394 49 -412 q 81 -360 81 -376 q 78 -344 81 -353 q 71 -324 75 -335 q 47 -342 56 -331 q 25 -362 38 -354 q -7 -412 -7 -382 q 6 -454 -7 -432 m -11 -337 q 31 -308 14 -321 q 58 -283 49 -294 q 72 -259 68 -271 q 76 -232 76 -247 q 76 -217 76 -225 q 74 -201 75 -210 q 28 -231 44 -219 q 3 -253 11 -242 q -8 -278 -6 -264 q -11 -315 -11 -293 l -11 -337 m 13 221 q 60 269 39 244 q 81 326 81 293 q 79 345 81 335 q 75 374 78 356 q 25 324 43 349 q 7 271 7 300 l 7 257 q 13 221 7 236 m 4 72 q 60 124 43 104 q 78 169 78 144 q 67 218 78 188 q 20 169 42 194 q -1 108 -1 144 q 4 72 -1 90 m 83 700 q 13 594 13 651 q 24 549 13 574 q 71 599 50 572 q 92 660 92 625 q 83 700 92 679 m 21 876 q 74 927 57 908 q 92 972 92 946 q 79 1031 92 993 q 35 977 57 1003 q 14 915 14 951 q 15 897 14 907 q 21 876 17 888 m 85 1186 q 27 1136 43 1158 q 11 1086 11 1114 q 14 1060 11 1075 q 21 1029 17 1046 q 67 1087 44 1058 q 90 1154 90 1115 q 89 1169 90 1161 q 85 1186 88 1178 m -6 -206 q 65 -150 43 -174 q 86 -103 86 -126 q 74 -60 86 -83 q 47 -87 61 -74 q 21 -114 33 -100 q 1 -145 8 -128 q -7 -185 -7 -162 q -6 -206 -7 -199 m 83 553 q 26 488 43 513 q 8 438 8 464 q 12 411 8 425 q 21 379 15 397 q 89 507 89 426 q 88 529 89 518 q 83 553 86 540 m 88 878 q 31 827 49 846 q 13 779 13 808 q 16 749 13 765 q 26 711 19 733 q 79 760 65 731 q 93 825 93 789 q 92 851 93 838 q 88 878 90 864 m 472 714 q 474 676 474 694 q 474 638 474 657 q 473 564 474 600 q 471 497 472 528 q 469 440 469 465 q 468 400 468 414 l 468 390 q 467 380 468 385 q 467 371 467 375 q 476 346 467 350 q 514 335 485 342 q 534 332 525 332 q 554 332 543 332 q 588 333 571 332 q 621 333 604 333 l 632 333 q 708 315 685 332 q 735 257 732 297 l 735 244 q 710 163 735 199 q 644 121 685 128 q 575 112 610 115 q 506 106 540 108 q 479 97 486 104 q 472 72 472 90 l 467 -17 q 468 -53 468 -35 q 468 -89 468 -71 q 466 -218 468 -154 q 461 -347 464 -282 q 457 -392 461 -371 q 442 -433 453 -414 q 390 -496 419 -472 q 314 -519 361 -519 q 306 -519 310 -519 q 297 -518 301 -518 q 262 -516 279 -517 q 226 -515 244 -515 q 156 -517 190 -515 q 85 -518 121 -518 q 63 -518 74 -518 q 40 -517 51 -518 q -12 -499 1 -511 q -36 -449 -26 -486 q -50 -342 -50 -399 q -49 -326 -50 -335 q -49 -310 -49 -318 q -39 -55 -40 -182 q -31 201 -37 72 q -24 383 -25 293 q -21 565 -24 474 q -19 608 -19 586 q -19 650 -19 629 q -21 776 -19 714 q -22 903 -22 839 l -22 1193 q -18 1242 -22 1222 q -3 1275 -14 1261 q 25 1298 7 1289 q 72 1317 43 1307 q 189 1337 131 1335 q 306 1340 247 1339 q 399 1338 353 1340 q 492 1336 444 1336 q 519 1336 506 1336 q 547 1338 533 1336 q 590 1340 568 1339 q 632 1340 611 1340 q 738 1338 685 1340 q 844 1331 792 1335 q 898 1308 879 1328 q 917 1257 917 1289 q 916 1244 917 1250 q 914 1232 915 1239 q 884 1167 906 1194 q 822 1129 863 1140 q 767 1119 794 1122 q 713 1117 740 1117 l 665 1117 q 606 1111 633 1114 q 556 1106 582 1108 q 515 1100 531 1103 q 492 1095 500 1097 q 479 1089 483 1093 q 474 1076 475 1085 q 474 1053 474 1068 l 472 714 z "},"G":{"ha":1085,"x_min":-44,"x_max":1001,"o":"m 781 922 q 799 917 792 917 q 817 925 808 917 q 831 940 824 932 q 839 956 839 947 q 835 965 839 961 q 824 972 829 972 q 810 963 815 972 q 797 949 804 954 q 785 938 790 943 q 781 922 781 932 m 650 -415 q 603 -421 619 -418 q 577 -428 586 -424 q 563 -440 568 -432 q 553 -461 558 -447 q 583 -453 571 -457 q 603 -446 594 -450 q 623 -435 613 -442 q 650 -415 633 -428 m 869 -293 q 808 -332 826 -317 q 790 -365 790 -347 q 803 -403 790 -381 q 841 -353 819 -376 q 869 -293 863 -329 m 528 146 q 565 184 547 163 q 586 217 583 206 q 588 228 588 221 q 572 243 588 243 l 569 243 q 527 227 542 242 q 513 192 513 213 q 516 169 513 181 q 528 146 519 157 m 388 -426 q 344 -421 367 -421 q 303 -431 321 -421 q 272 -467 285 -440 q 303 -475 292 -472 q 325 -478 315 -478 q 353 -466 342 -478 q 388 -426 365 -454 m 693 185 q 656 181 675 181 q 621 178 638 182 q 592 163 604 175 q 575 121 579 150 q 642 134 611 125 q 693 185 674 143 m 213 -365 q 190 -394 200 -381 q 171 -418 181 -407 q 164 -431 164 -428 q 179 -447 164 -440 q 210 -456 193 -456 q 239 -440 228 -456 q 255 -425 246 -432 q 265 -403 264 -418 q 240 -385 253 -394 q 213 -365 228 -376 m 871 -371 q 840 -415 856 -396 q 814 -460 824 -433 l 831 -460 q 883 -452 860 -460 q 931 -421 907 -444 q 899 -400 913 -410 q 871 -371 885 -390 m 724 -231 q 792 -160 769 -200 q 826 -76 815 -121 q 760 -139 789 -104 q 724 -231 732 -174 m 513 -426 q 492 -424 501 -425 q 476 -424 483 -424 q 433 -436 449 -424 q 401 -485 418 -449 q 424 -486 414 -486 q 442 -486 433 -486 q 469 -484 458 -486 q 487 -475 479 -482 q 500 -457 494 -468 q 513 -426 506 -446 m 135 -394 q 173 -358 161 -371 q 185 -333 185 -344 q 176 -310 185 -322 q 153 -279 168 -299 q 116 -316 128 -303 q 104 -342 104 -329 q 112 -363 104 -351 q 135 -394 119 -375 m 96 1113 q 184 1163 157 1135 q 221 1244 211 1192 q 147 1191 178 1222 q 96 1113 115 1160 m 563 1140 q 592 1124 582 1129 q 611 1119 603 1119 q 631 1128 622 1119 q 654 1154 639 1136 q 665 1167 660 1161 q 671 1182 671 1172 q 642 1195 654 1190 q 621 1200 631 1200 q 593 1186 606 1200 q 563 1140 581 1172 m 142 1085 q 69 1036 96 1065 q 42 958 42 1007 l 42 951 q 110 1003 86 971 q 142 1085 133 1036 m 90 931 q 26 872 44 908 q 7 778 7 836 l 7 772 q 92 894 92 804 q 91 919 92 913 q 90 931 90 926 m 685 1049 q 718 1080 703 1065 q 749 1110 733 1094 q 757 1124 757 1115 q 749 1138 757 1131 q 735 1151 742 1143 q 718 1160 728 1160 q 707 1156 713 1160 q 678 1128 692 1143 q 657 1096 665 1114 q 656 1089 656 1093 q 667 1069 656 1078 q 685 1049 678 1060 m 125 -151 q 79 -183 93 -171 q 65 -212 65 -196 q 72 -240 65 -224 q 90 -282 79 -257 q 131 -242 118 -257 q 143 -211 143 -228 q 138 -186 143 -200 q 125 -151 133 -172 m -1 619 q 61 667 46 650 q 76 706 76 683 q 74 729 76 717 q 69 758 72 742 q 33 738 47 747 q 10 717 18 728 q -2 696 1 707 q -6 669 -6 685 q -1 619 -6 649 m 779 1078 q 723 1028 739 1049 q 707 989 707 1008 q 712 963 707 976 q 724 931 717 949 q 772 974 754 950 q 789 1029 789 999 q 779 1078 789 1054 m 764 76 q 796 112 781 96 q 824 147 811 128 q 831 171 831 157 q 790 201 831 199 q 765 196 775 201 q 748 182 756 190 q 733 165 740 174 q 717 147 725 156 q 734 133 726 139 q 746 118 742 126 q 756 99 753 110 q 764 76 758 89 m 761 -76 q 817 -23 794 -51 q 840 43 840 6 q 831 93 840 68 q 778 34 801 64 q 756 -36 756 4 q 761 -76 756 -58 m 7 146 q 65 191 47 172 q 83 235 83 210 q 80 259 83 246 q 69 289 76 272 q 11 247 29 264 q -7 206 -7 229 q -3 180 -7 194 q 7 146 0 165 m 51 -157 q 101 -117 83 -129 q 118 -82 118 -106 q 99 -11 118 -60 q 43 -50 60 -39 q 26 -76 26 -61 q 33 -106 26 -87 q 51 -157 40 -125 m 69 618 q -10 508 -10 574 q -1 461 -10 486 q 36 482 21 474 q 60 499 51 490 q 72 518 68 507 q 75 546 75 529 q 74 576 75 558 q 69 618 72 594 m 68 447 q 31 428 46 436 q 6 411 15 419 q -6 393 -3 403 q -10 369 -10 383 q -7 338 -10 356 q 0 293 -4 319 q 35 316 21 307 q 59 334 50 325 q 72 353 68 343 q 76 378 76 363 q 74 407 76 390 q 68 447 71 424 m 19 -17 q 53 7 39 -3 q 77 25 68 17 q 91 43 86 33 q 96 67 96 53 q 78 146 96 92 q 22 103 40 119 q 4 57 4 86 q 8 26 4 43 q 19 -17 13 8 m 754 -382 q 681 -442 717 -415 q 604 -486 646 -469 q 528 -510 567 -500 q 447 -522 489 -519 l 424 -522 q 192 -490 307 -522 q 103 -419 131 -474 q 80 -374 90 -397 q 60 -328 69 -351 q -22 -8 1 -169 q -44 318 -44 153 q -44 371 -44 344 q -43 424 -44 397 q -42 472 -43 456 q -42 503 -42 488 q -42 553 -42 528 q -43 604 -43 579 q -42 651 -43 628 q -40 699 -42 675 q 44 1092 -28 904 q 102 1194 67 1151 q 182 1266 138 1238 q 280 1310 226 1294 q 393 1333 333 1326 q 478 1338 435 1338 q 542 1336 510 1338 q 606 1333 574 1335 q 864 1203 767 1325 q 918 1061 918 1136 q 847 903 918 974 q 803 882 828 883 q 769 882 786 882 q 735 883 751 882 q 697 898 710 886 q 679 935 685 910 q 678 949 678 942 q 676 963 678 956 q 572 1092 663 1056 q 561 1096 565 1094 q 551 1097 557 1097 q 524 1075 536 1097 q 467 940 488 1008 q 446 796 447 871 q 443 639 444 718 q 442 465 442 560 q 444 302 442 383 q 454 139 447 221 q 478 -34 463 51 q 513 -204 493 -119 q 517 -223 515 -214 q 525 -242 519 -232 q 583 -289 549 -289 q 640 -260 611 -289 q 697 -182 676 -224 q 718 -89 718 -140 l 718 -58 q 720 -8 718 -33 q 722 43 722 18 l 722 57 q 717 93 722 83 q 694 103 713 103 q 658 99 681 103 q 620 90 639 94 q 582 86 601 86 l 571 86 q 519 101 540 88 q 483 139 499 115 q 469 185 469 161 q 483 228 469 208 q 521 263 496 249 q 638 311 578 294 q 763 332 699 328 q 824 334 794 333 q 886 335 854 335 q 957 313 936 333 q 978 243 978 292 q 977 195 978 219 q 975 147 976 171 q 973 108 974 128 q 972 68 972 88 q 982 -114 972 -24 q 1000 -296 992 -204 q 1001 -308 1001 -303 q 1001 -319 1001 -314 q 965 -435 1001 -389 q 863 -494 929 -482 q 847 -497 854 -497 q 832 -497 839 -497 q 758 -419 771 -497 q 757 -405 757 -412 q 754 -382 757 -397 z "},"H":{"ha":1061,"x_min":-37,"x_max":976,"o":"m 525 197 q 506 199 514 199 q 492 200 499 200 q 475 186 475 200 q 476 171 475 179 q 481 150 478 163 l 483 150 q 494 154 490 150 q 503 164 499 158 q 517 177 510 171 q 525 197 524 183 m 779 401 q 760 389 767 396 q 747 375 754 382 q 737 363 742 369 q 725 347 732 356 q 772 358 760 354 q 783 374 783 363 q 779 401 783 382 m 722 1182 q 741 1203 731 1194 q 761 1222 751 1213 q 777 1241 771 1231 q 783 1267 783 1251 q 782 1278 783 1274 q 740 1250 758 1265 q 721 1200 721 1235 q 722 1182 721 1189 m 426 -431 q 390 -426 407 -426 q 345 -439 364 -426 q 313 -479 326 -451 l 322 -479 q 378 -470 353 -479 q 426 -431 404 -461 m 838 -318 q 815 -352 826 -336 q 794 -383 804 -368 q 789 -400 789 -393 q 795 -440 789 -432 q 813 -449 801 -447 l 819 -449 q 847 -436 836 -449 q 856 -421 853 -429 q 860 -406 860 -412 q 854 -381 860 -397 q 838 -318 849 -364 m 114 -381 q 83 -413 94 -397 q 61 -447 71 -429 q 56 -458 58 -453 q 54 -468 54 -462 q 58 -478 54 -474 q 81 -487 68 -487 q 99 -481 89 -487 q 123 -457 111 -469 q 142 -429 135 -444 q 143 -422 143 -426 q 132 -402 143 -411 q 114 -381 121 -393 m 669 204 q 624 208 640 208 q 582 195 596 208 q 550 146 568 182 q 578 142 564 142 q 629 159 608 142 q 669 204 650 176 m 153 -485 q 174 -486 164 -486 q 193 -486 183 -486 q 248 -476 224 -486 q 289 -429 272 -465 q 240 -425 264 -425 q 191 -437 214 -425 q 153 -485 168 -449 m 776 635 q 727 596 749 615 q 706 544 706 576 q 714 506 706 528 q 759 549 738 528 q 781 604 781 569 q 776 635 781 618 m 721 914 q 777 958 761 942 q 793 994 793 975 q 781 1044 793 1011 q 731 1008 746 1031 q 717 953 717 985 q 721 914 717 935 m 781 222 q 728 206 749 222 q 688 160 708 189 l 693 160 q 711 155 706 160 q 721 142 717 150 q 729 127 725 135 q 740 115 733 119 q 756 134 747 125 q 773 153 765 143 q 786 173 781 163 q 792 197 792 183 q 788 222 792 207 l 781 222 m 35 -247 q 94 -196 79 -214 q 110 -161 110 -178 q 105 -136 110 -150 q 96 -103 100 -122 q 48 -150 68 -126 q 28 -210 28 -174 q 35 -247 28 -224 m 714 631 q 764 672 742 650 q 786 726 786 693 q 782 756 786 739 q 724 722 740 736 q 708 679 708 708 q 710 658 708 669 q 714 631 711 646 m 718 768 q 776 810 760 794 q 792 850 792 825 q 783 907 792 869 q 732 865 750 889 q 714 804 714 840 q 718 768 714 786 m 825 -182 q 776 -239 792 -221 q 761 -275 761 -257 q 766 -299 761 -286 q 782 -335 771 -312 q 819 -285 801 -310 q 838 -229 838 -261 q 825 -182 838 -207 m 74 836 q 22 794 38 811 q 6 753 6 776 q 19 697 6 731 q 81 792 81 729 q 74 836 81 811 m 15 544 q 79 644 79 582 q 74 686 79 665 q 24 648 39 664 q 8 600 8 632 q 10 576 8 589 q 15 544 13 563 m 786 1186 q 735 1147 750 1163 q 719 1107 719 1131 q 722 1087 719 1097 q 726 1061 724 1076 q 777 1095 761 1081 q 793 1138 793 1110 q 786 1186 793 1154 m 797 118 q 753 71 768 97 q 736 3 738 44 q 744 -47 736 -21 q 787 3 765 -19 q 808 58 808 26 l 808 68 q 806 96 808 85 q 797 118 803 107 m 75 365 q 29 321 40 346 q 18 265 18 296 q 19 240 18 253 q 22 213 21 226 q 86 310 86 251 q 75 365 86 335 m 14 1140 q 44 1169 29 1156 q 72 1197 60 1182 q 91 1227 83 1211 q 99 1264 99 1243 q 97 1282 99 1275 q 58 1267 74 1275 q 32 1244 42 1258 q 18 1206 22 1229 q 14 1149 14 1183 l 14 1140 m 85 208 q 35 158 50 181 q 19 108 19 135 q 22 84 19 97 q 29 56 25 71 q 92 160 92 94 q 85 208 92 181 m 83 1144 q 0 1039 0 1101 q 8 994 0 1017 q 62 1049 36 1022 q 88 1115 88 1075 q 83 1144 88 1128 m 40 -406 q 65 -378 53 -392 q 88 -350 78 -364 q 106 -321 99 -336 q 113 -287 113 -306 q 103 -246 113 -267 q 49 -291 69 -265 q 29 -351 29 -317 q 40 -406 29 -375 m 35 -101 q 86 -54 71 -72 q 101 -12 101 -36 q 98 15 101 0 q 88 53 94 31 q 41 8 60 32 q 22 -49 22 -17 q 35 -101 22 -72 m 10 840 q 67 892 50 872 q 83 938 83 911 q 71 1000 83 960 q 22 950 43 976 q 0 888 0 924 q 10 840 0 864 m 806 -37 q 762 -90 782 -64 q 742 -149 742 -117 q 757 -204 742 -175 q 801 -151 781 -178 q 821 -93 821 -125 q 806 -37 821 -67 m 14 368 q 65 421 50 399 q 81 471 81 443 q 67 532 81 493 q 4 425 4 492 q 14 368 4 397 m 922 857 q 912 667 917 753 q 907 501 907 581 q 908 431 907 465 q 913 361 910 396 q 921 294 915 328 q 926 228 926 261 q 925 199 926 213 q 919 171 924 186 q 946 -60 933 54 q 974 -292 958 -175 q 976 -308 975 -300 q 976 -324 976 -315 q 969 -377 976 -351 q 951 -428 963 -403 q 864 -486 926 -485 q 853 -487 860 -487 q 800 -485 819 -487 q 769 -472 781 -482 q 752 -444 758 -462 q 740 -392 746 -425 q 710 -187 721 -292 q 699 47 699 -82 l 699 68 q 699 82 699 75 q 697 96 699 89 q 675 121 693 121 q 671 120 672 121 q 667 119 669 119 q 594 109 631 110 q 521 107 557 108 q 485 99 493 107 q 478 68 478 92 l 478 58 q 483 -135 479 -51 q 490 -297 486 -218 q 491 -310 490 -304 q 492 -324 492 -317 q 481 -403 492 -361 q 438 -480 468 -451 q 360 -512 407 -508 q 257 -522 308 -517 q 154 -526 206 -526 q 122 -526 139 -526 q 90 -524 106 -525 q 56 -519 69 -522 q 35 -508 43 -515 q 20 -489 26 -501 q 8 -457 14 -476 q -4 -396 -3 -426 q -7 -335 -6 -365 q -12 -45 -10 -189 q -18 244 -15 99 q -19 289 -18 267 q -24 333 -21 311 q -32 453 -32 393 q -30 541 -32 497 q -28 629 -28 585 q -28 658 -28 644 q -29 688 -28 672 q -33 813 -33 750 q -36 940 -33 876 q -37 961 -36 951 q -37 982 -37 971 q -33 1084 -37 1033 q -22 1186 -29 1135 q 31 1293 -14 1253 q 144 1336 76 1333 l 219 1336 q 311 1336 265 1336 q 403 1335 357 1336 q 482 1272 482 1332 q 476 1236 482 1253 q 465 1172 468 1204 q 463 1108 463 1140 q 458 846 461 976 q 456 583 456 715 q 457 476 456 526 q 464 401 458 426 q 465 383 464 392 q 465 363 465 374 q 493 335 465 336 q 508 333 500 333 q 524 333 517 333 q 587 336 556 333 q 650 342 618 339 q 664 349 661 343 q 667 361 667 354 l 667 376 q 672 508 674 429 q 674 672 671 588 q 678 858 676 765 q 685 1043 681 950 l 685 1057 q 683 1113 685 1085 q 682 1168 682 1140 l 682 1194 q 702 1260 685 1235 q 753 1306 719 1286 q 842 1338 796 1332 l 851 1338 q 921 1276 910 1338 q 922 1263 922 1269 q 922 1249 922 1256 l 922 857 m 776 518 q 727 479 749 499 q 706 428 706 460 q 714 389 706 411 q 759 432 738 411 q 781 488 781 453 q 776 518 781 501 z "}}}
